<mxfile host="Electron" modified="2024-08-20T12:17:55.884Z" agent="Mozilla/5.0 (Macintosh; Intel Mac OS X 10_15_7) AppleWebKit/537.36 (KHTML, like Gecko) draw.io/23.1.5 Chrome/120.0.6099.109 Electron/28.1.0 Safari/537.36" etag="POD481pezgTVRFaXkfZs" version="23.1.5" type="device">
  <diagram name="admin_page" id="W0L6QsjuAduvQYSjs24X">
    <mxGraphModel dx="3194" dy="1214" grid="1" gridSize="10" guides="1" tooltips="1" connect="1" arrows="1" fold="1" page="1" pageScale="1" pageWidth="3300" pageHeight="2339" math="0" shadow="0">
      <root>
        <mxCell id="0" />
        <mxCell id="1" parent="0" />
        <mxCell id="_Icnadqldm7JAuMDdTMk-1" value="" style="shape=image;verticalLabelPosition=bottom;labelBackgroundColor=default;verticalAlign=top;aspect=fixed;imageAspect=0;image=data:image/png,iVBORw0KGgoAAAANSUhEUgAABHMAAAPACAYAAAC2LDUiAAAAAXNSR0IArs4c6QAAAGJlWElmTU0AKgAAAAgAAYdpAAQAAAABAAAAGgAAAAAABJKGAAcAAAASAAAAUKABAAMAAAABAAEAAKACAAQAAAABAAAEc6ADAAQAAAABAAADwAAAAABBU0NJSQAAAFNjcmVlbnNob3TE417fAAAB12lUWHRYTUw6Y29tLmFkb2JlLnhtcAAAAAAAPHg6eG1wbWV0YSB4bWxuczp4PSJhZG9iZTpuczptZXRhLyIgeDp4bXB0az0iWE1QIENvcmUgNi4wLjAiPgogICA8cmRmOlJERiB4bWxuczpyZGY9Imh0dHA6Ly93d3cudzMub3JnLzE5OTkvMDIvMjItcmRmLXN5bnRheC1ucyMiPgogICAgICA8cmRmOkRlc2NyaXB0aW9uIHJkZjphYm91dD0iIgogICAgICAgICAgICB4bWxuczpleGlmPSJodHRwOi8vbnMuYWRvYmUuY29tL2V4aWYvMS4wLyI+CiAgICAgICAgIDxleGlmOlBpeGVsWURpbWVuc2lvbj45NjA8L2V4aWY6UGl4ZWxZRGltZW5zaW9uPgogICAgICAgICA8ZXhpZjpQaXhlbFhEaW1lbnNpb24+MTEzOTwvZXhpZjpQaXhlbFhEaW1lbnNpb24+CiAgICAgICAgIDxleGlmOlVzZXJDb21tZW50PlNjcmVlbnNob3Q8L2V4aWY6VXNlckNvbW1lbnQ+CiAgICAgIDwvcmRmOkRlc2NyaXB0aW9uPgogICA8L3JkZjpSREY+CjwveDp4bXBtZXRhPgpoUNxtAABAAElEQVR4AeydB5xVxfm/X2DpIKKIggXBrti7QYpdscfee2KJ0UR/sbfY/tYYNUaNxt5L1NgbIthARWxRuhRFsKKAtP3PM/hezp699+7dy96t35fPcs49Z2bOzDP9Pe/MadanT59yk4iACIiACIiACIiACIiACIiACIiACIiACDQIAmVt2rdrEBFVJEVABERABERABERABERABERABERABERABMzKxszfXBxEQAREQAREQAREQAREQAREQAREQAREQAQaCIHmDSSeiqYIiIAIiIAIiIAIiIAIiIAIiIAIiIAIiEAgIGWOioEIiIAIiIAIiIAIiIAIiIAIiIAIiIAINCACUuY0oMxSVEVABERABERABERABERABERABERABERAyhyVAREQAREQAREQAREQAREQAREQAREQARFoQASkzGlAmaWoioAIiIAIiIAIiIAIiIAIiIAIiIAIiICUOSoDIiACIiACIiACIiACIiACIiACIiACItCACEiZ04AyS1EVAREQAREQAREQAREQAREQAREQAREQgTIhaNoEVuvZ1XbeZh3rvtySNnfufHvr3bH28pDPbPYvc5s2GKVeBERABERABERABERABERABERABOopAVnm1NOMqY1otWvXyg7bdwvr1rWTff/9TJs3b4H123J122On9Wvj8XqGCIiACIiACIiACIiACIiACIiACIhAEQRkmVMEtMbiZd+BG1nrVmX2yNPv2/APxlvLshZ24hH9bb01l7eHn3zXFpSXN5akKh0iIAIiIAIiIAIiIAIiIAIiIAIi0GgIyDKn0WRl9ROyQrfO0dOY8V/bggXl9suceTbt25+sZcsW1rFjm+oHKB8iIAIiIAIiIAIiIAIiIAIiIAIiIAIlJyBlTskR198HjB4/LUZu4/V6RAudpTu3txXC3jkzZ82xH2fMrr8RV8xEQAREQAREQAREQAREQAREQAREoAkT0DKrJpr57du1trVWWy6mfrut1zT+kPKwtGrw26PiMV7QfyIgAiIgAiIgAiIgAiIgAiIgAiIgAvWKgJQ59So7aicyKHJOPnqAtWvbKj4QBQ6bH88JX7N66sWR9sHHE2snInqKCIiACIiACIiACIiACIiACIhA0QR6r9bdTj6kv/XZeBVr07pl0eHIY90Q4CvSQ94dY3+/Z5B9NGpKtSLRrOd252qX22oha9iOUeQcd3Af67Zsp5gQNjl+6MnhNuLjSXHfnIadOsVeBERABERABERABERABERABJoGARQ5D117tJQ4jSC7Uersd+pt1VLoaM+cRpDxhSahbbDEOeHwvhlFDhY5D/xnmI38eILtsNJoG9hrlLVsvqDQ4OROBERABERABERABERABERABESgjghgkSNrnDqCX8OPJR/Jz+qIlllVh1YDdtuhfWs746SdrFX4UhUyb/4Cu/PhN230mK/sT5u8bUeu80G8Pntemb38Rc94rv9EQAREQAREQAREQAREQAREQATqJwGWVkkaD4Hq5qeUOY0n73OmpH2wyDnlmG0zipxgkGP3PPqOfTZ6ql3R95VokeOeW5fN91MdRUAEREAEREAEREAEREAEREAE6ikBWeXU04wpMlrVzU8pc4oE3VC8tWvXyn5/aF9bomObhVEOipx7H3s7WORMtKv6vWo79xxtzX5NzOOj1rBXv+jRUJKmeIqACIiACIiACIiACIiACIiACIhAkyQgZU4jznY2O/7DUf1tqSXbx1RikXP3I2/ZmDET7JzN37BdgiLH5Ykxq9t5b/Sz+eXaRsmZ6CgCIiACIiACIiACIiACIiACIiAC9ZGAlDn1MVdqIE4dO7SxM07c0Vom9si57b6hNnHSV3ZZn0HBImdM5ikPf7a2nf9m38xvnYiACIiACIiACIiACIiACIiACIiACNRfAlLm1N+8KTpmbHb8x6MHZBQ5WOSw2fHYCdPsth2fsS26Tc6EffPIjezGEZtkfutEBERABERABERABERABERABERABESgfhOQMqd+50+1Y9exfRv73aFbhz1y2ka/fH787kfftilffGG37/iCbf6rIqc87JTzjxEb2S1BmTNvgZZWVRu0PIiACIiACIiACIiACIiACIiACIhAHRGQMqeOwJfisZ2CAueEw/ta51/3yJkfPj9+V9gjZ+rEcXGzY1fkzC9vZv/+aP2gzNnUgtGORAREQAREQAREQAREQAREQAREQAREoAERkDKnAWVWMqplZS2MT467tGnT0k48op/558zmzptvt90/1L6a/KXdvP0LtvGyX0anC4Ii5x9hWdVNH2zsXnUUAREQAREQAREQAREQAREQAREQARFoQASkzGlAmZWM6sF7bWZrrrZsuMSHxVk01cyaN1/4kXGWVt310Fs2ceLX9tBu/7E1On+T8Xrhm1vbo6PWyvzWiQiIgAiIgAiIgAiIgAiIgAiIQNMlMHXqVDvxxBPt+eeft2WXXdYuuOACO+SQQxoEkL/85S/2448/2k033ZSJ7yeffGK//PKLbbjhhplrjfFEypwGmqs9VljKWjT3vW4WKnFIygIUOQ+/Zd99NTYocp4OipxvYwrnLmhhl7z1G3ssKHKwzpGIgAiIgAiIgAiIgAiIgAiIgAg0bQIYAuyzzz42ZMiQCOKnn36yQw89NCp1tt9++3oP55FHHrFp06ZVUOYMGDDAvv76a5s7d66VlTVelUfjTVm9L3aLF8GnX/7QNttg5WCN09yaBd1Ms/Afe+S89PqnNn3KBLt1+2czipzZ88vsmuGb20Ofr714D5VvERABERABERABERABERABERCBRkNg7NixGUVOMlF33XWXNQRlTjLOfn7LLbcYSqnGrMghrUUrc1q2bGFLhC8nfT9jVlQiODgda4fAuyO/MP6yyf5rjLO1lp4eb/Glqr+GpVWPj14jm1NdEwEREAEREAEREAEREAEREAERaKIEsMzJJrmuZ3Ob7doPP/xgKFVY8tSnTx/ba6+9bKmllopOFyxYYOeee66tsMIKdvzxx8drL7zwgg0aNMiOPfZY69mzZ7x29tln22qrrWZLLrmkPfvss7bmmmvagQceaMstt1y2R2aujR492n7++efMb05mzZpld955pw0fPtxWXXVV23XXXa13794ZNzybOOy5557xWV999ZXtu+++1r9//2hA4Q4nTZoU0zV58mTDAmjmzJn27bff2hlnnOFOau3YrOd252bPvSqicMdlh9mmvXvYi298aqdc9kgVrnW7NgkcstaHdtbmQ+MjH/58LbvgjX5VfrWqxxI/WK9O39lrk3poGVZtZpaeJQIiIAIiIAIiIAIiIAIiIAJFEBj74kVF+KroBaUNypY33nijwo3nnnvOdtxxxwrXCv2BImejjTYyrH46duxoM2bMiF5ZDtWlSxebN2+etWzZ0jbddFN755134j2UOxdffLG99tpr1rdvXyNerEJx8XDWW289++CDD/yyrbLKKnGZFfvmuKSv8bzNN9/c3nvvPVt99dXt888/j05HjBhh66+/fjy//PLL7cwzz4zn/ix+PPXUU1Hxw/k333xja6+9dlzClXTTtWtXY9+hmpBe259XcDCL6BTsZaHDvpusam3DF5R232Y967Vil0q+y1o0t03X7ZH5a9dm0ZeXcMyyoI3XWSlzf5PeKxl+cknL8PWmZHidl2hXyelGa68Y3fRerXvmXqtgQZT0l++8fdvWGX+ctG5VVsHv+mssX+F+VT+WDp8I32L9nrbfzhvbAbtsbAM2X926LdMpLotK+12z13IVnpWOZ9elO6a95Pz96z7I8f6seS2rVOSs2+Vre3LPB+3GbZ+zQ9f+MGe4uiECIiACIiACIiACIiACIiACItB4CDAvf+yxx+K+OZ06dYqWMHfffXfRihzI3HjjjVGRg7UKVitPPvlkBHbbbbdVGxxKkwkTJsRwsJIZOXJk/F2dgMaPH2/dunWLyqLPPvvM3n777ej9n//8Z6VgfEPll156Kd7zuPMDSyP24jn66KMNy51Ro0ZV8l+bF4peZjXsownRMofIbr7eyjZ24sJlPR75NXouaw9ec3T8OXX6j9bnkGv8Vjx26dze7rniiKgw8RtHnX2PDXpnoZbMr/lxiQ5tMuFxbdykb2zX4/9hs2bPjU5CGbTbLznUcDdqwte283E32oIF5YZCxePhYeU67nXSzfbBZ5Mzt7fcoGcM0y8Q3o7HXG9jUmn1+xzZlBilzRF7bRH5sBwtKWgYn3zlQzv18orWTBecNNA2C8qvXHLBDU/bXU8sLHS53Pj1Zgn1TSGbHa/Y8Udr2XxB9J788lXzAJUNlSUiIAIiIAIiIAIiIAIiIAIiIAKNkwBfsHr44YdrLHEsZUIOOuiguG8NS5qGDh0al0tV9yEss1pppZWiNyyIWA6FcqZHj9xz5/QzWFZ1zz33xDigYMJiCHELnaT7fv36xZ9bbLFFPCYVNljyIEcddZS1a9cuLtfCKqeupGhlzn9f/TCjzNmpz9p2/9MLM8wTss0Wa/ipPTfkk0r76qyy4jIZRQ76ApQxKDQGHD4qmlRlPOc46bnC0rbDVmvZE6+MzOFi4WXCnh/W5LmgeURJgaCoSK4FDE4ryHZbrpn5zT0+/X3E3lvaudc9lbmePMF66KI/7BotcX59RHz23Lnzo3qlVbjfIlgfjZ1UUfGVDINzlEb8S0oynsnr2c6bN1vktxBlTrMK7heG2KXjErbsEp1s6o8/2PQZi0zWsj1P10RABERABERABERABERABERABBomgQ8//ND4mzJlinXo0CEqT1CcLLHEEkUliGVWiCs6mINvtdVWRYWV9EQ4xQhLsNZdd11jv5v99tsvLs2qKpxsz2LfHQQrn/ogRStzhr6/UJtFIrbaqJd17tTOvvthZiZNBw7cJHP+/JBPM+d+cviem8fTmbPn2Cejv7RNwv47K3XrbL2Ckiaf5Yv75/j/TtvT3vtkok386rvk5Qrn0779yfoecm3m2h7brmf/d/TCT6z984HX7d6nhmXuTf/up8w5J7/ZaJX4e9LU761d65a21K/LpnJZrBx/4Na2f1hO5fL0ax/ZVbe/ZD/N/CVeate2lfXdeFV7bfhod5L1eMy599pn4yquufvxp4UFJ6uH1MWKypmqC3zSRViZGK2LUOQgXYNSR8qcFGD9FAEREAEREAEREAEREAEREIEGTIDPdl9zzTV2880327hx4yqlpFWrVrbtttvaZZddltlXppKjHBfYl+aVV16xYcOGxf1mvvvuOzv//PNtgw02iFYtvhfOl19+mQnBFSWZCzV48tBDD0VFDnG44IIL4t437JFTXXFrIJZpsUkzGzkT77Zt21Y3qBpxn3uTmiqCZ5nTp2O+iq5YWrTfThtlfLDfy3JdFmrxJgdFyLsff5G5x8kyS3Ww7bZaaPUyeNhoe/mtRUurUOpUJa7oaNWyzP585LZ5nWOV8+W0HzJ/P4Svb7nM+Hl25jpu5s6b77eM/XF6dF8q/r7nybftiy8XKox6BIXT0mGJWFq6LtXRjt23T+by+df/1/5w8UM2Ycq39s33P8e/iSGMe/87zCblUT4RAEqlZJw5/3nWnEzYVZ0k98yZv8hIJ6e3tPInmxYyp2fdEAEREAEREAEREAEREAEREAERaFAEtt566/gFpmyKHBIyZ86c+FWnjTfeOG4CXJ3EHX744dE5e8tccskl8QtU119/fVR+cANlDkuwsJT585//HBUsV199dXUeUS23bLSMsJTshhtusD322CP+nj49/4qZ6CjxH1/SQo477rionDrggAMymzsnnNXaadHKHJb93Hjfa5mIDths9cz5toklVrc+PLSCkgRHW23QK1p/cP704I/srRGLrHySFj3czyZvBPdY3CBswLx1sHapaTl2v4WKmV/mzLM7Hn/Lnhq0cGPgsrBU6k9HVFYg7bj12tY+WN4gU7+ZYQ8++14mSr1W6GLsIZT86xg+655Ldu3f2w7bY/MKf/ncp8NJ7plTXl51FiddhBVe1iz8c0kv9/LrOoqACIiACIiACIiACIiACIiACDQ8AljM+CbAVcV+/vz5lm2j4Hz+2G+GTZSxWjnnnHPil7KwiGGvGZdTTjnFUChhHcQf50g+w4J89zzcbEe+WIVVzsSJE+0Pf/hD3O+GjZXZTJkvXSGFhM1Ssb/97W9RgXPRRRdZ+/aVjTyyPb9U14peZkWEhrw3xn78aXbcdHitVbpFBQ2WMK5cmR80A4PeqbzDMxsEu3z42ZRg9fKtfffjTOMLVesFi5hVVlrGxnwxzZ1UOs6aNdf+cMlDdt+VR8Z9bM48bkcb+PsxldwVe4EvYG2w5grRO3GbE/a8YTnWX47Zwbi3f/g61cU3PVvBWmaT8GUuF/YTmjN3YaHg2m2XHJKx8nE3J/71QXt28Mf+s8LxuF8VScmLg4ePMiyJCpHknjnzyxcpZnL5rWyZs8hldfbqWeRLZyIgAiIgAiIgAiIgAiIgAiIgAvWRgH8qvNC4Vdc94R5yyCHxD+uXzp07h71jK34YCGuZwYMHG0uw+IqWL73yOKFcSc9FL7zwQuMvKWPGVNYDZLuGMgnF0k8//ZR1I2a+YsWfCxscp5/Pvd69e9vs2bOj5dLo0aPtjjvusG222ca91eoxaZRR7QfP+PkXmxKWACEd27e2/putFj9TjgUKwlesJk1duDwpXgj/sYnwtomNhTdddyXba7v17Z2R492J7TZg3cx5rpPh4Wtan4//Ot5eo2dX2+E3axas7MgVpl/v1LGtLbfMwmViLMsifgP7rWNTvv7enRifEs8l7B9Ul5LcF6qQDZCTyp8FKUseLHUkIiACIiACIiACIiACIiACIiACjYMAygcsbgr94wtSxUqXLl0qKXKSYaHoSStykvdr8rysrCyrIqfQZ7BJ9HbbbRc3cz7xxBPNv3yFtU9dyGJZ5qCpuuGeQXbDufvHuLP8iE+Wo7BBzglffeLLTEkZ2K93ZjkS1688fe/k7XjOkq2/3flKpevJC4TL573/c8Pv4lex/nrybsnbi3V+ymHbZL54xR4+2fbxQeGU3AsI5ZIroXbss5ZdenN7+/aHn2M8TgpWOK1bsb/PdsbnzquSg0+/wz4du3A/IndbnQ2Q35u6nM1b0DyYipXbsK+6exA5j0nbHbIraWKWTRuZMyDdEAEREAEREAEREAEREAEREAERqPcEakuBUu9BVCOCfBHrqaeesn/961/xM+dYF7F/Tk18qasa0cg4XSxlDqE8E5YKTQsb9i7TuUO0ymFzY+TrsG/MoHcWbWwcL4b/9k1slDw4fNVp/vwF8VZZWfOg6OhlZeHT3WuvulzcJNn3xXG/6SMbIT/ywvt28K6bWpfw/JoQvjjl+/agyEguE+sQrI82/XWD5t0HrGdX/OtF42tcyHOvf2L/F5ZhsW9O+7atjaVf5173pM0Oe+58HL7WhXwflpIVIiynKtRttvDeCQqcnR490NqWzbUxPyzcxDmbO67hZseVF5mmRSWQ9szJhUvXRUAEREAEREAEREAEREAEREAEmiiBXXfdNX6hqz4kf7GVOSRi2MgJtktYhoT1SetWC5UqIz+fnDV9q/XoGq+z187vL7jfZv8yN/7GmmfQnafaCsstGffe+d3+W8d9abIGkrh4zb9ftj23Xb+CtU/idrVP1wl7/7h8NGqKHX3OPf7TWobNj0c+cXZM55JLtDX2/uHz4wgKrX89MtT+eOiA+Pu3O2xgfTdd1c646j82Iey7g98lOuTe9Dh6+vW/VVbsUml9HrzyfYI96Z/zKT93TF+q9JvlVddv87xt1X1SvIcN1bCvuiVUORbiUcmbLoiACIiACIiACIiACIiACIiACIiACNQhgRpR5vClJ5Q5Sbn90TeTP+P5RmuvaMsuvVDJwCfL+VKUC8umUIZccNLAeGn3sIzpqttfyih73F36yMbJf7zkYfvXxQenbxX1e+tNVs34S1rlcJFPlz8aLIEOCpZAyLZbrpFR5vD7H/cPjp9kZ4NkBGslNj+urlx75j6VvGD5c8JFD1S6XuwFFDm37vC0bdFtkSLnvKH9bPDkHtam5aJQtcxqEQudiYAIiIAIiIAIiIAIiIAIiIAIiEB9ILBYGyB7AgYPGxX3h8GIgz++RPXWB+P8duZ47vE7x/u4efb1jytZn9z39PC4iTH3lwxftloqtZEw1xf+8f8iGfr+mPjMzP2Ktxc5/PXM3VW6ES4ctOsmmTiy/09aWNaFgoMw/Ktd7mZu+OrV2dc+aUedfY89+crI+EUrf1Y8hv8mTPnWrg37AY38LGW59GuYFdyHgBf95qxmhD1yztxsqG0ZFDm+X84tIzeyx0evGZa5tbTlOy+deRBfJ5OIgAiIgAiIgAiIgAiIgAiIgAiIgAjUHwLNem53bo1oCZKb5qKCyLY8J+kml8VHPjeL7lUOPyolEp9xyhU+6D2cbG78Hu6y3U/6z+dmobv4P/9lJHeYOHHVSsZ5hZNcfis4KuDH79d7z07e6J2My/s/Xcf++vbWVta8ha28TFdrHXb5Rnje+OnTbOacXzJudSICIiACIiACIiACIiACIiACIlD3BMa+eFHdR0IxqFECvbY/r+DwamSZFU8rRNGwuG7y+Y8aqWwapCwo8oZTQBj5/CcftzCownRl1XGbfEYx5/uv+XHG2zNjV/1VkdPcVl22W9ivaKFCiTSOnTbVZs9duKdRxoNOREAEREAEREAEREAEREAEREAEREAE6pRAjSyzqtMU6OHVJjBk8orRz7tTu9nZQwfEDad7dV1ukSIn3B0//WspcqpNVh5EQAREQAREQAREQAREQAREoHYI+MeEaudpekqpCVQ3P2vMMqfUCVP4NUfggjf62vXvb2rTZ7ULS85aWI+ll7GWLVpkHjDx22/C0qqFn1zPXNSJCIiACIiACIiACIiACIiACIhAvSEw5N0xtt1Wa9ab+Cgii0eA/KyOyDKnOrQaidv55c1t2iw+Id/cenRZxtq2ahVTxoIwFDkzZs1sJClVMkRABERABERABERABERABESgcRL4+z2Dqvz6c+NMeeNLFVY55Gd1pEXnXv0uqI4HuW3YBJZs1z4ocLraMh2XsKU7dLRWmc2OUeRMtxmzZzXsBCr2IiACIiACIiACIiACIiACItAECHz97Qx7bdhoW6ZzB+vetZOVlS1abdEEkt8okogSZ9A7o+y0Kx+3j0ZNqVaaauxrVtV6qhzXCYFlO3WyLh2WyPrsSd99Yz/MlEVOVji6KAIiIAIiIAIiIAIiIAIiIAIiIAL1iID2zKlHmVHKqJSFPXFQ5MxbsMAmhM2N58ybZ1jpdFuys/0YllVJkVNK+gpbBERABERABERABERABERABERABGqOgPbMqTmW9TqksuYLs3rG7JnxK1ULwqfHv/35J5sflDvNm6kY1OvMU+REQAREQAREQAREQAREQAREQAREIEFAs/gEjMZ8umAB2xubdWjdNn6KvFk4b9+6TTyfu2B+vKf/REAEREAEREAEREAEREAEREAEREAE6j8BLbOq/3lUIzGcM3+e/RCWU3Vq285WW7ZbtMhp+evmx9/99FONPEOBiIAIiIAIiIAIiIAIiIAIiIAIiIAIlJ6AlDmlZ1xvnjA5bHI8N+yV07l9B0OR88vcufbVD9/brLlz6k0cFREREAEREAEREAEREAEREAEREAEREIH8BKTMyc+nUd0N2+TY1B9/iH+NKmFKjAiIgAiIgAiIgAiIgAiIgAiIgAg0IQLaM6cJZbaSKgIiIAIiIAIiIAIiIAIiIAIiIAIi0PAJSJnT8PNQKRABERABERABERABERABERABERABEWhCBKTMaUKZraSKgAiIgAiIgAiIgAiIgAiIgAiIgAg0fAJS5jT8PFQKREAEREAEREAEREAEREAEREAEREAEmhABKXOaUGYrqSIgAiIgAiIgAiIgAiIgAiIgAiIgAg2fgJQ5DT8PlQIREAEREAEREAEREAEREAEREAEREIEmREDKnCaU2UqqCIiACIiACIiACIiACIiACIiACIhAwyfQrDxIw0+GUiACjZPAhAkTrHv37o0zcUqVCIiACIiACIiACIiACIiACIhAUQRkmVMUNnkSAREQAREQAREQAREQAREQAREQAREQgbohIGVO3XDXU0VABERABERABERABERABERABERABESgKAJS5hSFTZ5EQAREQAREQAREQAREQAREQAREQAREoG4ISJlTN9z1VBEQAREQAREQAREQAREQAREQAREQAREoioCUOUVhkycREAEREAEREAEREAEREAEREAEREAERqBsCUubUDXc9VQREQAREQAREQAREQAREQAREQAREQASKIiBlTlHY5EkEREAEREAEREAEREAEREAEREAEREAE6oaAlDl1w11PFQEREAEREAEREAEREAEREAEREAEREIGiCEiZUxQ2eRIBERABERABERABERABERABERABERCBuiEgZU7dcNdTRUAEREAEREAEREAEREAEREAEREAERKAoAlLmFIVNnkRABERABERABERABERABERABERABESgbghImVM33PVUERABERABERABERABERABERABERABESiKgJQ5RWGTJxEQAREQAREQAREQAREQAREQAREQARGoGwJldfNYPVUERKA2CZSXl9fm4/QsERABERABERABERABERABERCBahBo1qxZNVybSZlTLVxyLAINjwCKnOQfKZByp+Hlo2IsAiIgAiIgAiIgAiIgAiLQeAi48oZj8rzQFEqZUygpuROBBkgApc2CBQviX8uWLa2srCzTUDTA5CjKIiACIiACIiACIiACIiACItBoCDBfmzdvns2dO9eaN28e/1yxU1UipcypipDui0ADJZBU5LRt21ZKnAaaj4q2CIiACIiACIiACIiACIhA4ySA4sZfus+aNSsmEqVOIQodbYDcOMuEUtXECaDIcS1voY1BE0em5IuACIiACIiACIiACIiACIhAnRBAecO8DSsdn8tVFREpc6oipPsi0EAJ0AjMnz/fWrdu3UBToGiLgAiIgAiIgAiIgAiIgAiIQNMgwLyN+RvzuEJEypxCKMmNCDRAAq7MKcRErwEmT1EWAREQAREQAREQAREQAREQgUZDgHmblDmNJjuVEBFYPAJsfiwRAREQAREQAREQAREQAREQARGo/wSqM3+TZU79z0/FUASKIlCoeV5RgcuTCIiACIiACIiACIiACIiACIhAjRModB7XIJQ5w4YNM/4kIiACIiACIiACIiACIiACIiACIiACItDUCdTrT5NjYjRkyBAbM2ZMzCc+1dWnT5+4y3NTzzilXwREQAREQAREQAREQAREQAREQAREoGkSqLeWOXPnzrWXXnopo8ghe1DqcI17tSEPPvig3XTTTVkfNXToULvyyivt+++/z3pfF0VABERABERABERABERABERABERABESgFATqpTJn9uzZ9txzz9nkyZMrpZlr3MNNqeWJJ56w22+/Petjhg8fHhU9P/74Y9b7uigCIiACIiACIiACIiACIiACIiACIiACpSBQ75Q5M2bMsKefftqmT5+eM73cww1uJSIgAiIgAiIgAiIgAiIgAiIgAiIgAiLQlAjUqz1zvvnmG3vxxReNvXGqEixiUOhsv/32tvTSS1flvNbu/+9//7Pnn3/e3n33XevRo4fttttuttlmm2WeP2jQIHvhhRfsoIMOsoceesjGjx9va6yxhh111FHGrtX33XefffLJJ7bJJpvYwIEDYxgZz+Hks88+s2eeecbef/9969Wrlx122GHxmHSjcxEQAREQAREQAREQAREQAREQAREQgcZLoN5Y5nz55Zf27LPPFqTI8exA6YMf/NYH+eCDD2yXXXYx9tpZbrnl7I033rADDjjAHnjggUz0UPbwe/fdd497ALHnzm233WYHHnig7bHHHvbYY4/ZL7/8YldddZXtuuuuNmfOnIzfjz76yHbeeWe7/vrrrayszO666y7bbrvtbNSoURk3OhEBERABERABERABERABERABERABEWjcBOqFZc64ceNs8ODBxterqitshoylS9++fa1nz57V9V6le6yF/vznP1dyN2LEiArXsKo55phjopUQCqZOnTrFfX32228/O+ussypZEF1xxRW2zz77xDDOPvtsu//+++OXuu644474tS726zn11FOjQqh///7R3XHHHRfDf/XVV61Dhw42YcIEGzBgQNy755prrqkQH/0QAREQAREQAREQAREQAREQAREQARFonATq3DKHJUUsPSpGkeNZgl/CIKxSyHfffWfpv/RSsC+++MJQ/Oy0005RkUM82rRpE61tOGdZVFL4xLpLv3794ilWPM2bL8ySzTffPF778MMP45GNn7/66quovMESCWscrHZWW201e++99zwoHUVABERABERABERABERABERABERABBo5gTq3zFl77bWNP+TOO++stlIH5cfhhx9esmxiP55sX7S67rrrjD8Xlk8hyf1x+M3eN8jEiRPjMdt/rVu3jpfbtm2bud2yZct4jsUP4uE/8sgjxp9EBERABERABERABERABERABERABESgaRKoc2VOY8G+5JJLxqSk9+9hCRmy7LLLxmOx/7Vr1y56ZaPk/fffv0IwzZo1q/BbP0RABERABERABERABERABERABERABBovgXqtzEFJkba6wXrHrVXqU7asssoqMTovv/yysbeNy+uvvx5Pe/fu7ZeKOvLlKmT48OF2zjnnZMKYMmWKtW/fPvNbJyIgAiIgAiIgAiIgAiIgAiIgAiIgAo2bQJ3vmZMPL8qcbH/5/NTVvS5dukQlzrBhw+ziiy+2N998M3516vHHH7d9993XVlpppcWKGpY9fIZ85MiR8fjcc8/Fr2LxBazzzjtvscKWZxEQAREQAREQAREQAREQAREQAREQgYZDoF5b5tQ1xnzLl7LdO+2006xVq1Z2ww03xH122G8HBUzSksbTlPTvmx77PY5+349cO/PMM43lVv/85z9tyJAhXLKBAwfapZdeGs/1nwiIgAiIgAiIgAiIgAiIgAiIgAiIQOMn0CwsWVq4w249SGt6A+RsmxsX4qauk8LXtaZNm2Zdu3bNKGVqMk4ePtZALVq0qMmgFVY9I8Dn57t3717tWFGt582bZzNnzjTKiUQEREAEREAEREAEREAEREAERKB+E5g+fXo04CgrK6tSlyDLnBLkJUqoxd3wOF+0Sh1+vmfrngiIgAiIgAiIgAiIgAiIgAiIgAiIQN0SqNd75tQtGj1dBERABERABERABERABERABERABERABOofgXq1zCrbiq/knjHgK8RN/cOsGIlAcQS0zKo4bvIlAiIgAiIgAiIgAiIgAiIgAg2NQINdZpVW3GQDX4ibbP50TQREQAREQAREQAREQAREQAREQAREQAQaAwEts2oMuag0iIAIiIAIiIAIiIAIiIAIiIAIiIAINBkCUuY0maxWQkVABERABERABERABERABERABERABBoDASlzGkMuKg0iIAIiIAIiIAIiIAIiIAIiIAIiIAJNhoCUOU0mq5VQERABERABERABERABERABERABERCBxkBAypzGkItKgwiIgAiIgAiIgAiIgAiIgAiIgAiIQJMhIGVOk8lqJVQEREAEREAEREAEREAEREAEREAERKAxEJAypzHkotIgAiIgAiIgAiIgAiIgAiIgAiIgAiLQZAhImdNksloJFQEREAEREAEREAEREAEREAEREAERaAwEpMxpDLmoNIiACIiACIiACIiACIiACIiACIiACDQZAlLmNJmsVkJFQAREQAREQAREQAREQAREQAREQAQaAwEpcxpDLioNIiACIiACIiACIiACIiACIiACIiACTYaAlDlNJquVUBEQAREQAREQAREQAREQAREQAREQgcZAQMqcxpCLSoMIiIAIiIAIiIAIiIAIiIAIiIAIiECTISBlTpPJaiVUBERABERABERABERABERABERABESgMRCQMqcx5KLSIAIiIAIiIAIiIAIiIAIiIAIiIAIi0GQISJnTZLJaCRUBERABERABERABERABERABERABEWgMBMoaQyKUBhEQARFIEliwYIGNHz/eJkyYYJwjrVq1st69e1vnzp2TTnUuAiIgAiIgAiIgAiIgAiIgAg2OgJQ5DS7LFGERqD0C8+fPt2+//dZ++eUXKy8vjw9u2bKlLbXUUlE5ko5J2n2LFi2i8qRt27Zpp1HJ8t1339msWbMyYZeVlcWwW7duXcl9dS4Q1//973920kknZbytt956duWVV0qZkyGiExEQAREQAREQAREQAREQgYZKQMusGmrOKd4iUAsE5s2bZ88884z17dvX+vXrF/9OPPHEaPGS7fEofi677LKM+z322MNGjBiRsY5J+vnpp5/spptuyrgl/Msvv9x++OGHpDOdi4AIiIAIiIAIiIAIiIAIiIAIpAhImZMCop8iIAKLCGAp06NHj0UXwtnnn39u06ZNy6qgmT59erSIcQ/ffPONjR071lAKpWXGjBmVlEKrrrqqdejQIe1Uv0VABERABERABERABERABERABBIEpMxJwNCpCIhARQIsk+revbuxRMnl559/tkmTJhlLqpLC74kTJ1ZQ5nB/1KhRNnPmzKTTuKyKJVZffPFFheu9evWyxV1iVSFA/RABERABERABERABERABERCBRkhAypxGmKlKkgjUJAH2x1lllVUqBMnGwnPmzKlwjd8obtLy6aef2vfff1/hMpsSf/XVVxXc9+zZ05Zffnlr3lzNUgVY+iECIiACIiACIiACIiACIiACKQKaNaWA6KcIiEBFAu3atTMULUnBooY9b5Ly448/VrLK4T7LrKZMmVJhWRbLrrDiScrKK69syyyzjDVr1ix5WeciIAIiIAIiIAIiIAIiIAIiIAIpAvqaVQqIfoqACFQkwLKnbJY5WNssu+yy0TFfj2K/nDFjxlT0HH6xbw7XN9lkk8wXsGbPnl1piRXP6NixYyX/XGBp1yeffBL32GF51hJLLBGXf3Xr1s1WWGEFa9OmTVZ/hV4k/sQTBdPUqVOj1RCfMl9ppZXic7AYKmT5F8vJsETCconwUIThd7nllrMVV1zR2rdvXylKWCmhHOPPP6MOh7XWWiumm+ssa4Pv0ksvHfMCVoSNEHc2jcYqaty4cXFJG0yIO8/M9iWxdCRKzTf9PP0WAREQAREQAREQAREQARFYPAJS5iweP/kWgUZPgGVPKCSwzkFZgHBE6bHaaqvFZVGukOBz4NnE981BQYJgxeNhuXs2P04rHubOnWvDhw+3G264wd588013WuE4cODA+Alyj0uFmwX84LPrQ4YMsUsvvbRSnNx7nz597E9/+pOtu+66xj5CaSGe77zzjt1444321ltvpW/H3xtuuGEMY7PNNjM+7+6CMgZFVfoz6ltttZU9/PDDUSnkbv24/fbb22mnnRYtmZ5//nm76qqrsrrr379/fObaa6+ddflabfD1OOsoAiIgAiIgAiIgAiIgAiJQcwSkzKk5lgpJBBolAZY9sfwJZYsrYLDkwIqF5VIoaFCIjB49Omf6P/vsM8OiZskll4yWJHzCPLnMCosTrEiSihKsd55++mk7/fTTc4bLDdxgEXPWWWdVsiDK6zHc5Itajz76qF100UV5naLsQXl18cUX20YbbVQhnrNmzbKnnnrKzjjjjLxhvP/++3booYdGpRGfbE8rrpKeR44cafzlkhdffNHGjx9vXbp0yankwu+gQYNi3pC+tHVVbfDNFX9dFwEREAEREAEREAEREAERWDwC2jNn8fjJtwg0CQIs+0krA1hKhBIHwdIGhU0uwfLE983xzY9dMYQfvmLFUiTf/JjNlJ977rkqFTn+vFdffdXuvffeqDDya1UdiTtWLVUpcjwcrIuwgEGJ4kIYKJOqUuS4e46XXHKJDR48OOvn2pPuqjonPrmslZJ+cfPKK68YSieX2uDrz9JRBERABERABERABERABESg5glImVPzTBWiCDQ6AuwXg8IlKShz2ATZ98tBueBy8MEH22WXXeY/494vbISMJQ9Le5JWOThaffXVo9UO54SHlc8dd9zBz4ywzOuaa66xZ555JipuWF6VFNyPGDGi0ifTk26S5yiT7rnnnuSluM/MFVdcERU0LHEiHUkZNmyYDR061LBqIZ7sj3Prrbcmndiaa65p1113nT377LP2n//8Jy5zSjrAqumRRx6J+/Ikr2c733TTTe3CCy+MFkHbbrttNifx2hZbbBHdEfd99tmnkrv33nsv7qvDjdriWykSuiACIiACIiACIiACIiACIlBjBLTMqsZQKiARaLwEWP7EMiisZ/ikOIJChuVSLMFik96kMme99dYz9mlhnxiWFyHcZzkUygQUQUlBUeMb+qIoYVlTcpkRm/li0cJ+M26906NHj3jOEicXrFDYaNnD8uvpI5Yp7777boVnsNTr/PPPt759+2aWUREvlpkllT7sibPDDjvETZhfe+21Cunu3bt3tPQh/R5PwuAcqx6Xl19+2fbee29jA+dcgjJst912y6QF5dX1119vt99+ewUvJ5xwgh177LHWqVOneH3XXXeNe/uQFhd4s2E1+VcTfHNtVO3P01EEREAEREAEREAEREAERKC0BGSZU1q+Cl0EGgUBlBEoAlYOnw93YbNj9pFh+U5SkYPiBSseFBUodFxYhoXyh31qsNJJCgqPsrKFumW+zISFTVJ22WUXW2eddTIKEu7xJS2UKkn5/PPPo9IieS3bOdYx6c2ad9ppJ9tggw0yihz8scfPjjvuGL8i5eGwXIw0kJYPPvjAL8cj8VxjjTUqxBPFB4oYNlFOCsoqlFvZBGUQe/MklVIdOnSI8Uu6hxsWO3zdy4U9jJL5xHWeQz6hSKsNvh4XHUVABERABERABERABERABEpDQJY5peFadKgsW/nyyy/j55bzbZBa9APkUQSKJIDlB5sgJ7/WhHUOipvkfjl8VQrFD5/hZvmUC/vm8IltyvXkyZP9smHN0r1794wShY2Sk/vS4JB6wdeikhskcz257w6/qTsoK/JZvOAOZUx6qRefAkdhkhSUWFgAHXPMMXGpGPdQsBAPPj2etjBiiZV/sSsZDtZLWBVhceSCUggFS1Jh4/eyHbEQSscPBVj6ebjjGpZGxBHBEoklbkhN8OXT5zxHIgIiIAIiIAIiIAIiIAIiUDcE6r0yh0mib/K55ZZbxrfedYGKzVg//PDD+PngUipZ+PrMySefHPfU4M28RATqCwHKPcqcpIwZMyYqHpPKHJQiWLTw+W0UPSh1sIThD3fcY1mWC26WWmqp+BPLETZTZklQUljmlFzqlLyXPGdDYhQXVQn79qDQSQrx8qVRyesoLn73u98lLxmbOLN3TlKZhJVM586ds4aBcgUFV1KmT58elzwlrxVzDrNCpbb4FhofuRMBERABERABERABERABESiOQL1X5pCs6kxWisOQ39f8+fPt3HPPjW+5maiyJ4VEBJoaAZQzLKFKyvDhw6NCIqnUYJlRmzZtolJj+eWXj0ut2DgYQVmZti7hK1kofBDqOhYkaUVLvFnAfyiMUOhU1Wb4RszJIH2ZV/JarnPCRyGUFDaJJoxsFitc435SktYyyeulPK9JvtnSWcq4K2wREAEREAEREAEREAEREIFFBLRnziIWOc9ef/31zHKFhx56KKc73RCBxkwAqxWUM+zn4sK+M3yZyYUlVr4xMdewVEnum4OV3YsvvujO4xFlTlLRwXNQBpVSULqgnEqKL0NKXst17soZV0LhDqUvFjvZFElcQ8mUFJ5fHQVS0u/inNcG38WJn/yKgAiIgAiIgAiIgAiIgAhUTaBBWOZUnYzSumCyyv4Thx9+ePw0Mvt+sPQiKWeffbb95je/iUs8XnrppbgPxl577WWbb755hWUXTH4fe+wxY6PW9ddf37bbbrv45ZlkWH7OPiGXXnpp3Pg1+YlkPnfM/iGnnXZa3ID27rvvdi8VjiwNYWKNTJs2zfjqD3t2dOnSJW7I2q9fvwru9UMEqiKAcgaFTfJLU0k/WK517do1Y53CfjBY6uQSliahIPLlTShJWM7Fhr6+3wt+qQdbbbVVJtxc4REOe/t4eLncoUhJKmJwx147KGPS+/JkC4N4kjbaBayBEDZE9k+1p61WUBQl04N7lpal97vheimltviWMg0KWwREQAREQAREQAREQAREwKxeWeY8+eST9sQTT8S/bG+36yLDmKA988wzts8++xjKGQRlSlruv//+uJ8Oy7HY1PTZZ581FDBY9biwxwZfu3n88cfjJPDhhx+2PfbYw9577z13UuHIcpSPPvrILr/88gpLOv72t7/ZG2+8Ea0e+Mwwn4pO/j3wwAPGn+8dwiT1gAMOsIsvvjhOVonbkUceGeNR4YH6IQJVEEABsnLii1Zp52wAnPxsNZYnWN6k94txf+yXg3LRlR8cUXKk3bNpL+74PHr6j82OUc5wRDGUXsblz0oeccOmy0lhPx+UMWlBAUu9Ja788XUr6iWKHH67oKz59NNPM/XOr3NkH6DkvkJcQyGcVihxvZRSW3xLmQaFLQIiIAIiIAIiIAIiIAIiUM+UOUzYUJ7wV1/kv//9b4wK++QwUdxiiy3svvvui0sq0nFkcscSkttuu80GDx4cb7/66qsZZ2yijCXCCy+8YFdffXVmucldd92VcZM++e1vfxvf/PsXhEaPHh03j0WxxMRsww03tNtvvz3zt80228QgTjjhhGhBwY/LLrssbtSKsuyOO+4w9jlh7xOsHVgaIhGBQglgSZLeBDnpl69XJa1NKKN8QjyXHxQ9yc9qExb1aJNNNkkGGxWoWAOlyytLl1BObr/99lEJjCK1EEGJsu6661Zw+vTTT9u7775bQXHKvjhY0SU/Y078iDNHrOuSgqIXpQ0WPi4oVVlellYCo/gq5Wbq/vz0sTb4pp+p3yIgAiIgAiIgAiIgAiIgAjVLoHnNBtf4Qrv33nujUmSdddaJidt7772jFQzLnNKy0047ZSwKWI7CJ5eTVjd//etf7eWXX46bu+IfpQpLVkaMGJEOKvObMBEmrIgrh7AUSAvWAuedd55tuummduqpp2Zuo1hCicS+JKNGjYrKIJRSWBKw/EoiAoUSYPkSSk3KbVpQLGI1k16mlN43J+kPZU56fxyWL7EEkDLrQrk96KCD7Oabb7b3338/KkyoCygq//jHP0aF5+mnn24PPvhgVusaD8eP1AUURsn9f6gPxx13nGH5hlKHusv5Kaec4t7ikT2A+PIV8ezbt2+FeFIHsc7Dmg+lDr9R1ibrI4HwZb4NNtigTvbMqQ2+FYDphwiIgAiIgAiIgAiIgAiIQI0TaLB75rAMiz/e/PNXCuFT5EwimbCx/AvxN//so8OELJ8wYfT9NHCH4uT3v/99nIzymzfkTCDTXwjingtWDf3794/73Vx44YWGdQ8T6fRkmqVUTESxOPj73/+emVDziWeWYCEsD0nL119/nVFApe/ptwikCVDXWO7E8iLqRlLYG4d7acH6JF1ecUP5Z6lRWvnDM7BaYWkgypqkXHXVVcmflc4/+eQTmzlzZkEWLyuH5WKHHnqooQRKyk033WT8ZRPqKvWIpWQez0MOOcRQ1LqgwDn55JP9Z9YjiimUYnUhHu/F4VvIUra6SJueKQIiIAIiIAIiIAIiIAJNhUCDVeawJALlCJYCbExcCmGjYgTLFl825c9h3xusYNhstVA5//zzoyKHZVibbbZZVLwcdthh0VImXxgsqeKTzizTwCrhjDPOqOAcpdaZZ54ZlTZshowCyMW/ErTxxhvHZVV+3Y9YUkhEoDoEmMgn94pxvyhgsPpIC8oarGxQhHzxxReZ24TBPjfZNismnN13390mTpxo99xzT8ZPvhOUq8cee6wts8wyFZY55fJD3UAxg/KHulmVoCilnmFR43FGUUU8WSJ6ww03VBVEvE+7MWDAgEpf0yrIcw05Wly+NRQNBSMCIiACIiACIiACIiACIlAkAS2zygEOCxy3vmG/jOTfrbfeGn350qccQVS6jFUNyzqYyDEx5BmTJ0+u5C59Ydttt42X/vKXv8TjzjvvXMEJChzCZrkJX9RKCpNNJtIsG+ErQ27Vg0UEe5ukl7gk/epcBLIRoMwkl0DhBisb9sVJf+6be1iCoLRJf9WK/XXyKUNRSvLFNjYAJ/x8ctJJJ9kVV1wR48DzChUUU1iosGG417NsfrHOY7kUX59Lp5G4YXF37bXX5o0ndQ83bKaeTemV7bmlvFYbfEsZf4UtAiIgAiIgAiIgAiIgAk2ZQIO1zCl1prG3DUukmHglN3TluezngTKGCSATwUIF6xiUKuzDwZd0+JrVuHHjonc2TPW3/enwmPixEfKjjz5qhJG0puHrORdccEH0gqUDe3W4YCnBNSbEJ554orHfz9FHHx33+7jllluMJVavvPKKFDoOTMeCCGBpgxXMnXfemdmQmDrCZ8lzlWG+UHX88cfbgQcemHkGFjTJL19lbiRO2Gh43333jYoWlj2iVEUJijUaz0IpiZUbS5aSy7V8KRFWcL4ZMXHMtgwM5QxhsOcPlkBsMj5p0qT4BSqsd7iOEjafAoZ7u+22W6yf7IE1duzYGEfiTzpZ0sX+QNk2PCau7MPD5uT54oo7wki6I+58+SupwOK8R48eds0112Tyh6+K0W4k3YG5WL6JLNKpCIiACIiACIiACIiACIhAHRCQMicHdF9ixZv4tDAxQonDRJGJX64v9aT9XXnllfHNPHvaIH369In74bCEaurUqTmXnOB24MCBUZmz55578jMjya/sYJmTlLPOOisqc7DkYWJ3ySWX2DnnnBOdMEFl+Yosc5LEdF4IARQCKE+qs+cLShGWJxUjPA/rl/5h7yj+ChEUPSgy+StUUIxU108ybFcuoWCqjuBv5aDs4S+fwAGFTFKZm8s9Cp70591zuS2Gb66wdF0EREAEREAEREAEREAERKB2CDQLb7jLa+dRVT+FN/3+ZvqII46Ib5H5Iswbb7wRPW+11VaZpRp8MrzUe+ZUHePiXLBHB59YrsoqIRk6bNgA+e23345v+pP3qnPOZ9+xDshmIVCdcOS2dghMmDAhWnFV92lU63nz5sX9YLJZo1Q3PLkXAREQAREQAREQAREQAREQAREoLYHp06fHFQEYkPDSNZ/UK8scIstb6rRku+Zuq0pgOqz68Dvfco10/GbPnm0ff/yx8RUfNlplycbiCMtdJCIgAiIgAiIgAiIgAiIgAiIgAiIgAg2XQL2yzGm4GEsXc5ZOPfXUU3GPHva3WVxlTuliqpBLQUCWOaWgqjBFQAREQAREQAREQAREQAREoP4RaLCWOfUPZd3H6Mgjj7Q99tjDWGKm/W3qPj8UAxEQAREQAREQAREQAREQAREQARGoawL1aplVXcOoj88vdtPY+pgWxUkEREAEREAEREAEREAEREAEREAERGDxCVTeoGbxw1QIIiACIiACIiACIiACIiACIiACIiACIiACJSIgZU6JwCpYERABERABERABERABERABERABERABESgFASlzSkFVYYqACIiACIiACIiACIiACIiACIiACIhAiQhImVMisApWBERABERABERABERABERABERABERABEpBQMqcUlBVmCIgAiIgAiIgAiIgAiIgAiIgAiIgAiJQIgJS5pQIrIIVAREQAREQAREQAREQAREQAREQAREQgVIQkDKnFFQVpgiIgAiIgAiIgAiIgAiIgAiIgAiIgAiUiICUOSUCq2BFQAREQAREQAREQAREQAREQAREQAREoBQEpMwpBVWFKQIiIAIiIAIiIAIiIAIiIAIidK170QAAQABJREFUIAIiIAIlIiBlTonAKlgREAEREAEREAEREAEREAEREAEREAERKAUBKXNKQVVhioAIiIAIiIAIiIAIiIAIiIAIiIAIiECJCEiZUyKwClYEREAEREAEREAEREAEREAEREAEREAESkFAypxSUFWYIiACIiACIiACIiACIiACIiACIiACIlAiAlLmlAisghUBERABERABERABERABERABERABERCBUhCQMqcUVBWmCIiACIiACIiACIiACIiACIiACIiACJSIgJQ5JQKrYEVABERABERABERABERABERABERABESgFASkzCkFVYUpAiIgAiIgAiIgAiIgAiIgAiIgAiIgAiUiIGVOicAqWBEQAREQAREQAREQAREQAREQAREQAREoBQEpc0pBVWGKgAiIgAiIgAiIgAiIgAiIgAiIgAiIQIkISJlTIrAKVgREQAREQAREQAREQAREQAREQAREQARKQUDKnFJQVZgiIAIiIAIiIAIiIAIiIAIiIAIiIAIiUCICUuaUCKyCFQEREAEREAEREAEREAEREAEREAEREIFSEJAypxRUFaYIiIAIiIAIiIAIiIAIiIAIiIAIiIAIlIiAlDklAqtgRUAEREAEREAEREAEREAEREAEREAERKAUBKTMKQVVhSkCIiACIiACIiACIiACIiACtUygvLx8sZ64uP4X6+HyLAIiUC0CUuZUC5cci4AIiIAINBUCs2fPtlGjRtmMGTOaRJLnzJljX331lU2ePNl+/vnnJpFmJdJs/vz5Nn36dJs0aZJ99913VsxEbubMmbHcUH4oRxIRaEoEvv32Wxs0aFCsR3WdbtrvI488crGicd5559k777yzWGHIc8MlMHXqVBs7dmzDTUATi3mLC4I0sTQruSLQYAj88MMP1rFjx6Liu2DBAps7d661a9euKP/u6Z///GccpGy44YbWsmVLvxyPdPb33XeftW7d2rp3717hXlP8wcT///2//2drr722LbHEEk0RQY2nmUniu+++a88991wMu1u3bjXyDMI9//zzY/1YccUVs4b54Ycf2m677WZrrbWWrbHGGlndNKaLX3/9tTEkuOGGG2yzzTYzWDdr1qzeJhElBGXjP//5T2yDunbtGpURjz76qH366adGvrZp06bexr++RAyl5R133GG///3vrWfPnrGst2jRouDoofz55JNP7Pjjj4/5semmm1qnTp0K9i+H1SNA3z5t2rTI/M0334zKs2WWWcaaNy/u/SyT/3/9619REdGjRw8rKyurXoTqyHUhbXhtRO1Pf/qT8ffEE09Y796967Sv+OKLL2z//fe3dddd17bddlt75JFH4viNOpkUytDVV19tKKFWX331eOumm26KE3jSwGT+hBNOMPzl6h+T4dX2+Ysvvmh33323bb311kWX+2Li/MYbb9gDDzxgSy65pNHfpOXLL780xsy4y/b3008/2aqrrpr2Fn/Tnz388MN2zz332CuvvBLzZs0116zV9HnELrzwQjvzzDPtj3/8o1/SsZYJ0L4x56Jdr2ocVlzLX8sJ0uNEQATqjgANyT/+8Q+7//77K0SCjofGngHASiutVOFeU/3xv//9Lw6eGsMbDQaFdOTDhg2rs+x8//33rV+/fnbQQQfZpZdeahMnTqyxuDCIZVD21ltvZcL885//HJWTmQs6qUSAek+ZuO666+LkhQEHQpmnLUApwESzNoSB8fPPP2+DBw+2Dh06xEeiUKW9wjpEipzq50IxVjnVf0rD9EGbwQTyxhtvjBZ7dcEKK8F7773Xtthiizhp/7//+7848S6WKPWZOoMC95lnnrHvv/++2KBq3V+2NryQSNRkO//5559HZfLBBx9sr732mm233XaFRKFkbv76179GJQNH5L///a/9+9//rvQ8yi7t5Kuvvpq5d/vtt8c2nQsHHnig7bPPPnEM8Msvv2Tc1JcT2vy77rrL6ANqS7Ba/N3vfhf7udGjR2d9LPVz6NChlf6efvrp6G/kyJFZ/XERZTpj6jFjxsQ6+Ze//MVOOumknO51QwScQL1Wv3/22WfGW4ekbLnllnWq9U7GReci0BQIHHrooXbrrbfatddeGweP7du3j8l+/PHHbdy4cfGNVLY3FE2BTTqNWHEMGDAgM7FM329IvxnUP/XUUzE96bd6tZGOCRMm2G9/+1vjzdQtt9xi66+/fo2+oVphhRWMgZUrAUgTZZo3ISiPJLkJsJQGZc4xxxwTywcTAwaxvAXmLS5vhGtDeAuKdWD//v1tueWWMyYdI0aMsLZt28Y3061ataqNaOgZTYQACkLetn/wwQfRcq22k035ZlKIRSGy1157RcsErAarenObK65YYGF1Sxu77LLLGhY+DUWyteGFxL0m23lXhtAW1rUFC9aIL7/8clQ4VseyLhczFAm06Vg+Yu1Tn8QtRxbX8rw6abr44ourXH6MlRO80sIY+rLLLrP99tsvfSv+5sUVeccLNLeGufLKK6MCiPaG8Y9EBHIRqNfLrDDbRfOeFAZnmIFKRKApEKgPy6yY3KKs4Q0PE18m9gxqeUPB8qq///3vmeVXWKbw1pA3Pu+99150v/zyy2eyigHjkCFD4ltFv/jss8/GN0d9+vTJad6NySlm4ISNkqFLly6ZZUxYkLC0iQklb6Buu+0223PPPePEH4Uwb1KxGKBDxIKoc+fO/ugKRzpSnsEbT58Ekp5rrrkmDtKWXnrp6P7jjz+OFh0333yzffPNN8Z1X1LAMzCxxYwWM1zedPGWhoEVnDChRYhHcskaYTI5vvPOO+MbGczcYcjAwMOOHsN/DB4ZGGAK7YoITKYZ3MCCTp+3rVhSwYLBP8vtWDLjlgqDwtp+8oIlFbxlJp68dWIwyuCI8F1Zx14aH330UZy0EwfccR//w4cPj2kjj5ODx0LSg/XGgw8+aNdff31kBPOVV16ZR0Rh4INC57HHHos8q5qsXHTRRXHPj/XWWy/6J80sGcIf6UTYE+Tyyy+P3Fi+yDnxxqqENJFOlBK8bUWJxL4xDz30UFQW8NaVckSZoj54eYgBp/5D2QE/8py33ihAmSgl0/D666/H8oZJNUrRddZZJ9YngiI/eB7hMKAjP1nOiOk75vMulC3KG5M5lvVRL1HAkafUV+oK4fryi7PPPjvm30svvRTjRhmiLrnwlpOygZKL9PGmnje8LL/iN+XyySefjHni+6v8+OOP8U0i9fjtt9+OeQZ72gbi70uesIBiHwbqMjxYlunLOShjuGOSynI6OHl5JU6wpNxTPrzMz5s3z2DIwPnoo4+2VVZZJfKhjYDHzjvvHMsylkM8kzaC+k2eEjbheH7AlSUS55xzjsEGXkwUKZPjx4+P9Z208Uc9pV2mHWMZHmFRlliq9MILL8T6xjPxzxGelGXaJn5TV0h/tnCpe5RVno8VGvWDNgVW+OGNLeURJoRPfhNf6jjtH+7gQttLufA6QR4vtdRS0Q33aIcIl/jSRtAekZ+kD8sCyj55Qt2DO/nI88jrbPlEXsOQ8GCDUIapU7Nmzcrw5jplmXSQT7x5pqyRbpRxlAfnwvI5Jqe8RMDaC3/E09swwkK4jkKPeJEG2jDiQzvFNfgTPunnbTplCSs/OPhSCXhTB+HNdbfuoo0nz4gbbRF1kHJO2Fzn2TwP//jJFra3izCkLzr99NNju0kYlCHGubAljs6GNoFlO7Q11GuezzPg9re//S3mP3X82GOPjUt6SYeX5YVUKv5P2SRdML/kkktsypQpsT3CH0K4WNvR9lHH0oyToRFH6gnpTy49JT70B674p4xSHrx9hwN1xes8Yebrn8k3+hjcUwYoD3379k1GJZY1b8OJt48FyGvyIt1e0w5ka+d9SXR12mTqG+0j5YG6Qn5Sln/zm9/EODJ2IP7UL8oW7Q19QFKYwJPXlDP4k8/JF2NVtefJsDgnb2F6xRVXxPLCNdpH+trjjjuOnxkh/uQNS4h33HHHeB02tPO8REEYe1C34MZLPcpgUug36Z9IG2XYhXJO3esflOyUy3x9vedZevzGb17m047Q5tGnwA9FPUJ7jWXtNttskyn79FMonyiLxJkySPq8bhBWIeMxT0fySHmkDznggAPiOGGnnXaK7WTSTa5zlLAnnnhiLL9YcGUTeJFeyrr3ccx16Tco25tsskk2b7HckW+5xmOFppm6SttCvWFcSxtBWXLFUvrhtAP58gf31c13yht9dL6xLeEubrtBGA1BaGMLXWZF515vJQxKy0NBrPDHtYYiofMuD51kQ4mu4lkPCYSBbXno0Kv9FzqP8jBpKQ+NaY2kKkwQysPkqDw0suVhglgeBiDlYdJRHga/mfDDG/F4LVjPlYcBa3noZOPvoFTIuAlvJcp32GGHzG9OQgcZ3YWOt8J1/xHMv+P9YPVSfvLJJ8c4EA/Sh4RBarxPfPjDHfENE63M9bAZYOY8TNQ96ArHMEmLbsLALHM9TGTitdCRx2vhrWz8TdrCW6sYF54ZBjzxPu0Tv8PAM/4+/PDD42+uBWuP8rBkKP4Og63MMzyepCnsOZHhhp8w4cq485MwAIxhBBNjvxTd4Z5rQbETn8Vvnu9pD4OxjPsw0cvEi3wN5tTx9x577BHdBEVS9EsYe++9d3mYdMXrtGlhUBHTTfphjZswaM6EXUh6KENePogjaSecMHmM4YSBW/wdTI5jGQtKmXLiFCZUmeekT8Kb0Rg30o+EQVsMA+4uYfAXrwWlTXmw6ojnxD0MZMpPO+20+Jvyy3kYZFYoW6TbWRJX0pBNwkAoU0ZhRHhpRtQJrnGPOsE5PMKkKwYJE67xR5kh3jwbTpRtl6OOOipeg1cYXJWfeuqp0Q/56HzDMgx3ngmTcKmH5FVSwgCuPAz6K7jzeBA2dYfw/BrHoPwsP/fccytc4zptQxhwV7rufqkrxJt8CBPXSu6CEqk8vMwpD5PkctKDv2BaH9NJnOFM+SDfg+IjcqG+wigMSGPYYXIay40/04+wpG+mrJAmOPo9PzL2oI0JE7TIyq9zDJOF8jA4j8+ibSBPYBfM5GMZpJ0Iyo1y0pD0x/lZZ51VHiYdWcMNk6By2m4ENzCnjISJXrweBvwxPNJN+tNuaEMJI/1MygJxIuyg5KtwH15BkV0eJhHxelBYxDwJCqj4mzaJfihfPhEX2iUvc+nnU3dhCaegpIxlOu2G8hIUP1m5uNsw2SgnT5NCHlKOacdoqygvXPP4hOUi8VpQEsb88rD8GBRhsX919349eaSPChP3Cty4DyPKaL6wKeO0m96+JMPlnLJIWwMbyneaIe0O5Zq8C4rUGAfatDDBLf/3v/8dyzrtIvU/m8CLNi79XNpu+heeG5RKkU2YuMUylS0cv8Z4hLAo20khPO8/yEfaF9xRP73+0q55++z9hDPw+Hn/nOyjKKNBgZR8XDxPtuFcSI4FsrXXudp5/BbTJgdFUiadtAfOBJ6khzjQtnkf4OMCnudunJGn38cShbTnhJMUONGXJwXmxCMt5DvPJH4uuKO+JMXbE8poWshnnkkb4UI5TV6rqq9P5hnx8fEb7SS/SY+3z8SPtgahPHDfyxP10OsO7ab3q5y7JPvVXOMxd5s80q6Sh/gnD3luUJIlneQ9D8rz6Id2PJek04M7zyPGP9mkkPFYIWlOln3KMZxJI3+5pKr8KSbfnW2usS1xqYl2I1ea6tt15m/0m9SpquaB9UaZEzazih3iuHHjYoce3uLFjiqtzKHz4h6NCG7pRPFbagna93ImYEFTVvCjvPMu2EMeh0GDHidqeZxUukUhYNDHIK4+SjFpqo/pKGWc6osyhzT64IMBC409HSedDUKHyjX+fJJLHfXJvitIqqvMYUDDoJABoQv1n07GlUQ+GKBz9skwbul8iY8P/mGJv2Tn7mFyLESZwzMIg7qFMHHgtys7cilzYOcCE9i5+EAFBQMCUwZHhJtNmQPrfmGCD0uX8HYsuqfxZzBM2pMKlmAhEu8TX8QHyqTZxSdvDBAQnk0cmBi7MCgh7GSbwuAPzkxakELSAy/CdmUC+UaaCIf0hzfs8T5u+OOZHBkkOiePkx/DW+foJrx9j5eCpVImDAZ6CJMVnkG5Sk8EuM8zPC/57WULRZinj4kv7pgEZhMm+twPVg7xNp0w8ecPYeLFffLY648P9lw56gMwVyLizydyzj5YQMRwfAJBPhEufSZCOXHFizPhPukPG55GN+n/ksoc+JF+0kl55Y/fKE7C2+b4LMIP1hNxMkpfTBqZUJN2yqLXB/wSfwZrwVQ9+mXQSD67GwasxAs3hEFehzfl5cEaJPplgOdlk7QRF8INbyXjeIB6Tj1g4hje3MX0U4ZpP6i3xBMFjjMhPBQuPBcuKKCJN+lAMUA4+Ekqc1DOkQ6eHaxFoj/qGe0BkzDST76Sx67wpp5SZsJbzEy9ZsyC8sAnvB4uZdvLBO1neGMfn4GSE55epmlDcEv8OKd9ZLKFMgBuhOu8vW1gPEKZTypzwpv88rDnUHmwIihHUQIH3DNJ5RxusKTs58snnku+kR/4o3zAzcsJSi6eTTn0SRb5BgM4USbhHSz6YrvjXPDPS4J/h3Ef4XKdPCX/k0L99skQE3bYeZ1CSRUsCKLyjTDCm98KcSO/KPdJZQ4vEIg/dQk/8IURaaS9gzE8KI+UWcpyrrAp45Qpj7+XH2fsyhziSNi4o10mPj6RpmwSTjalDO5pO6krXnacDZxoY+FG3hBnwvUy78ox+ifSVFPKHDgRL8Z4LvS7XKP9QKgr5Huu/tn7KPIvnd8eZroNp17yjKraa9wk2/li22Ti4fXG+xiuURbh7ddQBvBM+CLkE7xxQ71GGCN53PldSHuOOxfaSfx7f+DX6UvgnBbigPuqlDnBwiW6834nHY7XO38ZR1tAuLQrSFV9vedZcvxGe0MYScUSfSPXfDziz/Wy4S8EqLcu559/fvRDnBDvV/ONx9xv8ujtbvIFT6HKHMYa5DPtdD6hD6BMpCWdR8n7hYzHqkozc1qeS330PKTc0qbw7GxSSP4Uk+/kJc/NNbYlLjXRbmRLU328RttQqDKnos1cHdkdYeKJSXHoUKNJb5ikRdPTALdSjLiGWSpuXg3mv/jBL2GUSkJltPDmMZpsshSjLsTXrVbn2aFCVtrgsxD/mHyGzr4QpwW5CQ1gNNXDjDQpxaQp6V/ntUsA82HMZsMAN5phhs40s7SGPA5vTAzTU18WhKl2GKDHSIYBZFGRxayXDU7DwC6asYcBRTTvJjCW8iQF81fM6xG+zhEG2nFpUBjwRb9hUm2rrbZaNDdP+qvOea9evaLzMCGIJt0sp8LkE/PmXMLSADe9xg3LycYFs2tfjkA7hhuWwyCYo+fbRBGT4dDZRbNsljYgLKlhrx6WU5BGOGEWDSNMx31JF6bfSdl3330zPzfffPN4TvuaS9gQkbB5BnnKUiBMw8l7TM2RQtITBldxOQn5FRRMkSXL2wgndGAx7wgLLpjy8kyWoIWOLZp1cy8tcEVYzhMGBXG50SGHHBKv8Tz6DtpvymjaXDw6yvMfnHx5QBgYR5dhkpTVh++bECZi0eye/CQPYIV4XaBMhAlcTD9LhJBkmKQ9DGzidf7zfWioD4iHFwaJ8Tfm8MgGG2wQw2RJiS85S+Yp6a/qy3Pk6cCBA2NYfNWKMDFhh39yXw3qOmFhYo8fTOBZcsRyCpYzunk7ZZO0bLTRRtFMfeONN45LaAiTvEKII+knzDAQjKbysGR5EWmkPPsyBepyGLTHJTwsK2Q5FPWdZULEl7gghB0mLbG+hUlDXMYSJgjRdJ19QugjCQf3YcIb4w33MLiN14MCOPohLMonG6cSF3jANgx2o8k9ZTYoUWMcKB+UFc/LXXbZJS4B4xm+RI42IwyICbZCuLQBviyHOutfmaGOhAlnXBqFn6DIie0O1zjn63lwor6TR6SR9MCbvS7gT//LWMnHVYcddlj8Wg3uvMwSNss7GQPAgCVBtHHko/vLlU/4Regjtt9++5jWrbbaKoZDPoeJQswH4kH8WMoBx9133z1utEo+wIXxFhIG7bEdJH/pR1ie4G2Fl5noMPxHmfN6Sfxoi+ACE55BuWGJIXWHZUCYr5Mm7oeXD3GvJQ+LdoQ8Jv3EgSPlhPygrFM+eR5h+nLLfGEHZYV5u0tewIY4sbSF8oOQHvKStovn84UelrvQzlJOSQvlG4YIjIMyMY7v2DeH/pe0sQwuKaSRZwSlWFxSQz4ThveTpN3LYdLf4p5T/xGWbgSFdFwOGJSEkQPLDKvTP8OMdFRHqtNeE26xbXKuOAWFSuxryHvaZZafkZfs54XQ/1NPKQO+zJX8Jp+oD0ih7Xl0HP6DKeLjiPijBv7zZV8efjpIH+N5f0SeU6+876qqr/fwkuM32k/aYdrQoLyJYyXylHrk/Z378yPPwY+3sVwPLwXibe654CbfeMzd+ZF+g7rGHDDZTvr9qo6Uf/I7vcytKn+F3C9kPEY4+dLMGISySD9AviH03b5cMl5I/VdI/hST79TzfGPbUrcbqWQ2qJ91vgEyHQkN3eIKYVBgfdKyuOEl/TMQZ5KBsHZz1113Td6ulXM6ah/kFfpABtgMkHz9ZaH+6ETCG78aU+gwYAhvhOKAMtlAFJOmQtMgd6UhwGSGzonJGBMEFx+sMpFKig+wmUQUK9TtsLwqM8Fn0FOVeHxQGPJXUxLebsc1yuFtXFxfzN4SRxxxRM5N7bI91/fjYXJEJ4ok60U2P+lrtEFXXXVV3C+DvGAwT964sA6f/UkQ76D9Xq6jxys9UUq6Z6IVrP0yTAnb04A7P8+XHtoDJiaIr9WPP379j4kfky2ENPkEngkOE2gGCbBLD/Bp/5m4sCaeCSBtNpNGlBp8xpRBLvFL77vw62MLPngf45POtEcm7wyQwtv1uJcJ5ZUJSXh7H/snV0IyOEwLLydyCXtqMHhjbT1+aT9JsytsfKLg+x0kw4FpsYLiiz/YoRhZXKHMMIFhYEZ4tBko3SizrvCnTFPnmTxnU7yxPwWKGxQs7CtAeaDPChYBcR8RnkH5YAKFEoi9Y1A+IyhVTjnllKjoQDlAOaE8ZhtsBwuPjBKD8DwunMOe9o14wJ4/rlH2qEM+ZghvdeN+VklusPR6lgw36Yb+nskDLAibZ/ukE3dMnnyvD98AF6UDQplz5SMs+I2S1RXIuOG+p4ffaSFMJuXupqp8ol6nxccs1BXy2t2Q/97ecPQ2HSVMtgkTbtgHBSFPYOdhc420sDcGdQFGKKBgRjuEohTlBYo59i5CMZJPCIs84c+fQfw9v9J+cZ8vbPwRZ4Q04D4tuHE2wWog7qWTdEO5Igxvc2hjUJQRP/IHhTcvNFEepPeE4z5KIsqht8/JsEtxTrlBKUg7FSw14yNol6h3KHNK1T9nS0tV7TV+im2Tsz2Payh3+TKR11fKN+0B+Yj4y+d0P5kcU1F+kULbc/IeoZ+oSUFxidDmZhMUxrSp7B9Ef84ePexZSJ0rpK/PFibX2AOG8ZaPa+i3+VR6eoyJW9jyx4uKpLhii/FRLvF2yJXVSXdheUtUaKPQpR/Bjbvzc9qJfBKs6WL7lo5b2g/xyFU/c+1hRXuQbzyWfob/TqbZXwiiYK6O5Mufxcn3fGPb2mw3qsOiPrit3KvUcqzoWH3gnu3RDFZo/BEGf+k3D+6HMAiLtxg1LUwGaYyDuVrcDDWYu1bY7Mufh0YapQWbzdHRpt94MAnGTTAnjEohBgAMmOjsaBjYXI+3SgwQeSvKINWFDb3YrM47RqwjSDNvjoKpXWxoqQS80fcNwhi4sWEXGtf+4U0OQuWnY2dywwCfe2jQGQAwAcHiAAUQDWNYExnjgRbb405jzaaIfPHAB8dUMK7xZpKBLHFw7Tgbc/kbBjbfQ8vNwBpJp4lrNJ50CgxoyGs6CrgnOyjeghEn3s6y+SP3eDuFZYEPPAlLUvME/E0iSoyk+EaKWMEkhTcSiE/IOa/OhJAyzqQOoVwwSGcA65YM8UaW/7y8UF+YSCelqs7XO+ukHz/nrSyfcGWwhpIXC8EzzjgjDqLZhLW64p20d6iF+mdQyCQvmOxnBlluucHAFEUOdZWOnskRg0oUAYsrtFG0hwyw4MqkDKspNlxECkmPvxUm/mxEmhbi64MvJujJN3FYRtE+UYZ8kJ70T5qxiKGcMMCknDLxgQdtCUKbWUqhfAZz+qhUYKJPn8DEhrTw5pXJNYKyJ12P/F6u+DFIhj8TeepDMC3PKLXcL5vhpieM/vY3V7i1eZ28o51nQAkr2gbqEG+k6ZsoYyhlLgjWobzNp09P1lkmvvRVKH5IP20PExn8oNzBmoVwEZhg0cF1lMJsmok7ngejpOKA+pG0WOKZxC357CQnxib01fS/YQlJvEX+UDeTfT8TNCYVyb6Jcpz8nQw3ec64A79hSVhkg7ICqyX6b94WI5Qh2mXqg+c7YxA4wYE+H+awgDn3ChGUhrCEH+1pvnxKbriaL2yPH+26KyaIp/OibcjGBTf09wjpzJYn1Hcmeoxh/E18WFKXURxibcQYkfEEbQITDiwqPR754p3vHuPSfGETV093rmfhxtNEOohf8iUcXCjnXsddoUW45A33YJgOH26kmU38Eco9dSEsVct8EStf2vLdI+x8wuQVKyTaazYJpq8My82i8nNx+ud8zyz2nnMtpk3O9sywvCf2ubT3lEnCxxLO+zVXwjKXyCUep0Lbcx9juYWsh8t8gPE842l/Lvcot4j32fFHlv+wGEMol9mE+spYAHZYwqCQ8D67kL6efjGb0PYwvqGtx6KW+QPWO7RL6XmeK5w8TR6evxxxSzG/XuiRcutjWLeSdL/0PfwRv1zCfIf+hjmLtwG53Dpf2kavHz7fdeuotN+qxmNp99l+M6ZFqjsGzZc/Pq7JN8bLle/5xrbOpZhxfba0N6Zrzes6MXRC2Tpv4kVhYZJO58Mf5+kK5fEnDMKqaeFNF4NmBno8H0HznBZ2VUcTT8WlAWPwTkOUFJQeuGPQimaewQSNPW+PMVVEIcIglzfuKGZ88EIYhIVCxYXBCh00podYPWCezASCiaYLHT7Pc20m15nU+PILnkVjhEKHdDKJ9UEVbjn3iTfhE1ZY3x13iccvwltwBh6YQjLwZGBLWmjEEPx7mMkBGffSaWIg4pp4GjE4MpinY/C3DvhjUBDWl8a3PqSRBpcBJ5NrSd0QcOVKehmi5wlvNhAmHXSOdFgu3uH67+QRt7w1Z5JEB0GHWIiVjy+HYgLH23n/Y4CU69Or/taMt/UuyQ6OsowilokLYTBwYZKF8OWEYoTJFulCeUlZdnHLFf+d7UibxISWiQRv77yjI80IAyzSxCRhfFAcI/kUVdFBlv+8DeAW8UQYmLqCIDmYKSQ9DC4pB7SVDFI8b7AkZLLJ4JJJNnmVLE+0D0xiSVM2RQ7x4u0dg0naQdpQ0u5KLj4ryhKG5CQJP2mpapKSdp/+jbKawQZllYk87TT9F5YRtIXeh9Gmeto58lwfkKfD9N8orGlnmdAjPmjm3N9CMphPhkv+pd/W476mxSejhJsuZ9R3+gzSSP2lT+IlDXnNhJr2gXiH/UtiX4KpNXWfwTl+8E+fwDnKCPoXrBzwB2fc8dIAPj7whXXYZyG+MKHcUF9ZqsdLCoRJCpMAf1lE2cF6CusB+lUmYQxGXTEUPSX+47ksb/KBK7dQ7jA4puz6yxgUMHx1iHApF7wB5VnZJlH0+bwB90k54WBx4kJYKCqTkxnynfaIuuNpYQJNn0k+0L6i4KXcwSaZTx5u8ggfJk6ki6+xYfVBnKg/+fIpnefJMDmHI+Wb8ovVAS+T8MM4iPiRVuq9jwfJZ9pE3DAZxQ1+mfTghjLBCyvKBIJ/8ssFt7xcggtlhxcN3McKDMVuTYwXiVtVYdNW+WSSNJAvXqa9zSdPSBd/xIu2i/EcLzJQiGCVyIs/79dYfsJzqdvUE+oTZYC2lbIDU+ob8fNlq/ShlGvy1V/4OavqHEkP8SQtLjwrqURA4cyziBtllTKF5RttM/48HdXpn/1ZNXX0ckN4i9MmZ4sPSivqKu0/5ZJ8TioaPP2udCQM8oovhNIGItVtz72Mkd9J8fYp2Zdyn3EzQrnKJz4eSn6tKu2el88I/RL1jnYQKaSvjw5T/zHRp/zwIgRWtJ+8mEZYcp0W6jjpHBTmSMmxJS8HENqBYoR2grlc8o85E8IYiLFXPuFlNlLIizT6bIQXQC5uqerlxa/7sarxmLvLd/R+Kl0W843Lq8qfYvPd45lrbOsc6rLd8DjWt2OdW+YwqKexY6CbrIRokHmD6h074DjnGhMdOjIXJjE0mj6I8+s1cWQvCoTOlYESg3K0oTS4PsijoWZASgfHoJH0MPhB+eOa+GRcmAx65UZji3KCScYd4U0baeTtIW/6aLT6/2pRk/SfPOcttK//RElEJ8I692xCx8+zPA24YdkYb2uoyHT2KE+wMKCycp4WBhcMMnxAyPPIQzpvJgx01ljlMMmlIYQT8SN8lEg8I5egEOItBBY/DHoROhwG2DSaKHpc6DBo6GEOawZplCFfp+vudKwdAkzsGaxhesmgnwk0DS55SqfsihIGppQ58hglIp1tWumZjLG/OUdJyESAAZh3kPkUHrils6UcckQJwwD36quvjlZzvEVKi5cdlKlHhKVTDP757KkLkzc6KSxRmIgxSGWig/h+M+62OkcGKli6UM5R7GLhRjyrEre8oc75Onv8+MCUpWAMsJk88wlSJD3Qixdz/LfyyivHO7SB5C98mLzSxjE4D5v6ReUOeYwQNvWxkPRQl0kvE2zaGyYwlB0meCjG4Mx92kpM9Wn3mWCSVt625xK3vuG+7zvEIJeBNRNcV+zk8o87BkikMW0Cn8tP+jr9BG057SrKFsoR5ZzwmAhR7hl4MkCEGW+wmZyRX/QjlIFcQp9DfaIMUv58IIb7sElrLO+YosOUASx5R/7QTnu5yBV2da67Qsz7R9JJnUA5QltP2igfrpTgRQCDVCxW6deou/SBWML4ZIN8RsFC348lGWWJeszba5aIoDREMUbbj+IGZQsTDJ7BBJFyTj/gShLqK4M/wuFzr4wZmCB5nSWf8M9EhGv0bbwUIA2UAdzTFjBRyCb0gcSfiQuTafpBwiePySfKGi+CaGtQ3BEX+lX6Kcq1K8A9bPYyIV9hx3Ig6gZpwB1pgBl5Sl1BoYNiBasLlD3kB/EkLpQL6gp1n/LB85iQ0W9TF3yJhz83fSQs6oHXY144FZJP6XDSv+HFhAUu9AFYDRJfmFBmeClEGfWlYm5NSP6gFGBiQ5tHmmBBmaDekLfULZgTPue4JWzaMK6TJsoN9RB/9Cv0O7QnXE8qrNPxTv6GMeWD59NeUcYZ7+QLG//kG+WcdoFJPWWU8QvCdcZ9pJ22ADco/mgniBfuyI8LgqUaeUtdY7yFIot88TpI3SJujKFccUgbyriM+FEmUCRRX3CDuII1/kj8h+Uf+UMaKWdpYTyMBRTKPso91hIw8TE4+YCynsk9LwARXoIyNqY8o4itbv+cjsPi/E6384vTJmeLB+0Q6adNJ48Yv1CGEcYwtGtYmdAu0l7Tf/Pii36HOQFS3facdodxFv1cUlCMk1e8yEUJTrvJsyhDlAt/SZ30kzxnPIL4GC55z8+T7REvWpPztqr6eg8jeaRM0abyYoR2GIawQpJ9fNIPz4EZL9Vpu3gRh3/ql48Fku4LOSfN6XTTLtEPURcZzyLUUco3193ShXaWpdDMZfxa8plpP7Rt1A/GN4yhEcbJXPPnJP1zXsh4LO0n/ZuxHWMKyiiW0rSflEPvJ9Pu+V1I/hST7/6sXGPbYsb1HmZjP9a5MgfAdAAMSGj8XBhoJRsEv8417iWVOfj1TsTd1dSRDpCOybXkDLCobAwm3VyfQSaDAt6OU/EQOlAqRTZlDoobFyZIKFho2D29PjFkoJJPmUMj44ocwiNcBoN08tkaDwaG+CFcBvgMRKjEKFgY8BQivO13RQ7u2egNIZ0MGFFswcvX+8abBf7nGmkGdS7eCDPBo3FwYdDDABeBNQMOtwZyNzrWPIFk3qdDJ38Y7GIVwTJABgoM2Hw5Hu4ZcDLRpGOm8yMPeUvNYD5b2EzseJvOumMG4Qhm8gxg/Y1RvJjlPwajKHqpE/4Gg4lBtqU9eKcc0fkz8GHigzDIYtDvdZPBGenhiFCfUGIxgEDcXfyR5TfXPZ1+pP4xESXMQeHNEm2IM/Fwsh2Z1FEPGJjB1YV2CTNvFFm0VYT3hz/8ISp0fEDpz/Yjfv3cj7B3BR35A28GSUwIsHhgQkD6mQDTTmL9w8SmkPSErwXFgQ/KCy8fDI7YN8Un4zyLyQaTYcJHmKSgmMsllD/aDyYjDKhdmHwwyE22vZ5Od8ORsomiijekTDjztYvpvPZwmLzQH6B09AkMfYMvFyTM8HWeODljAMUfeUTa6AeQXGFzjzJJmaYvSgqKCdp1yj2TLIT8wW1NKXJgRvxp45lUMiDlmbxM4Vkc4Qw7+sxkP0TZ8/JHuaWccB+rAwa8tBn+9pW4U98Jg8m95xWTWxQj1Gf6Lsoo9+k7CIdJhbPDD4NdJktMZFBKuBwRlLX0vUzyKS/kFwoUL2fkB+WSiYDH2f0mjzyffp5yS7+NksAZMengubQpKNNcaCuIa3ofI/x53N0t11DAwIGJOvlIP067iYKAuJEXlHuE9NMOkxYmEi6wogyS3qqEZxIeYw84oVygvqNkzJdP7E1VldAnMOFinEDZ8TEfdZX6TrpcmUNY5AtlCSGdtP2M9WCXZoUbBvuuzOFIm44wGaTdYOzjfUG8Ef5D2coLIbhWJeQBecdEGEsH6hxjlHxh8xKBdpFJLu0yE6W0wJy4wps2jzEh/RBCGeQ65YC6h+Kf8umTW9xQVl2hSlguMKIOwI2JZvrFCW/ffVNl/DhTlMwoZ3K1f7T55IH3g7wgZILnQtlEEUT593aPtoFJqu99VFX/7Onwo4edPOa7l3THuaeN83Q7j+Kv2DY5Wxx4EYqS0dth+h3q06DQv6NkIC9RXlPP6KdpH8hT+mt/kVlMe46CnHymPHvZ51mUFdoh2jdv4+jj4ECZTko6PbTn5B11N5/QxqBcpq9NSiF9fdI954wB6DvhAScEBRzlx+dd6XhuE+Yz8KbfoLwjKEH47WlMloHoIPzn4fjRr1d1TIblSvrk3ItxK8IYOJuk/fACi3yivrh1FnWK8uFjonQ4hYzHkvF0/55WP9Iu0dbS5vBHm+Pl1f0kj4XkTzH57s/INbblfk20G/6cRnUMpn31QvjcZBjMZf6CVjBnvLiXdIvfUkhoxOKn2ULDUB4alvgXKla8FkztMo8MnXq8Fga1mWuchEFVvO4X/bOSYfDgl8pD4x7d8Pk/l/BGLV4Lkxi/VB4GnvFzi36BOHEtKXzCMVT+8tCQx8s8h9881yUMhDOfi+be/2fvPMBkKaq/XSBZFAkiOQpKUIIkJWcEVLIgEgQFiSKgIEFQkkTJEiRIEiSDIIhEyVGJSs4553y/fuvzzL93dkLP3r27s7vveZ7dmemurq56q7pn6tenTpFP8UM4dufX4sskL/9W3lgMCHJexZd/efOo4gs9LyNLXvwVX4r5tVw22od99Xzq61Q8HelVJ05GeTg+jPfFj5f4mF+LL7G8nGyPjcPgQzFAHlW43nf8V/wgzEvaFT/KBpxC8eQvL9laPIFqem7KRz/vxIof+aM4rlOL8hQDwUqHUu7ih2xevrrZAeRV/Chrtrvj7YU4nZf/5bycn2Uq6efle0XHmRYHUEbqPzpW/EAZxV/ZqH+rvtVJfYopFKMKr8xy9j3ecy44VG2/Hgf34UMxvSPf11r136rZwr9VuenP3EP72wrBbVQxiOw4W8oDa5ZBLgZ5+fhiulLeVgiOeZnwyJQ25t5eeODVvnNgVzxRzctwk0cxYM/9uPixWFvame/V+rLBmuubfeRJ3wr+vFIm7oWkKQTAUdzvC3Ex9+3iwUr+vipEh1Gcv5FRF8pViAd5aeT6NuFz4RWU61IMSHJ/j/MXP3IzD777GuVP3tSV+1n9tUYe9IHiaW7+o60jTaN84VI8Cc/37qgHZSMPGMT9jzw4X+Hl0eva4ZxcU7AshN68jDrnwtjHOWjLct/kHDBnO4yj7lz3bKN+9Cm2N2unqE+5nFzXlJG/QsCJKuW+VQxmRhVeWqMKb5lcXvLmj3LzW6AQj3LZ+Uy7le/JpOPzY489lu+bkTHb+f1DeevvWeyjjsVDn7ysO/WgrNGvq5Y/+gq/Q1lqnc/t8iYN7cq1wh91iqWWi8FbbouoA5xIW3gX5T7e6N7INcn1ABde+RwWx1O/MM5fPHDL5+a6gVG5XbiWYQYP8uJ3Id8/5Xwjr/IrjOM+Ud5efs+5GtUh0tCXaUvKOJDW7D7fn/dk+hRsWxn1ju/9Zumq3s9hTbtxL2xk1Jn+HveDRmnK27hWyI8+2x/W7ru+0TnoO+W+3ChN/Tau87hX1u8bU5/bXSuNztvsGO7R9d+RjY6PbfQh6jy6xrXcKesq7dOXdm9Xl8G6b7QrV3/up025VunL7caB7R9FDIB0hcKPSlm24osmuyPWq4rFl2aPuaccw7E80elv7xxi2GA8leavbDyN5KkDTxbj6WPx46icpCvf82SPpzN4E/FkCZW+WVCxKhUofqS3DPRWJY9Ig/KPGzRxA+JJI/to3+ILJZL52uUEuGZ5QtrKaN92T3rqj48nTfXb232uUp5yHjytaFd+nlj21/2Gp/pMrcArYaaZZsrTOPF6wduM+9roWH+UEe+DeqP+ETOnfl+n9YkntfX5xGfONbocIq8qr8TqahZXqcrx5TTt+HMd9Ne5yuet4oFRTh/vKU896/AEiTTxytNOnpaWDXYRg6H4sVV76kkePCFu1Jc4nmuO67vRNc6+KBPfDfHkmv7HPjw28G6iPJy/kfHUO8rVaD99DM8i/uoN776IR1W/j8/kzV8jo3z0gUb9oFG+5d8TkV+jew33tGb3T87JNdXoumJfs3M0up5pr/o2a9ZOjerD02b+6g1ePP2tt+KHcG0TZaWOjdqEfY3u0WznqS5/9cY+6tionpG2vp0blb9ZX2mVN9MHmVpX/CjPnmCFEJc9TjkvHollxjz1pk+3Mq6nGYvpZvzVW6PjKTNeYzFtmWPKjDgmvBfwmuL3Lt4+7byVyuWuL0d8Lp8ntpVfO/1+Lh87Ou+b3ef7855c358alZe2adSXy2mr3s9hjQcY3ih4S9Xf86gzHj9VjHstXsx4wpS9XKsc2yxNo3tSs7SxvdE1GPuavba6xpsdM7rb210rjfJvdkyMKRsd02gbfag/6tzqu6zRedlWpX360u7NzhfbB+u+EefvttdBF3OKJyv5iwORpmyFmp3n7HEjodEw0jCPj31lK5TBHFuFqQn9NejnCw1XWs5/UuESXzamNeDeRjwXhJD4QuULENdFjB8lrQJIlfMbqPeIIghQuP3hksscfn6M4z5NHAN+VIQVinG8bfmKeyh54IaJwQ0hrpEV6nGjzbVtuJIj5uB6Ha6UiE7FU4vsUl9L6BsJDCMCuKNyLymehtZqxUAnXNhrG4fIm+FWnyGCfUQUs5HYxACm3YBxRMCxkl1LgMEMU+KZ6lKe5sV0Xqb+IqZ0izE443d2IwGyW8poOZoToE/xm5nppfVBj5sf1XsPU5oYB8R0v94p3CIBCXQLgUEXcwpXsizSNAJC4C1uSsTIwRAJ6oWcOA6hh7z6y7gJFu5NOUgjPyDLtmQx1x4Fk/mNiDkooswX7SSAVDm/gXqP0FUlqBgxiK4ugiYiZkUQwWZlbBfoDSFupsLbACPOCazgx1OyemMuPXENmBPOPFl+4EQQ5giiV3+MnyUw1Anw9BkPOTz7iDuBpwZBInnaMhRtuNVnKLZBN5SZezwCPTFXeILfzGumG8pqGbqDAH0GLyweOnH/6/QJdXfUoncp8Hohrg7eEvwGo254XuJ11I33+XaeIr1r6JZuIUB/ImZWzCzoa7l4oEr8rSreV309h8dJQAL9Q2DQxRy+0BBt8K5pZIg3zQSccnrcGcmrvyxuhBGAt5wvrnGIOAgPDL4IOsh0I8SfKgGkykJGeB2V84/98Rr7ymnL72N/pK9/jf2II+2CipEWrx08BQg+xs0chb9ZnlUCvfFlUB9INX7AlOvBDwiCIrIaF6swYIhFBANs5JKdE/hPAsOEAP1/OP2IHm71GSbdbMCqwb19pkLI50+TQFUCiNljYuph1fOPqXQ8FOR3jL9lxhRh8w0C/L7mAfPoGB62mgQkMDQIjEWwnsEuKku41cek6bRMTLGqX+qz0zz6Iz2CDnNNG83974/8+ysPpkMVwdCalpNugacAP6pCeGl1bsQ4YiTEvOtGaUOUq6L0s2IO1iq/RucYbtuYa89KHJ0a7ce0NtqlP+bSdnp+00tAAhKQgAQkIAEJSEACEpBAZwSIrYajCg4k4VDRLIdB98yhYIgwxM5BDCBgF262xYoWOfBtvdZEhZgGxNKHTMFimVLEhm4QcqhLXwJIcdxAW7ugVXCOoJNVylYl0FsVESfONdJFnODgqwQkIAEJSEACEpCABCQgAQlIoJ5AV4g5FKp+OtPCCy+cimW58l+50HgZsA/DfZs/TQISGH4E8CoiCB/T/iIg9kDUsljCNRXLxubA3iuuuGLDUxJPCgG6mf30pz9t6lWGAH3ppZemxx9/PN+/Vl111barlzQ7j9slIAEJSEACEpCABCQggZFJoGvEnEb48eRA0ClbJ94d5eN8LwEJDC0Cr776ag4yzlS/gRJz8AT81a9+lVfzIC5WMzGHIJa33357L6B333133kaMqEbGSm3MZceDb6GFFkonnnhiOuKII9K5557bYzW5Rse6TQISkIAEJCABCUhAAhKQQBDoajGHAJosTV224RQgtFwv30tAAj0JTDfddAlxZOKJJ+65Ywx+QlRhWdZ2tttuu/VKgicRXoMEDmy2CgvCDULOVVddleNREZcKr8QjjzwyB1TvlakbJCABCUhAAhKQgAQkIAEJNCDQ1WIO8XP40yQggcEjwAptxKcqCxhPP/10Ovroo7Nwsfjii+fC/fOf/0x///vf0zPPPJOnKG266aa1qUZ4oBAAm2mRrFjG1KnVVlst53vFFVeka665JsfCWn755fOxxGx644030v77759WWGGFtNRSS9UAkJaA6Qi9s88+e9pggw3S9NNPn/czReqYY47J3i+IMnjPsHrI6quv3nYqE8LKb37zm7xS3Zlnnlk7X9U3559/fl7RbqONNmp4CAGpKff6669fW60FcXqVVVZJf/nLX3LMsCrBxhtm7kYJSEACEpCABCQgAQlIYEQRGHtE1dbKSkACHRNg6hFiDFOLwi6//PLaFCi2IX4gYlx55ZVZ0Dj88MOzWPPBBx/kQxAx2Lb99tsnVq9jO9OoEG8OOOCAHLH9vPPOy6LLsccem49hxTXyLZ/31FNPTZtsskkWaSaffPK8bP3KK6+c7r333nzMK6+8ko9Zc80100knnZS3Ie4wXQpxqJXtueeeaYIJJkg77bRTq2QN9xG8/aijjsrTweaaa66GaYhMj80wwww99sdneGgSkIAEJCABCUhAAhKQgASqEFDMqULJNBIYwQQI0IvhdROGd81ss82WvV7whtlll13SSiutlPDOIXgwAg0Bgi+88MI4JL8isOBZ8/3vfz+LLu+8806eXsT0o2uvvTavoHbKKaf0OCY+4Imzxx57ZAEIL5iDDz44XXbZZVk8KnsNkX6xxRbL06UQofAswm644Yb82ugf4hR/v/3tb5tOkWp0XGzjWLyXfvKTn8SmXq94JmH108bi81tvvdXrGDdIQAISkIAEJCABCUhAAhJoREAxpxEVt0lAAjUCU089dfY4CWHmueeey7FsCOSL3XXXXfl10UUXzVOfHnrooTTrrLPmbffcc09+5R8eKEsuuWTtc0yNwtuG2DhMMUIMQtRpZHfeeWfezBStmI407bTTpqWXXjof/9prr9UOo2zjjPP/Z5EusMACeXu5LLWExRs8dhCD8BIi3k2nhucS3j8zzzxzWmKJJTo9PDGlTJOABCQgAQlIQAISkIAEJNAJga6OmdNJRUwrAQmMOQJMW9pxxx0Ty2rfdttt+UTEesHuu+++/Lr77rvn1/K/Z599tvyxx3umR+Ftc9hhh6VLLrkkMW0Kj52tttoqjTvuuD3S8iGmW4U4EwlY6erqq6/OsXpiW/k18mIqVCPbb7/9EtOzmGaFMBP26aef5s/txBZi8zDNi3zGHru5Ph7i0kcffRSnyK8ffvhhfmWKlyYBCUhAAhKQgAQkIAEJSKAKAcWcKpRMI4ERTgCvFYzpRDfffHNaZJFFEh47GKszYYgyBBsuW+wrb4v3eNf87Gc/y1OTbrnllhwYmaDKDzzwQMOVnWKFKDyDpppqqsgmPfzww/k9S5i3Eo9qB5TePPXUUzn4MJvwLCobQYn5Y0pZszg4pD/uuOMyg+9+97vlw3u9j5X4InZOJEBIwhCzNAlIQAISkIAEJCABCUhAAlUIKOZUoWQaCYxwAp/73OcSYsXxxx+fY9QQEyeMFaUwvHaYAhXG5xAwYlv5lfg0jz/+eJ6ixFQp/og7g5dNvfcKx80xxxz5cKZizTfffPk9njQEXUYI4VydijmTTTZZXpUrZ1b6t+WWW2bBasMNN0wskd7M8EoiuDOi1IQTTtgsWd6OsIUIRcwgAkGH8ZkpaOOPP35s8lUCEpCABCQgAQlIQAISkEBLAoo5LfG4UwISCAIsJX7RRRflj+GpwweWDscjB6+al156KQdCJj7NoYcemvbZZ5+03nrrRRY9Xol3c/LJJ6edd945i0B43OD1s+CCCzacZoXYM/fcc+d8J5100jTLLLOks88+O0+ROuigg3rkXfUDAguBmxsZy6jHPryFmEa1ww47pHnmmaeW/IQTTsjvG9Xx3XffzSIPK2mttdZaOR0rce277755ShfbCSrN9LFyAGf2M/WKaV+aBCQgAQlIQAISkIAEJCCBRgQUcxpRcZsEJNCLACtEIX4stdRSPVZ8YroUq1QhPiCu8Ee67bbbLq277ro5n0axZH70ox9lLx+8fS644IJ8DLF5tt1223xMfawazoP4s+uuu+ZVrUhE0OG99torrbHGGvmYVv8alaFV+vL5EZquv/76RGDlEHPYRrnXWWedNOWUU/bKipW68BrCGyfEHOrMNCumZsWqXZtttlle1j0yQNCKla9im68SkIAEJCABCUhAAhKQgATKBMYqpin8X8TP8h7fS0ACg07giSeeSNNMM03H5eCy/vjjjxPeIVNMMUXHx/f1ADxKWB2K+DWd2IsvvpinSsUqVe2O5TwIHgNZN6Z+RTDlduWL/bRBBD6ObbwSjBkvJjjV1zkCNddvLx/vewlIQAISkIAEJCABCUhg+BHgwe9EE02UxxDlh8uNaqpnTiMqbpOABPpEYLzxxutYyOFEjTxbWhWA8wykkENZOhVyOKaRkMN2hJpyEGe2hSniBAlfJSABCUhAAhKQgAQkIIFmBJqvo9vsCLdLQAISkIAEJCABCUhAAhKQgAQkIAEJDBoBxZxBQ++JJSABCUhAAhKQgAQkIAEJSEACEpBA5wQUczpn5hESkIAEJCABCUhAAhKQgAQkIAEJSGDQCCjmDBp6TywBCUhAAhKQgAQkIAEJSEACEpCABDonoJjTOTOPkIAEJCABCUhAAhKQgAQkIAEJSEACg0ZAMWfQ0HtiCUhAAhKQgAQkIAEJSEACEpCABCTQOQHFnM6ZeYQEJCABCUhAAhKQgAQkIAEJSEACEhg0Aoo5g4beE0tAAhKQgAQkIAEJSEACEpCABCQggc4JKOZ0zswjJLY9GpcAAEAASURBVCABCUhAAhKQgAQkIAEJSEACEpDAoBFQzBk09J5YAhKQgAQkIAEJSEACEpCABCQgAQl0TkAxp3NmHiEBCUhAAhKQgAQkIAEJSEACEpCABAaNgGLOoKH3xBKQgAQkIAEJSEACEpCABCQgAQlIoHMCijmdM/MICUhAAhKQgAQkIAEJSEACEpCABCQwaAQUcwYNvSeWgAQkIAEJSEACEpCABCQgAQlIQAKdE1DM6ZyZR0hgSBAYa6yxcjk//fTTIVFeCykBCUhAAhKQgAQkIAEJSGCkEohxW4zj2nFQzGlHyP0SGMIExh577PTGG28M4RpYdAlIQAISkIAEJCABCUhAAsOfAOM2xm9VrXrKqjmaTgIS6AoCKLqf+cxn0iuvvJI++eSTriiThZCABCQgAQlIQAISkIAEJCCBngQYrzFuY/xW1TNnnJ5ZDNynUaNGpT/96U+1E84777yJP00CEugfAiHmTDDBBOnWW29N0003XZp66qnTOOMM2mXfPxUzFwlIQAISkIAEJCABCUhAAsOAwMcff5yee+659PTTT6fpp59+aIg5cA/Fiblh999/f5pzzjnTuOOO26cmibz6dLAHSWCYEYjrAeFmkkkmSVxjjzzySLrlllsSNwzEVE0CEpCABCQgAQlIQAISkIAEBocAYzbGa1NMMUWaZZZZ8riNz2yP8Vyrko1VDOoGfVT3t7/9LT3//POtytl237TTTptWWGGFtunGVIInnngiC1HTTDPNmDpFn/N97bXX0ssvv5w7CG5b2tAhQL8anT7F5Y2Qg4Dz4Ycfpo8++ih/HjoELKkEJCABCUhAAhKQgAQkIIHhSYAYOTi0jDfeeFnY4XMVIQcaXTHf4utf//poiznvvvvuGG3dyy67LN1zzz1p6623ThNOOGGvc2200UZphhlmSKecckqvfWNqwxVXXJFuuOGGtPvuu2d3rGbn+ctf/pL233//nJZpNtrIIcCNIG4QqLyh3cbryCFhTSUgAQlIQAISkIAEJCABCXQPgRBteC3/VS1hV4g5eNVMPvnkOeBP1YLXp/vGN75Rv6nfPhOMCMGEgERzzDFHWnXVVfst79HJ6Lrrrkunn356+vnPf55dssjr2GOPzXPu9txzz9HJekCO3WGHHRLt9oMf/GBAzjdST1K+SYxUBtZbAhKQgAQkIAEJSEACEpBANxOIcVvVMnaFmENh8c65+uqrq5a7R7qpppoqBwvqsbEfP/zzn/+sCU14uXSLmPOb3/wm/epXv0oTTTRRrbYEun3ggQfSUBBzzj///OxSpphTa74x9qbTG8MYK4gZS0ACEpCABCQgAQlIQAISkMBoE+gaMWfGGWfM3iWsrd6pLbjggp0e0lH6c845J3sOMZXqkEMOyZGmWRmond13333pjDPOSE899VSae+6505JLLpkuvPDCtMUWW/QQn6655pqEl82jjz6aZp999rTBBhv02v/3v/89rbjiium8885LX/ziF9Nuu+2WLrroonTbbbelvffeOz322GPpj3/8Y7r77ruz8LTLLrukVVZZJS266KK1Yj7zzDPphBNOSA8//HAuy3e+850cbIkExGbBq+d73/teQry69957EyLZ2muvneaaa6506qmnpttvvz3hRYWYNd9887Wcy/f2228n6nX55Zenz3/+82n55ZdP3/zmN9P444+frrrqqvSPf/wjl+vmm29OlHWrrbbKebPxP//5Tz7ujjvuSPQLyrnQQgvl9Px78skn0zHHHJOWWWaZdO2112ZuTG8jHhBxYS699NJ05ZVX5uW4qf+6667bchpaLWPfSEACEpCABCQgAQlIQAISkIAEhgCBsbuljHgOfO1rX+u4OER9JvrzmLJXX301iwNrrbVWWn311fNpLrjggranQwxBhEBwmXjiibM4sd5666UzzzwzEZA4DJFkk002yUIJU83+/Oc/p5VXXjmLKZHmv//9bz7uRz/6URZCPvjgg7wLsYP0GDFQCG4bxnuC3pZtnXXWSTfeeGN655130l577ZV+/OMf13YzhYyyUUbEFoLm4oWEmMNxhx9+eM7v5JNPTrBANGpm77//flpzzTXTtttum3iPqEUdN99881xOpq1FWeuD8v773//O9T/rrLOymER5EWMoW1iUdbPNNsvTzN566628izLvvPPOafvtt88CGtyYHodYpElAAhKQgAQkIAEJSEACEpCABIYLga4RcwA666yzps9+9rOV2eKJMSZj5VCQv/71r7k8eKPglbLIIotkbxsEiVb2+9//Pu9GhDj66KMTnjUrrbRSj0PwxNljjz2y1wpTjg4++OBEoGXEFjxv6g1xBBEFIabeYHfggQfm6Wp41PAeT6CybbfddlmYOvvssxNCCHm98MIL5SRZqMGzBU+Xww47LO/D64dAy3j14LWD4XHTzFhm/qGHHsqiyvHHH58Qv1ZbbbXsfYR3EF46lA9bYokl8vvpp58+Cz0ITIharHB2wAEHpEsuuSR7NSHIIOKUDU8fppQhmNEXeOVcCDi84v2DGEV9WZZbk4AEJCABCUhAAhKQgAQkIAEJDAcCXTPNCpisuvPlL3854Z1RxQhGjNfLmDQCDM8222x5qhHnWWONNdIvf/nLRGwaxIRmRvwfVrdiihKG2LDccstlsSaOufPOO/NbPHjYjyEYLb300jl+EB48k046ad7Ov+9///stpzbVEjZ5g7ARtvDCC6fjjjsuIbx86Utfis1ZXIkPMUULLxumSmGUj3r961//imS9XmPFLAQsppd961vfyoLN7373uxwjp9cB/9vA9CkEm/XXX78W0HmCCSbIU7/wdLrrrrsywzgejx2mbYXRJti8886bxSTeE4sJMYd6IniNVHP1qpHa8tZbAhKQgAQkIAEJSEACEhgKBDqNc9pVYg7TZPBWwVpVBOGDmDXzzz//GG0TliLHwwTvEWLdYO+9915+JY5OMzEHzxqsXSwfYsNgCyywQH6Nf+SLGIQXS1nMif398co69hjMm1kIJfVLsbO9lWcSYg7eSHjIML0KQxDCMwgxqJkFj3J8HNIGH2IPtbIQmDhXvb344ov1m0bMZ4Sc8h8VV9wZMc1vRSUgAQlIQAISkIAEJCCBLiQQmgev5fdVi9pVYg5TZoh/goBBIN6oUNXK9Hc6gg1jBCfmr2xMi/r1r39d8yAp78ObBKufwlROw/tJJpkkb3ruuedyfJjYT4BijEDHQ9WYUsZ0KqZyMWWK2D5MIbvlllt6rL5Vrt8XvvCF/BEeZWOaF1b2ICrvj/cxRY+pWeOM07Nrj8m4SnH+bnxFtEGw42/cccfNXAb7uupGTpZJAhKQgAQkIAEJSEACEpDAQBNgvEasW2LKMlOJv6rjta6KmROeGfPMM0/lCowp2HjghPcN5Sr/EQcGQ6RoZHgOffWrX03XX399zZOHdM8//3yP5EwTwyIODe9pTFZiIm5MO/GC9I0sggs32jcQ2+DGlC5EGFa9It4NMXrwWCIYctnKnkExDYr6ly34MGWrlcWUtpdffjlPjWN6HH9cHGPKw6lVeQZ7X1nIwbsKMafqjWGwy+75JSABCUhAAhKQgAQkIAEJDHcCjM8YpzFei4fwjOOqWE/3hSpHjME0eLS8+eabeUlrlrWuYlR+4403rpK0ozQICogPrNwUU5IiAwIL4wVCcGPitjSyn/zkJ2mHHXbIS26zQtSDDz6YAxyX0xIbB4Hi0EMPzWIDK3MR34W4MQcddFA5aeX3CERM0UJQYXrSTDPNVPnY/kqIgMJKWzvttFNiBS6MgMQwC8GGbcSzQfC64oor8pQ0vGcQfYjlw3Lryy67bF7lCy8oxCFi9bQygicTuHnLLbdMm266aUIUJIA1x+MVxLLvI8W4AfCHkIWXkiLOSGl56ykBCUhAAhKQgAQkIAEJDDUCjNfwymH8hriDtRvDdZVnDjFm8EjpBospVgQtrjcGx4g4TCGKKVGkAX4YqzcRIwZRiiW5jznmmB7BhUmHB8/JxVLfK664Yl7VaoMNNkjE6WG1KgIth0Ujxmv99vjMK8GUZ5555hykmVWpsDguXpttY3u5DpE+XtkfFgGb43P5FREFQYbpUqzAxR+iEtsmm2yyWlIEF6bVwSc47rjjjmnrrbdOJ554Yg6EjDiz4YYbpn322ad2XLM3xFFCuGFlLJZSJ39EJdiPJCEn+CDmENsoYh/Fdl8lIAEJSEACEpCABCQgAQlIoLsIRGzaqp45YxUJq/nwDGA9y1Nv2p0WoaGR2NDuuIHYj1CBuxSeNlNOOWUWNYjncuONN/aIkUNZPvzww+yV1B+xXWhS4vUQc6eV6DIQDF5//fUsJtQHUY5zf/DBB7V6l9uRPvDSSy9lbuXtcVy717fffjsLGRGXqF36bt3/xBNPpGmmmabj4tEHEHKYLlgW0DrOyAMkIAEJSEACEpCABCQgAQlIYEAIvPrqq1lDYBzfbhz8f64kA1K01idhxaGLL744x6JBAMFLpNEf+4hXg+cJ8VG60U477bTscXPTTTdloeaMM85ICDlMq5pqqql6FZmpXP0h5JAxjc45BlvIoSwENW4m5LAf9RHRqb6j0u7EDKrfzjFVjCXrh7qQU6We7dJ0Ioy2y8v9EpCABCQgAQlIQAISkIAEJDDmCHQyfuuqmDm33nprTZzh/SqrrNKQEvtiqelW6RoePEAbv/3tb2fBaaONNqqdkaDIxMfRJDAQBLrQ6W4gqu05JCABCUhAAhKQgAQkIAEJDFkCVcdxXSXmlGm3qkB5X/l9+fjBfk/sn9NPPz1PdyIeDN4nBP/tBm+ZwWbj+SUgAQlIQAISkIAEJCABCUhAAhLoO4GuEnMWWmihhKcNU2t438wWXnjhnA4hp1W6ZscP5HamCvV1ifGBLKfnkoAEJCABCUhAAhKQgAQkIAEJSGBoEOjKAMhDA52llMCYJzA6AZBZ1u7dd9/tt1hMY762nkECEpCABCQgAQlIQAISkMDIJUBM4Ikmmiixgna7+LFdFQB55DaZNZeABCQgAQlIQAISkIAEJCABCUhAAtUIKOZU42QqCUhAAhKQgAQkIAEJSEACEpCABCTQFQQUc7qiGSyEBCQgAQlIQAISkIAEJCABCUhAAhKoRkAxpxonU0lAAhKQgAQkIAEJSEACEpCABCQgga4goJjTFc1gISQgAQlIQAISkIAEJCABCUhAAhKQQDUCijnVOJlKAhKQgAQkIAEJSEACEpCABCQgAQl0BQHFnK5oBgshAQlIQAISkIAEJCABCUhAAhKQgASqEVDMqcbJVBKQgAQkIAEJSEACEpCABCQgAQlIoCsIKOZ0RTNYCAlIQAISkIAEJCABCUhAAhKQgAQkUI2AYk41TqaSgAQkIAEJSEACEpCABCQgAQlIQAJdQUAxpyuawUJIQAISkIAEJCABCUhAAhKQgAQkIIFqBBRzqnEylQQkIAEJSEACEpCABCQgAQlIQAIS6AoCijld0QwWQgISkIAEJCABCUhAAhKQgAQkIAEJVCOgmFONk6kkIAEJSEACEpCABCQgAQlIQAISkEBXEFDM6YpmsBASkIAEJCABCUhAAhKQgAQkIAEJSKAaAcWcapxMJQEJSEACEpCABCQgAQlIQAISkIAEuoKAYk5XNIOFkIAEJCABCUhAAhKQgAQkIAEJSEAC1Qgo5lTjZCoJSEACEpCABCQgAQlIQAISkIAEJNAVBBRzuqIZLIQEJCABCUhAAhKQgAQkIAEJSEACEqhGQDGnGidTSUACEpCABCQgAQlIQAISkIAEJCCBriCgmNMVzWAhJCABCUhAAhKQgAQkIAEJSEACEpBANQKKOdU4mUoCEpCABCQgAQlIQAISkIAEJCABCXQFAcWcrmgGCyEBCUhAAhKQgAQkIAEJSEACEpCABKoRUMypxslUEpCABCQgAQlIQAISkIAEJCABCUigKwgo5nRFM1gICUhAAhKQgAQkIAEJSEACEpCABCRQjYBiTjVOppKABCQgAQlIQAISkIAEJCABCUhAAl1BQDGnK5rBQkhAAhKQgAQkIAEJSEACEpCABCQggWoEFHOqcTKVBCQgAQlIQAISkIAEJCABCUhAAhLoCgKKOV3RDBZCAhKQgAQkIAEJSEACEpCABCQgAQlUIzBOtWSmkoAEJNA3Au+//366//7705tvvpkzmHrqqdOXv/zl9JnPfKZvGQ6Ro0aNGpWefvrp9Nhjj6VPP/00jT/++GnOOedMk0wyyRCpgcUcTAIvv/xyuueee3If+uijj9Iss8ySFlhggTTxxBMPZrE8twQkIAEJSEACEpBAlxBQzOmShrAYEhhKBD755JP08MMPp+eeey6NNdZYaZpppsmDzUYCDWLO+eefn04//fRcxT322CPNPPPMI0LMeeSRR9Imm2yS673IIouk/fbbr62YA9v77rsvnXjiiWm22WZL66yzTvriF784lLrHoJT1jTfeSBdddFG6/vrr08Ybb5wWXHDBNM44Q+8rDuHv7rvvTvvss0+64447aiwXW2yxfI0p5tSQ+EYCEpCABCQgAQmMaAJD75fuiG4uKy+B7iDw+uuvZ7Hh7LPPzgVaf/310/bbb58mnXTS7ihgh6VgAE2d3n333XzkuOOOm6aYYoq2glNfj2tVvFdffTX96U9/ysIE6SabbLK05pprpvHGG6/VYSN6HwLYLbfckhAKsbfffjvtu+++acYZZ+wzl7feeishEOFhhShEO+BdNaYNgfS4447rIeRwTvrk2GM7M3pM8zd/CUhAAhKQgAQkMFQI+MtwqLSU5ZRAlxBgcPvEE0/kwXMU6cYbb8zb2DcU7eOPP04XXHBBWmKJJfLfH/7wh8Rgvp319bhW+ZInYkQYAhOikdaawAcffFBL8M4776QPP/yw9rnTN/DGK4b+sOSSS6btttsue6F1mk+n6RGlHnzwwXTZZZfVDqUMBx98cPbw+tznPlfb7hsJSEACEpCABCQggZFNQDFnZLe/tZdAxwQYNN95553pySefrB1LXJh///vfqTygru0cAm/6KkL19bhWSPAI+t73vpc++9nPpqWWWioLCgPhEdKqTN2+j+l9888/f/Zgoqxrr712mm666bq92L3Kh4j00ksv1bYvu+yyae+9906rr756WnTRRdtO0asd6BsJSEACEpCABCQggWFPwGlWw76JraAE+pcAgVlvuummXpninbPCCiskAhxXMbwQCIo80UQTVZq+Qno8LvBc+fznPz8k46EEl/feey/XhbpPOOGEOe5Q7GM6zcorr5z/YlujV4Li4sHDK8IP+QzUNBxEh6gD5SWOC6/tjPhJtCFlpe5VDMGMfsL5mMbXTNiadtpp04EHHpj/quSL8Ij3VZSF2E99NcqIBxX1w3um6pQ4+vRrr72Wp3IxjYt8yoIosZJo22ZGenjCJupRpQ9QTuoOS/JvFOuqfE6uOdKTjvqNDqtyvr6XgAQkIAEJSEACEug7AT1z+s7OIyUw4ggw+HzooYfS1Vdf3avuiDlMESFNK/vvf/+bTjrppCz8fOMb30hzzDFH2n333dO//vWvLNTUH4t4dNZZZ2XvhHnnnTev6DPffPNlj4W77rorixlxDIPUY445JgeKZfUfgsjGKlqkeeaZZ9JPfvKT2v4LL7wwHXroobkMeECEnXLKKdnT4wc/+EGePhbb45WB+2GHHdbRcS+88EL65z//mes611xzpYUWWijNPffc6YADDugxhYf67rDDDrUyEpcIwQZDRMEjimlgeKLAj8DKX/va19LPfvaz7B3Vjn+njJjyE3lS72uuuSYz5JycmzJ861vfygGuESbqDSGAdtpzzz3zal4EJqbem266abr00ktzXJo45tFHH81eNbQd+f/+979PW221VaK9N9tss/T4449H0h6vlO8f//hHjdmGG26YOcGL8pIff2ynzXfdddfcdrQB56GfPPvss7melInV1iJwNSe67bbb0jLLLJODKiNkki8GjyuvvDL99Kc/zflQt69+9atpl112ydMQQ5ghPYGZORfl+O53v5uOPPLItO666+Z+QHwf+hzHRtwf8j/zzDMzX465/PLLa+2A986pp56aVllllfT1r389Lbzwwvl16623ztdRtBd5hHEdkMeWW26Z24FjuJ7w+rniiitq8aIiPWXG4+7oo49O3/zmN3M5SI/XGOd+/vnns/gU6X2VgAQkIAEJSEACEhhYAnrmDCxvzyaBIU2Aweutt95aq8OPf/zjLMCcfPLJ2UOAQS+D+1Yr7jBArTdWukI0YFDNoDlWIWJwv//+++fBZvkYvBFY7Ym/vfbaKw9Iq3p6lPMZyPcMjH/961/3OuWxxx6bPWyIyzL55JP32l/eAI/f/va3WRgob+f9JZdckv8QCZZffvlKnjL1ebT6jAh03nnnNazDK6+8kkUq4szsuOOOeXUz8kLMoFxsqzcEQf5YeQqBgellZaONjzjiiPKm0X6PoMJfvdGP8G5BEKtqCFeIkvCuN/o4f/TNNdZYo5c30b333pv4K1sVbxcEFgRTronrrruufHh+zzWEYHjIIYekpZdeunYdIbzA8s9//nOvYyjH5ptvnuMC0RZ4vSEGMZUSYek///lPj2Oi7IhYiGIIX1XK3iMTP0hAAhKQgAQkIAEJjDYBPXNGG6EZSGDkEMB7IaZYTTXVVFl4QXwJEYIVhViNp4rhVYBnRxiCAKs4Pf3003kTKwmdc845PYQcPBfwaihPPfnd736XvSAaeSNE3s1eGYTOPvvs2bMCD4ewGWaYIXtmLLfccmmCCSaIzbVXprJ85Stf6fg4MsDLhFgoZSP4MoPkVnVASPvb3/7WQ4xguWo8K8o8TjjhhMSS6P1pTOdhKfozzjijli3tv9Zaa2VvldhIPfBsQRjhmPvvvz8hVpVtxRVXzEvTxzaEQLxnqgQs7i/RgDZA8Coby5qzJDyi0rbbbturjfCi2WijjfJUL9oJUags5MBjpZVW6tEWxx9/fG7X8OQpn6/8nv7E9ERErXI/JE88hBCZmHKFgHTaaaf1EHKIq4TnTBgiGEzjOqItLr744h5Czswzz5yn8ZX7Dd4299xzT/Y6QvzhWiwLOZwDz6MwxKRzzz23h+db7PNVAhKQgAQkIAEJSGDME9AzZ8wz9gwSGBYEmC6D4HD33Xfn+iDEMP2DgSqDPLwC8MxgAM9gMbxr6itPPJidd945B6hlAM8Uj2222SYnQyhiGhbBa/FCQRgIYxrUaqutlmOtMF2K6VEMJhm8MnVmzjnn7DhALLFNGNQjrjCIj7oxQGbKyhe+8IU4fY9XBB4G7ng/NDsOLtSlbAhPTFPhvAgu4WVDHZg+1UrMIWYJXhlhhx9+ePr2t7+d45iwuhhT1RAYmNLEVLjZZputbSyUyKvdK3V56qmnaoN76o6XEWIDbXj++eenX/3qVzkbvLMQ6vDwQKShLBirMoUnB1N+ECVYpQnDm2TxxRfP78v/EF3wGpl11lmzpxFxZUbX9ttvv9yPaAP6GN5glJM2oI6INgsssEAWTPA+wejfTPOaaaaZ8mfEjnLfxKNliy22yH2Bvsn0MJjQpjfffHOe0pUPLP1DhEMMQ8ThWkGsoT996Utf6tEPmWZGrCCM/oTggiHE0AfgiuFJs9tuu2XeXEdMSZt++unz1MK///3vOQ3/uNYQiGgf6k+fpJ6IqbfffnsWk8gr6oewiYcRU+non0xn22mnnTIvBJ1VV10159VfQlutoL6RgAQkIAEJSEACEmhJQM+clnjcKQEJBIHXX3+9x3LkTKdC7OCv/MQe75xynJo4Pl5JO+WUU+aPDKiJW8LANgzBAuEC4ShWzEIAwgMoplIxAGb6SngEEW8HryG8QbrVqDd1JegsA18G7QhQYXgiIZg1M7w3yoFqH3jggbzyEUILeeG9wXQhpv7gwdTfVj43QgFiFFOvCHzMQB9vEM6PsEE7IQ4gLIUhYiHyUfdJJpkk4fVE7BwMD5AXX3yxV/sh5CC0IeYgKrSavhfnafVKGxArJtqAfohnVli7NiAdfQzRh9XbMMqFoIGoR93om/TXMNqp/nqg3kxRxNtlpkIgQrxsFtg58uEVMQshBc7ETUKw41qBHe1DPwjjeqU/cQ0hsmL0C8RLhBzKyrm/853vxCH5Gnr11VdrYhI7qAuxcsif6xV+iHkY7UZfoA9qEpCABCQgAQlIQAIDS0DPnIHl7dkkMCQJMIDF+yPi5TAoJ5hrrGA0zzzz5EEtA0fEHNLiTcCAsZ0xQCfuRhiDSaYUIc6EMeBmABqGsMHqRWzHC4HzMqAtD8wjbbe8Mhgu86AOZe+lVl451IFVhJiCw3QgjME8fwzOmXpGe/DHgLu/jbLT5njKINAwiN9ggw2ymMbUI8QcyoZIQx3pL7QJQZ/DCOrMXyPDe4d2Z0WmMDxP+FxmFvv6+tquDaqIEqQhADHeORj1xMOmmcEAr5+ycd1UEW/Kx/Ae7x0ETKZQMaWNgM7NjDagrFwXYYg/CFjBFB54A+FhQ3rKhQBUnipJQHH+mhn5cwx5aRKQgAQkIAEJSEACA0dAMWfgWHsmCQxZAnhgMPWCgSvGAI5VlphygeGFEfsI9MuAn1WqGsWbyQeU/iFolIUahBxWb8JLIgyRoCx8sJ3BcHnaTcRpiWOG2yss8ZJgII8XTBjT1PjD8Pj4xS9+kT0+6nlF+r6+IuYw9YzpbrQxRrsTbJc/jFWdNi48cxAdaEcEmqpGsGQEhW43BBK8Yaoa/bKVx1XVfEiH4MdUKKa4xfS1VsfDk3YI4zqrF/sQCfkL4zputCpZ7K9/pd2qiGD1x/lZAhKQgAQkIAEJSGD0CCjmjB4/j5bAiCDActkR+JgK42nAClTNjLQEusV7pp0xECwHv2WwiddKedDJgLh+wMgx5UE1Ykd4HLQ751DdT4waYtOsueaa6aqrrsreGSGsUCemphGUl6k+ZW+n/qgv4hBeHHhhEQeGYMysVFU2PDg4N54qtEV4bpXTNHs/FIScKHun/ay+70Y+nb4Sj+e4447rIeSsv/76eQU5zoHIRx8Io5xlD6CqwksnXjZDqd2Ci68SkIAEJCABCUhgOBBQzBkOrWgdJDAGCeANQByba4ogsVWNgKo/+MEPcoDcdsfgtUB8jzC8cIi5Uva6IUYJHgbh6cMAkmNiOghTciIOCEJQGOmGw2CTOuAxwfQ1Bu1MTdt0000TwXHxomCJb5arxlOGAMQM6Gcq4qE0887plBFiGsF333777Sy04QFE3JQDDzwwx84hhgsBfzGm7CD60IZ4fMR0JFbZIlhvWSigXvSvKCcBebvdYFf2JGN6GRyYwlS2mDZHfWmzG2+8sby74/fkgXBHW2O0wb777pvmmmuuLJzhLXfttdf2EHMoawRP5hhEWa6juLbgzwpe5El5EQsJ/sw1GEbQagSjuPZie0yt6lTYiuN9lYAEJCABCUhAAhIYPQL/N+oZvXw8WgISGKYE8MJBIAhbaqmlsvcHA/jy3xFHHNFjiWSOQQSoN1aMIuYIxmASb4PyQJcVshABykF8WY2H42KAjKjAADSmmhCMmSCyiALlQSdCAlPE4lwIQHHuvPF//+oHpHGecppG7/t6XKO8Wm2DE4IWS1f/6Ec/yqtAMXhnsE4MlRVWWCGv0BR5UMdmU3s4plNGeEERo4VzEyOHVbPIn3wI4swKUAgBGDFiaHdiszDVLgxPnjJ7vERo1z322COLVNSxWw0hJcoHP1aJiv5Jv0S8LMfFYYogS3sT06iTKUut6s/5y55oBFwm+Dh9kH2cM4SzyIeyzjjjjLWyIsgiykX/pg2YPsnqW6yMhZjGtfeVr3wlssjLmrMsfdSfYwn+TCBmAitHXrUDfCMBCUhAAhKQgAQkMCAE9MwZEMyeRAJDlwCBiJlWE8bKPYgH4U0R24lzg8gS07EIhMwqVcRPKRseHHiOIAAwQDzrrLNqogzeBggATLFCJGAlo1g2mVgwxGNh6hbnIGZPGEGAWckHL4hpppkmNteWV2bKF6IOU8Ni+fFaouINA+LySkmISwzWmaLCikPNpou1Oo5Vf/rLGJQzfYkAx7QFf0cddVRe5hwvCgbViC1heGPUt0/s6wsjRJsQL8iHqT60HV4piBW0RQgJiAykR2Ri6fQI2HzOOefkdl977bWz1w5CTniZEFsnljaPcg7mK+2KZxECFfWCL0t108fgMFPh9cR1QCBo7IADDsiCJ9cFog51jX14wrBy1egaZaJd8ULjHAgzZ5xxRp5ihUh55pln1lat4lxcjxgi52KLLVYrD8vB02a0DyttHXTQQTkd/1i1iu1LFYIt7cN1yvWy3nrrZU8wVu4iZg/nwthPDKX555+/h8dV3uk/CUhAAhKQgAQkIIExSkAxZ4ziNXMJDG0CDAhjQEdNEFsQWRoJBWxjygeDXQayBEHmWKbW1BseNXvttVf95hwLhkC7DFwRLzbZZJMs9DDFiClEDETrbbXVVsuiT8QGoXyrrLJKLZ4Lg3D+WhkCB+eNwTvTWXbfffcsVhAjppm1Og6hoz+NgTReMffcc08ezJ977rmJv3pj+W0G5Y3aiLSUuVNGsEVYY2CPcEN7wKeRMcUKAY/zsMoVIhzTkDD6RaN2Rwxg6g/eRt1g9D/6AqujhUgVfY/pYvCj39FPog0QpkKcijogjNAWCDCjawh6LNHO9LY4Z6tVphB48JphShgxjLgWEQFpg1/+8pe9ivPDH/4wLbTQQrnf4JmzxRZb5HQIR/zhuVNveMThpURbaxKQgAQkIAEJSEACA0vAaVYDy9uzSWBIEWBAiIdNGPE0EFkaGQNgPFgY4IUxeCyvSsV2BriNbLfddktrrLFGbQoQA0QGl4cddlhDQYg8ttlmm7TzzjvXpviwjUE4qyohPtRbs0E1A2UG6Ewj6sT6elwn54i0iDMIJQQ4RlRrZARGxlOCqWqtrC+MOGa77bbLg/xGebOfVa3KbciUHQQotjdrd7xaiMlS9oxqlP9Ab8PDi7hPzcrNfqYa/fznP29YNERN+u4yyyzTUSDohpn9byOeQZtvvnle1aw+Hd40eJGFIdowLYvrkng+++yzTxZLY3/5ddttt83xl/CqwghcjbfbH//4xx7Xc/kYxB7qTrtrEpCABCQgAQlIQAIDT2CswlW+ewMVDDwPzyiBriJAwNvytKGqheOyJqYJUzxigFb12HI6AqYSYwMPHQaFlAWhoNmTeDwBiLvB1CzKwHQpPF4IVPzmm2/m4/hM2W644YYs9MxUTFlhsMlrs9WPEITINzx08PzAC4h4IM3KwkAWDyD+8CxhdSfKD1PyQ4jheDwLeI9RLvbjgUIsH8rKFJVyQNgyn3jf6LhFF100D6bx3iDmCmVAMIq8YMqAG48jjHZCACA+DdNfYiDeiDnT2QhK/cgjj+T0lJM/4tQ04xFlLb/2hRFtDBvKTrviUQNbODYTZKg/XjewgC91x9MIDxDKHPwRD6k7sVyoB32N+tP3Whl9jZhCjz/+eGYdsXwQk1jKvdM2CK+mKDf9gbgx1HXxxRfvMe2Oto/g1JyLPk+58eqJtqZ8XBP0YfjRF5hOSMybsrGPNoUrx+BVQ5+hPmXjWiJuDeflmuFctAHXK3w5dsIJJ8zXSLlNuB9QBtIQvwhhlnIgwjbrN0zJinbjuuEY2i1iVJXL5XsJSEACEpCABCQggdEjwO85pvvze7Tdb2DFnNFj7dESGKMEGHQxmO3UGMwxyBxdMafT85peAhKQgAQkIAEJSEACEpCABPpGoBMxx2lWfWPsURKQgAQkIAEJSEACEpCABCQgAQlIYFAIKOYMCnZPKgEJSEACEpCABCQgAQlIQAISkIAE+kZAMadv3DxKAhKQgAQkIAEJSEACEpCABCQgAQkMCgHFnEHB7kklIAEJSEACEpCABCQgAQlIQAISkEDfCCjm9I2bR0lAAhKQgAQkIAEJSEACEpCABCQggUEhoJgzKNg9qQQkIAEJSEACEpCABCQgAQlIQAIS6BsBxZy+cfMoCUhAAhKQgAQkIAEJSEACEpCABCQwKAQUcwYFuyeVgAQkIAEJSEACEpCABCQgAQlIQAJ9I6CY0zduHiUBCUhAAhKQgAQkIAEJSEACEpCABAaFgGLOoGD3pBKQgAQkIAEJSEACEpCABCQgAQlIoG8EFHP6xs2jJCABCUhAAhKQgAQkIAEJSEACEpDAoBBQzBkU7J5UAhKQgAQkIAEJSEACEpCABCQgAQn0jYBiTt+4eZQEJCABCUhAAhKQgAQkIAEJSEACEhgUAoo5g4Ldk0pAAhKQgAQkIAEJSEACEpCABCQggb4RUMzpGzePkoAEJCABCUhAAhKQgAQkIAEJSEACg0JAMWdQsHtSCUhAAhKQgAQkIAEJSEACEpCABCTQNwKKOX3j5lESkIAEJCABCUhAAhKQgAQkIAEJSGBQCCjmDAp2TyoBCUhAAhKQgAQkIAEJSEACEpCABPpGQDGnb9w8SgISkIAEJCABCUhAAhKQgAQkIAEJDAoBxZxBwe5JJSABCUhAAhKQgAQkIAEJSEACEpBA3wgo5vSNm0dJQAISkIAEJCABCUhAAhKQgAQkIIFBIaCYMyjYPakEJCABCUhAAhKQgAQkIAEJSEACEugbAcWcvnHzKAlIQAISkIAEJCABCUhAAhKQgAQkMCgEFHMGBbsnlYAEJCABCUhAAhKQgAQkIAEJSEACfSOgmNM3bh4lAQlIQAISkIAEJCABCUhAAhKQgAQGhYBizqBg96QSkIAEJCABCUhAAhKQgAQkIAEJSKBvBBRz+sbNoyQggUEk8Oyzz6YnnnhiEEswMk/9/vvvpxtuuCE9+uijIxPACKn1ww8/nF544YURUtvBq+aLL76YYD0U7c0330wPPfRQ+uCDD4Zi8S2zBCQgAQlIYFgQUMwZFs1oJSQwZgkcdNBB6a9//Wuvkzz55JPpwAMPTHfffXevfWNywy677JI22mijlqc48sgj06mnntoyzVDZ2Q11OeWUU9KCCy6YNthgg3TCCScMFXSWsw8EVlhhhXTYYYf14cjRP+SKK65Ie+65Z/rkk09GP7Muz+GII45IsB41alSXl7R38f7+97+nFVdccciKUb1r5JahTIAHDBdffHHimtIkIAEJjCQCijkjqbWtqwT6SODoo49OV199da+jn3/++fSHP/wh/fe//+21r782cN6f/exn6dVXX+0oy3POOSddcMEFHR3TrYn7Updjjz02D4r7o04MrBHtZp999nTppZemX/7yl/2RbZ/yQECkP9x22219Or4bDuprn64ve3+2cX3eg/X5uuuuSwiHb7/99mAVYdDOOxz69qDB88SDQqC/7mV9LfyHH36Yv+eWW265/L3Q6KFTX/P2OAlIQAJDgYBizlBoJcsogRFMIJ64vfPOOx1RuPzyy9NZZ53V0THdmrgvdbn11lsTT8/7w/C8gv96662XvvrVr6ZJJpmkP7LtUx6vv/56fgL7zDPP9On4bjior326vuz92cb1eQ/W59/85jfp3nvvHdQ+Nlh1Hw59e7DYed7BIdBf97K+lv7Xv/51Fn+322677CHMd6UmAQlIYCQR+EzhzrznSKqwdZXAUCLwxhtvpM997nN9KvKnn36aPvroozTRRBP16fjyQUy5mGOOObJbfXk7A2q8RpZffvk011xz5V1465x//vnp8MMPzzEVPvvZz6YvfelLaayxxqod+s9//jP98Y9/TKeddlp67LHH8rHjjz9+bT9v8AbZfffdE0/qiS3B3yuvvJLmmWee7HHDwOdrX/taPs/ZZ5+dj51hhhnSuOOOm99zfjyG5ptvvvyZ/G666aZ04oknpr/85S+ZDeWacMIJ8/76f8cdd1y6/vrr0yKLLFLb9be//S2ddNJJabHFFkvjjDNOLmO7PF966aUsKuH+TbyZ8cYbL80000w5T57E77///nmaBfkyfWm11VZLY4/dU2evr8uuu+6aY1Xcd999iSlY11xzTZp44onTtNNOm3niRUO5ODexTyaYYIIEGwwmTD/Do+rf//533j7ppJPmfeRDvanb73//+3THHXdkj6g//elPOUYR3hJsm3/++TO31157LR1//PH5mNtvvz195jOfyWXgNeypp57K9T/qqKPSVVddlev25S9/OXbn1yr9gYSci75Fn3n55ZfzoH/ppZfOedA/6ItxHspKny33u5yw9K9V2Vq1TSuGZN+MC/ua9Wn2teor7A9jANWqjeHM9XX66acnrpMpppgiff7zn4/Ds9cLQl/0Sdpr6qmnzu1OIq73ueeeOy277LL5GPoS/YV6zTnnnJX6fe1kpTdRbvrqdNNNV9tDfzz33HPTUkstlS666KJ05plnpmWWWabWds14c6/Zd9998z1u+umnz/kRg4ZpoTPPPHOKfs11d8wxx+Q6ce6yNerzSyyxRE7Srl9y/VFWPKS4N00++eQ1EerKK6/MbcD9g2se+89//pMOOeSQRFlJi1fDPffckz0KaK9mfbvKPTWfoME/7nt//vOf873lkksuyfc92pp7Ahb1hxfXDvdH2pkylr87HnjggXTooYcm7gXEyuH7Ba4/+MEP0pRTTtnrzORz4403ZhGYexTC+tNPP53mnXfefN+BGf3zvffey/eM8n0YTtyHuB9yrdNm3KvDWt3/4npvV2/ywtuTeyvnuvPOO/N1Qt+nvWacccZ8Ojw/mL4DG7w+uJ74rqu/R5OYY7mu6D9RDoRwttMX4U6MIfKjvblf8R1KfvG9VaXfwPbaa69N9AvuA0zTQ2QPo+577LFHvvfzHRkW18FXvvKVfD9odp+K+3crzrR/q3tZuzakjHznwZXrgHPCjn7Gd3xYq2uQuHl4if70pz9N22+/fe06i2MbvTZj166dKW+77/p230FVflM0Kx/fZ9wfuG545fuPfhNtRV1bsWJ/q/sV+zUJSKB7CLz77rv5e4Hvmvg+aVa6niOGZqncLgEJSKACAX4cI+wccMABeSBw3nnnpdVXXz3/AInDGfwQ74YfrXh78GMaAaNRIE1+YH388cf5UIQp/sIYbK+99tqJATmDPabeMGgIY1DIQCWMJ3jEe+EHDefixx/xKppN36J8TCkqGwMvyh9lapcnYty6666b9t577zz4QQz60Y9+lH+MkS8DQPLbbLPN8sDmrbfeKp+u9r6+LgzOtt566/xjmsEQ+a6//vr5xxw/7MuceB/lxePh29/+dh7EI9gwnQX3dAZnGBwpD2VEEIATx0Z+8Z5zIBLBD4GFQR/CEMeV4+kw2FhjjTXS7373u5wPU6O22GKLLAxE5TrpD3F+jmUwQf/AGJTgNYRXB+Lnc889l3/k77DDDnl/o3/tytasbdoxbMelWZ9u11fKdWjVxgyOfvzjH2eRABYIG7Q5Pwwwglivueaaadttt83vuR422WSTtPnmmzeM3cIgl771r3/9K1/b5NGu35OmkU0zzTR5IIsgEAYP7hcMTvjBglhI/w5rxRtBhIExg+IwBAv6FNdEGGIv6RC16q1RnydNu37JwO473/lOuvDCCxOCNeInYlRM/4uBE7zD6HPkS/+st2Z9u8o9tT6v+Ew/2XDDDfN9gv5FH/j5z3+ettlmm0hSu+a5D4T4stdee+U+FImoyyqrrJKFNoQVvB8QoVsZ996DDz449zOCJXPv5DPX6VprrZX7E0LGr371q7TjjjvWskJwWHnllfM9kval7b73ve9lsSUStbr/kaZKvfnuWXXVVfN3E/dCxAe+h2ifBx98MJ+Ke8zOO++cvyviewYBg5htjYy2Pvnkk/N3TOynb5InYhSCAHXlvgQTHmAgxtCP4t5fpd/wgIPvTb7DHnnkkV7fnQzwYYvQyTnDEAq4DqaaaqpK9+92nJvdy6q0IZ40++yzTxawqTv3H1ggUoW1uwa51rGFFloo8+B7lvrRbs2sEbsq7dzunlflO6jKb4pG5eP7d8stt8zXCu2N6E9d+d0QdW3Hqt39qhkvt0tAAkOAQPGlp0lAAl1K4PHHHx9V/GDq+K8YhI8qfqyOKr70+6VmxVPbUcUPx1553XLLLaPYV3i65H3FQDJ/ZjtG2b/5zW/mPz4XT9Ly/mJAP6oYvLBpVPFjPW8rntzmz/X/iieYeX8h3tR2FWJQ3lZ4ztS2FT+IRxVP82ufl1xyyVGFeJM/Fz+GcvpiIFHbz/koe/GUq7at/GadddYZVYgV5U2jigFMPqZ4SjaqSp477bRTTl8MZHI+xY/9UZRrgQUWyPUvBsp5f/F0exT7mlm5LqSh3ORRDArzIcWAL28rnsbmz/wrBug17rGRtuC44sdz3kT/Iq9igJc/F94L+XMxMB1V/EiMw0YVg7y8vXhyWttGu5Ef+8LgS/6wwYonpvm4YkCeP9PmhbiTt9FH+9IfCtEoH19uN/om9Siegufz8A8WbCt+HNe2ld+0K1uztmnHsAqXRn26XV8plz3e17dxMXDLfbYQcyLJqJtvvjlzKAZmeVshluTPhVdOLQ3tD6tiwJq38b4YZI+i3QoPndxni6fOeV+Vfl/LuMGb3XbbLZ+LawijfThfIRDkz7E/+l873oWomftcpOceQH7cDzC2U4fo43lj6V+jPl+lX3LNch7us1ghiObPtCNWeGPkz4VIlT/zr/BAyNsKoSNvq69ro77d7p5ay7zBm0KUyNdo4VVV21uIALkMlBeL+lPesP322y+nKcSnvIn+RF0LwSN/5jreaqut8ra4tuPYeOXeyzGUAaNvch9jG3UKo5+xrfB4yZtgQhtyT8PoJ+wvxPr8mX98bnX/q1LvuAYLYbGWbyF25LzZh3GP4Vxsx+hLhSdI3lZ4gOVt5X+wIH0hSuTNcKKchXiVP8d3XSF41w4rHhj0OKZKv4nvv+hHtcxKb4oHADnfuD8XYl7+XAh1tbK0u3+340xGwbH8/dyuDaOf04foF9hdd92Vy8c9DatyDUbfoZxc47zy1+i3Ss60+NeIXbt2rnLPq/Id1O43BWVsVL7ioUuuV+HBWPtejt8ihUdsJVbt7lfBx1cJSKA7CDB+4/cFv5XbjQP1zBkCgptFlMBQIRBTHZg2gXs5Twhx/Y2nbcUPtlyVRRddNC9vjUfIrLPOmrfx5LYTY9oQ+YQx9QmXfJ5A1xtPXknPOYofbjkNXj08jeWpaF+sSp48ZSt+XOYnsNQVbyKmXeD1wdO1MLx36qeZxb5mryuttFJ+wsp+XPiZFoMXRTPjSS2eAUxLwjOA8vBkdbbZZut13Pe///22bp08XedJPsfTrrQxT3ypG14WGNPUvv71r2d3cD7TH377299mD5riCyofx/bR7Q9wpn3LUwrwCMLY18jalS2OKbdNFYZVuETe5deqfaV8TP173HHxmmBKEe1L+4RHDk/8MaZ6YExpwHuCPsATca4FpumF8QSYujMdh+mQX/ziF/OuKv0+8mj0ipcFFvcEyoFnSzHQ75W8Cm+mY9HnqG8xAMz3ALxRioF19k5gahdeGDEdr9dJ/reh3Oer3KdmmWWWfGQxmM3XNVMH8fLB26A/rd09tdW5uDbpA+GRyL04pvPQ3mXjfhi28MIL57f3339/9nLBo4D7GNNzMK5jvJDaGdckZcDom3j/YHiGhRWCQn4b5cEriPPhrUFMKKZvkgeeYWVrdf+rUm/yxfAkDYtphfGZ82NMDaN/MYWP+xkGm3pj2guc8EgthgP5+4a+iXcqVjzkyK94HoUFEzwhOzHYNrpmIo+oS8SQiestvu+q3qdacY5z1b+2a8NoS1ZDi+lqMMYTK6zKNci0PawQj3L/4PuP9uQ7vtV3YT27du1c5Z7Xl++gqGv9a3358FbEvvvd79a+lzfddNP8PUr8uiqsBup+VV8XP0tAAmOewDhj/hSeQQISGCkE+JHK4IkYAbhA8+OMQVLxBC4PImJAiat6vT377LP1mzr6HHEp+BHdyJivHi7u7CeuAa7LuGj31VrlSWwFxBOMH631xvz6/jTEIAatzSwGS7j9l6elNEvfbjvu+0yRiLwYkJfPj6DD529961s9smLAwx/WH/2BwRJ/DDrKFudAQKu3KmWrP4bPVRi249Io3yp9BaGsijFIZQpV9L3yAInjEXNYnY5rkOlVGINrpj2UxZyYLsRUrfq4Xa36fc6wxT/iLVEXpjByXbDiHNNbGomZVXiHoMtAuXiCnoWh4il5nkKIWIXwgEW6FkWr7arSL7mXMLWCODL8EbNk4403TsXT91o+/fGm3T213TkQ4pgignGNVrG4lxaeKHk6EMcsuOCCVQ5tmSbaOOL1kDjOFfdtRG5ioMQAlf7L9c0At5XV3//a1RtBm7xD3GyUd4gOZfEp0jW7f/N9x7RS+lAINHH/5wEH9Shfy4hrCI2F11Zk3S+vTH1FsCEWFdc6og7nDjGqL/cpClbPuVFh27UhU1GxKEujPKpcg3y/UKe4j33hC1/IMZyuuOKKPO2Xe00Vq9LOre55ffkOqlKuSMNDKB7WlOOe0XcRaTFiAGKtflcN1P0qF8R/EpDAgBJQzBlQ3J5MAkOXQDElp1fheXKOxY9zBk7ErvnJT36Sn0Iyf52BI0ENiaUSgwnEnnLARvKIfbwfE8ay2sSeQWziyS/BN/E84MduBEmuP2/hJl+/qcfnVnlG/b7xjW/k2AU9Diw+8MQdLgNlEcyUH74MOMrWLrhaOW28P+OMM7KQQ/wH8iMeCR4hxD/BQgBo1G8ij2jz0ekPcZ7oi5F3iIONBmtxTKuyRT7l1yoM23Ep5xfvY5Dbqq9E2laveOEg5GCIJXiLcE2G91sci/DFE2wGl8SWITbGZZddlq/ZqCNtQ3wjYu4QN4TrOPpJq37f7FqKc/Mknv5Cm+M9xYAsvAUiTbxGWVr1WYLvMtDB04r4MsR2YdCDCMIAdrLJJsvXN69VrUq/5Ik4MboYuOLxAkM44VHCU/OwECnic6ev7e6prfJjQIyQg5iA8Mo9B5GEQX5Vi4DRIQ5WPa6v6YrpkbmMfF8gtNMWeFo1EmWbnaNKvekP9H88BOP6q88v+gEPJvDOKFuj+Evsp/8h5uBxxnF4MIWgymsx7TF7w4WIxTF8D+DRU7bR7TfkhUiK2I5XDvcDRM64hvtynyqXr9X7dm0YqyEiqkeg6fr8gn2r7wZicNGf8caNPMOTrfxgoT7v+s9xrlbt3OqeFw8OqnwHtftNUV82PtPX8ARDgAtxupwuyt+KVdX7VTlf30tAAkODwNhDo5iWUgISGEwCDDL50VT/g5rgn1i48DKFhoEXP3x52sjKLUwr4qkjT835QYQxHQFX+PjjCXB5tZKcqO4fafpq/FhmGgHiEmVFbIoAnkxDaGT8uGbaVkxTIU0IBLxvlyers5AHLtIMOKOurOLDD/kQwMhrTBnMw6KNYtpClIcfgjGFJtJWeWXwjDHQioENQlkYAyTqz0CXH6FhrIrE4JIAoKPTH+JHMSwRzvDCKLcVgyasvDJKlKFK2SJt+bUKw3ZcyvlFnx6dvlJuY/org24GcTDhOiRwa9kY3HEtkBbhhWCuBNJk8BNPw0mPwILnGoFJEUXwdMDa9fucqM0/BrxYEV8mD3SLuCINj6jCmwOZqsLTeK61mDZDH6MtEHBjKkvDkzTY2K5f0veKGBRZuOTaQZQimDgW3hjhScL0nLDwSIjPzV6jb7O/3T21WR5sj6lEiGeUh4F8CJhVxQIGj9wrmEZSH8y51bn7ug9REY8Nvj+4NxHgvX6Q3C7vKvWOFfUI3B5W720Tg3REh7hf8kr7xEppcWy84t3Gdx5CH9cYU2PCIr+YNsN27plcs3ENjE6/ifPEK9PlEJC4zrCyaNrJfSrya/Ua9zLStGvDEJcJyhuGCFruX+2uQY5DxMVi+hrvI89mIhFp6i3apVk7t7vnVf0Oavebor5c8ZlVGbk/U44wgkyTjMiGAABAAElEQVRzj6O+7VhVuV9Fvr5KQAJDj4BiztBrM0ssgQEnwKAOw5OFVTQYECLa8AOfufnxY4gfsgyqeUKNgMPTPwbVuOjjTs7qRwwyecrPD0zSkB+r7YSrcH3l4ocKg8nyD+/6dK0+8yOKKRsMjPDI4bys7IE1c8WOQSHz8flxuueee+aBYZynSp64NmMM9mDB01FWc+Gv/MM18uzPV34A4v5NWzGAQyxDeOFpNK/UiRUwiGES0zA6OT9LVGOIAcQowEOHc2ERDwgvEX6EMk2B6TR47hCfBUEL74m+9IdY1p1lgulrDEqDM9MzEI8oB21NX2s2kG9XtlyRun9VGFbh0qhPRx066Sv1bRxPpYtAq3kJ6ZOKpX+5ZrHwrGAwymCS6w+G/NE2DJxjkFWuNu2KmMvTduLQVOn39C+Oa2YMpBmI0T+5FiJuRn36Krw5JpYS533EYClvK78nTTtr1y8RyRDg6M/cv+hzLPOORbyZiGeCZxMiMtM08I5pZY36drt7Kl4XTGWkbeot+hnTwLgmWHEr+llco/XHNPrMdYUxXRbRjBXTEOrHhNHXuEdRZr4T6EuIIjxIKAsGrc5dpd6s0IaxtDXtw9LpeKKVjVXhML7/KA/fG/RrxMhY8aqcPt5zDYdF7Bo+R37kgUcc+bEqIcZKgFhf+k0+sME/hDiEW64zhNuywFHlPtUgy16bgnX5+7ldG+KthGhFH0IE5R7E74myN027a5CCcO/gvsUS6rQh1yJeUQhYZe69Cl23IdqlWTtXuefFddXqO6jdb4q6YtU+wgaL1SK5Ln7xi1/kh0s8rGjHqsr9CqGIa62vv7FqhfWNBCQw8ASKH8KaBCTQpQSKQXjbKOaNopwT/bz4YdRvq1mBpxAiRhU/NGsrRrBKB6srFE9Oa/QKD4y8iksxUMvpeC1+5IwqfojX0hSDytoqR8WPpLwKReEeXFuloZbwf28Kb4tRsRIDr1jxoyaX5X9J8kvxYzufM1ZFoaysDBHG6iPFj+xa+QsRY1Qh7MTuXq+ct1j+s7ZKBit/xEoTsMWq5MlKGbCirvxRhiK4bD4+Vkxi5ZFWVl8X8mHFkLIVUydGFaJYbVMhXuVVYUgbq8ewYlasghHlYTWgWFno2GOPzWWMVbIis8J7KW8vBnKxKfcvVkaJtqaMlIl8oz7F4CszjjTsY9WP4EdmnfYHjonVdsiveOrIplHFj/kenAtvk9pqXzlB3b92ZWvWNu0YUrd2XBr1aYrXqq/UFT9/bNTGhcA6qhjk5HaATyFCZi60TxjtSH9mP3/FYKHHqmRsK0S6SD6q8IzI7UwelL1Vv4cr/b0Y1NSOb/QmVmgpvPR67C7iPuQykQ/Wjjdp6AP0sfpzUi/Kwn2pmTXr8+36ZeFZNqoQBGsMYUO/5N4bxv2R7cGZFZl4Txth9XVlW33fbndPjRWSimkYHN7LiqWya/cBGBUD6FyGuH80qn/x1D+nKaaj5vxoC1Y/i3qQT6zqxApOjYx7JXUvG6s8kQcrK4UVXl95G6uuYY899lgPrqyKxf2e4wrPyJyG91H+vKH4V3//a1dvjiu8qGr3L/KMFbpiNSvSFPFU8n2V/fxRJ8rcyvgOivzq08GL+3TkR7mj7pG2Xb9p9P0Xx9a/FoP0fK5CbOmxq8p9ijK249zoXlalDUlT5sC1y/m4ZsPaXYOkKzzf8sp1wbPwPhpVf0+J/Hhtxq5dO7e650X+7b6DqvymaFa+Ikhz7TqmrvQbVvwKa8eq3f2Ka51847s78vVVAhIYHALFA5fKq1mNRREHXkLyjBKQQBUCrM7CvPBOjcsa19rix0NtCkyneTRLXwz8EwFbeWoeK6M0SovLOk/IGs3xJj2r6DDXveoUH1ygid8wutOTcNvHK6aZm3x9XSgnLuDUpZlVyZN4HjzN52+gjH7A1A4Yl9uhGJxl7xmmR5W396VcTKEiEGxMtWqWB+UgTkWzPtNpf2CaFlYOCsln+gnbyjEp2N7K2pWt0bHtGFbh0qxPd9JXmrUxbcJT61YcuI6ZctbXPtmo3zMdE08sPLbiiXcjfp1ua8e70/yqpm/XL2lnPB+YStnIaB/uhVyDzTyQ6o9r1rcb3VM3LoIu4yGJpwhP4JsZx3KNVi1Do3z4Tom6RuyVRun6YxvfXbCN+FZ9zbNVveFM/pEG75xCvMhTpMorTnFuvvcoT8RmaVUepisypSmmlDZKy3cK1qx+fek3jc7TbluV+1S7PNjf6F7Wqg1hz32aex3f6UylY9oQHlOshlW2dtcgafktQZ+s/z4o51Plfbt2bnTPq8+33XdQld8U9XnGZ+7ZXOcRyyq2x2s7Vq3uV0zZbfb9HPn7KgEJDAwB7iPEDeR6b/d9q5gzMG3iWSTQJwLdKOb0qSIeJAEJjAgCTD1i6gRTClldRhtzBBhYMsUVASKmYoy5sw2vnJmWRjybfffdNy2++OJ5GXGm6DCdizgkPKzo1BgoFx4neTod4gTxk0b34UOnZRgK6RF5mP6KYPbDH/4wP1hA+GLaLIGviZekSUACEhjJBBRzRnLrW/dhRUAxZ1g1p5WRwLAnwICWp+1VPe6GPZAxXEG8yvAKavfkbgwXY8hlj5cR4k3ETqMCeLIRd6WvYgIrmhG/BSumSqVFF100v/dfbwIRZ628h1hCxGXSJCABCYx0Aoo5I70HWP9hQ0AxZ9g0pRWRgAQkIIEuI8B0J4K/4kFDYG7c2vtqTz/9dCpir2QRp+o03r6eazgcx5QgVrbEwwz2TMPVJCABCUjg/09ddZqVPUECw4CAYs4waESrIAEJSEACEpCABCQgAQlIoAKBTjxzXJq8AlCTSEACEpCABCQgAQlIQAISkIAEJCCBbiGgmNMtLWE5JCABCUhAAhKQgAQkIAEJSEACEpBABQKKORUgmUQCEpCABCQgAQlIQAISkIAEJCABCXQLAcWcbmkJyyEBCUhAAhKQgAQkIAEJSEACEpCABCoQUMypAMkkEpCABCQgAQlIQAISkIAEJCABCUigWwgo5nRLS1gOCUhAAhKQgAQkIAEJSEACEpCABCRQgYBiTgVIJpGABCQgAQlIQAISkIAEJCABCUhAAt1CQDGnW1rCckhAAhKQgAQkIAEJSEACEpCABCQggQoEFHMqQDKJBCQgAQlIQAISkIAEJCABCUhAAhLoFgKKOd3SEpZDAhKQgAQkIAEJSEACEpCABCQgAQlUIKCYUwGSSSQgAQlIQAISkIAEJCABCUhAAhKQQLcQUMzplpawHBKQgAQkIAEJSEACEpCABCQgAQlIoAIBxZwKkEwiAQlIQAISkIAEJCABCUhAAhKQgAS6hYBiTre0hOWQgAQkIAEJSEACEpCABCQgAQlIQAIVCCjmVIBkEglIQAISkIAEJCABCUhAAhKQgAQk0C0EFHO6pSUshwQkIAEJSEACEpCABCQgAQlIQAISqEBAMacCJJNIQAISkIAEJCABCUhAAhKQgAQkIIFuIaCY0y0tYTkkIAEJSEACEpCABCQgAQlIQAISkEAFAoo5FSCZRAISkIAEJCABCUhAAhKQgAQkIAEJdAsBxZxuaQnLIQEJSEACEpCABCQgAQlIQAISkIAEKhBQzKkAySQSkIAEJCABCUhAAhKQgAQkIAEJSKBbCCjmdEtLWA4JSEACEpCABCQgAQlIQAISkIAEJFCBwDgV0phEAhKQwBgjMGrUqPTmm2+mt956K4033nhp8sknT5/5zGd6ne/1119Pr7zyShp33HHTVFNNldP2SuQGCUhAAhKQgAQkIAEJSEACI4CAYs4IaGSrKIHRIfDSSy+lSy65JL366qs5m7HGGisLKV/60pfSrLPOmr761a+mCSecsM+n+PTTT9P111+fttlmm7TJJpukbbfdNn3+85/vkR9p7rvvvvTTn/40LbvssmnXXXdNX/ziF3uk8cOYJ0A73H///em8885L3/72t9P888/fUHgbEyXh3M8991y6995707PPPpsmm2yyNOecc6aZZ545jTOOX2Vjgrl5SkACEpCABCQgAQl0LwF/AXdv21gyCXQFgffffz9dc8016brrrmtYnj322COttdZa6bOf/WzD/W4cmgRo96uuuio99NBDaaGFFsp/H330UbrlllvSySefnD73uc9lMWUg2v2TTz5JN998cxbxnnzyyR5ADzjggPTd735XT60eVPwgAQlIQAISkIAEJDDcCRgzZ7i3sPWTQD8S2H777dOJJ56YjjrqqLTuuuvmnA866KA8wGfArQ0fArTnf/7zn3TYYYelZ555JuEZM8EEE6SVV145HXnkkWnNNddME0000YBUmCl4V1xxRULI4byISZtttlk+N9uZfqdJQAISkIAEJCABCUhgJBHQM2cktbZ1lcBoECCWzTe+8Y208MILp7HHHjstueSSaeqpp06///3v07/+9a80++yzZw8eBtYM+m+99da04IILph/+8IeJuDg33nhjuuCCC7IwgCDwve99Lx9fLtKDDz6Y/vjHP+Z8mEaFYLT44os39br48MMP07///e+c79VXX51WW221tPrqq+fpX2+88Ua69NJL8/QwpoTdc889Od13vvOdnOadd97Jnynn97///SwSTDvttIlpZB9//HHO99xzz83lXmmllXJ5qWOjeD7UAcGhWR0RRu666650ww03ZDYwoq6IY1/72tfyOYPDBx98kPM544wzsnhBnSaeeOJEzKBFF100TTfddOnyyy9Pb7/9dlp++eVzXTn33/72t/Tiiy+mpZdeOs0111w5zxdeeCH94x//SGeddVaelkZeyyyzTM2L6uWXX87HUc8vfOELmctSSy2VYMNUKs6DnX322TmuEVOr/vvf/2ZvHaY2ReyiVnV/7733Em2Dhw/pmSJ12WWXpa9//eu5vRZYYIE0/vjjZ7Ho8ccfTxdeeGH+o+9QXvbTf2abbba0ww475PJ/5StfydOsyJfpf5xDk4AEJCABCUhAAhKQwEgioJgzklrbukqgHwkQiDji1rz77rt5QI2YwUA9DHHk+eefTwgTeFOEEffktttuS7vvvnuafvrpY3OOnUP8nDAG64ceemhaccUVY1PtlXMiDu222261bcccc0zOd5999slxdxBPyuUh4Zlnnpn/agcVb/A+QfhAXEHUuPLKK9OOO+6YRQ3SHXfccTmf/fbbL083qhd0iCv0hz/8oWUdyZ/zhDE9CUEGoQIBCUNE4txbb711JEsHHnhg7T2CxhRTTJGnvCGOIKxhTH+6/fbbE6LMPPPMk4WRRx99NP3ud7/LQkpkAE+YI5IhdpH3+eefH7tzvsQtQmxDBOIcGG1FeRF6nnrqqVwP+CC0tas7fYQ4O0cffXTtPLwh7zvvvDOXYd55580xkSjb3XffndPhhUN9YI7wt/7669eORxzDW4g8VllllZo4VUvgGwlIQAISkIAEJCABCQxzAk6zGuYNbPUkMCYIIB4wBQfhAZthhhmyd0Wca7755suDcESYa6+9NosceIwg6Jx++uk5xgnCAp4fiDJheP8gMDCIJ9gxRvBlPEjKxpQfPHLwCsLbg7gpHMPUmzvuuCOfk5gvYRtvvHHef8ghh+T0bN9oo43yNqaMEUSXWDBPP/10FifwDiEmDOVFoPrlL3+ZvWTw9GHlrbLhSYNgRNoqdeTYH//4x+nggw/OXjYh5LCdev71r3/lbQ4Gfc4552ThhPJ1Ygg1CGgwJp4RAhZiE8Gqqdtjjz2WxR+EHDggoHEu2g0vHryAaIcQUH7xi1+kPffcM0055ZQ9itFp3fG2Oemkk3IfQBiiHIhDeAIRnwch57e//W1uiyOOOCKvbEa5EG7CEHIQrhDGEJjw3kHg0iQgAQlIQAISkIAEJDCSCOiZM5Ja27pKYDQIMDUoBvflbBZbbLH0rW99qzYVCkEGrw28RpgCw3QdBt2IBqSN1bCYmsUUJ6buhDEFarnllkuTTDJJ/kOYYeoN58aDJQwx6YEHHsjbN9xww+yNwlQdphdxLla+okwY5UFUwvtjmmmmyVPFCOjMefBiQYhiVSbEIKYL4UnCufAownNk0kknzR4prJzEql2cp2wcQ12q1pHybrnlltkDqJwP58R7h2lMTGfDe+bLX/5ynkZFORA+ygzKx9a/RxRCGEHoWmGFFfJ0NsSpueeeO4s2MMULCMNrhilonGunnXZKiGAzzjhjnsZE3TGYMKWu/vx4FrWrO9O6whCWaBcEGYIq0w4IR5SFbRgiHaukMZUKryyM/hD2yCOPJOI0ISbuvffeOb96T6lI66sEJCABCUhAAhKQgASGKwHFnOHastZLAmOYAN4iiDuIBUynQogII6YOog2xTBBi8Ohg+hLb+GPpcT6zr+yZE8eRD8F1EWKYLlROwz4G/+Gtc8oppyT+yobAguBTb+QfA3/KgUWZeI+ggHCxzjrrZFHh8MMPT/xhLJ2+3nrr9Qr622kdiTVDORoZQgqeP8TmIU5OXwzBhfrDFkEqAgWX8yLWEGIK8YxOO+20PI2K/YhILA2P6EWadtZp3cusgwHMaWtEPcQ7RDX+MFapwkOLZcgx2pTYQ6TbdNNN8xQrBDZNAhKQgAQkIAEJSEACI42AYs5Ia3HrK4E+EkBYQdiIAMhVsgnxhEF/edoTA3jEArxZEDcaGWkYvEea8CSJtCHG4G2Cx894440Xu/Lgv/y5tqPCG8pDcGemG+F1QmBhplEx7YfybLHFFnkKVmQ1OnWMPOKVOETUl2lHVcSUOK7+NdiwHW8YxJkw9hEQmr+dd945CyYs+820LESSPffcM0+xQlBqZ/1Vd8o0xxxzZMZ45lx33XXpT3/6U7rooouyIEhcJGIr0QcQqTACKPdV8GpXL/dLQAISkIAEJCABCUig2wk0fjzc7aW2fBKQwJAggDDBIBwPEaZFEWOFAfnDDz+cp8kQ0Lc8hQYPHAQTYuIQJ4XpUggReGaUBQqEGqZHYUwJwkNou+22y9OXEJuWXXbZmjdHJ6DwamHqF3kwlQfvFQSs448/PossTHVCaClbp3UsH1t+T/1ggWcQrIglg6AFszgnaRB88GRB1GA7rHhlShtGGnjhLYUtscQSaauttsp81l577VwnuBNYGCEMDycEKuLn4JFEHWMp8jLznFndvyp1xwurnRHsmDbEU4j6I94QK4kYPvSV1157LU/xwguHeENMIVt11VVrXlbt8ne/BCQgAQlIQAISkIAEhhuBxo/Eh1strY8EJDAoBIjTgpjAtJnf/OY3OR4MQkxMo/nmN7+Zp1xF4QjUizBBfBaC9yICsdQ4AW6fe+65SJYFDYLpcjyDfpbkZglrVlYiYO7mm2+ePVJqBzR4Ux//hSSIF5yb2DsXX3xxFlOIrYPHCuViWXCElLJ1WsfysfXv8ZZBSOJ8v/71r3M8GAIwI7CEcX6EGsoTggyswmOFOpAPqzzddNNNedoUQgnlJNAx07j233//HAyZPFlB6oknnsjtwBQm4uxwPB5KHIP9+c9/ztPoyLNseMZ00r7lY8vvmXLHEu2sGoaQw3Q26kN58LqKKXqIfQRQJtg0Qa85d0ybK+fnewlIQAISkIAEJCABCQx3Aoo5w72FrZ8EBpgAniNhDLQXWWSRtMcee2QxB7EmjBWimM5UP80KESVs+eWXz2IOHiD1hkcOqyyx6hKiBctnYyuttFJe4ajRMfV5NPqMmMPqV4hHrF7FH8ZKVWuuuWZN4Ihj+1LHOLb+lTIzLQqvHDiURZxISxpiybC8O+IMgYCJX4SFoEOQZpYXD8GHFcQwjkUswSNnpplmyitmnXjiiVncyQmKf4huiFkTTDBBjqHDCliIKuRZXiIe0ahK3auILYhGLD9OcGNWSIvlyakXS6WXp4khwlFPPIrwSqqSf9TNVwlIQAISkIAEJCABCQwXAmMVP4z/b4mY4VIr6yGBYUIAj4nyQLZqtbismc6EJ8PoLtvMNB+muTDlh2lAzeKUMD2KQTbp8KQoiylsw3sGgQSBgYDIs8wyS/awoax4ixC0FwGBfEiHKMRUqpiGxapH5M92vEciJg7LcLOkODF58ChhHwJRo/LABBGgXBfes430nCu8Uag3nkHsoz54w1C+Zla1jpSb+EOtRAjqhKBD3Bw8cRBj+GMZdQJOcyxtQho4I0CxshTpy3WgTEyZwmOJsjPljfrF9CnYwxV+vKevUbbyfupPP+R42iymfTHlidWuiJvTqu7sYwoYx1FWWHIuyk8sJerHtsiHsj777LN55TA8oaI9gjt9hWDbtEe9l1Sk8VUCEpCABCQgAQlIQAJDkQC/vfmNy3gmfpM3q4diTjMybpdAFxDoBjGnCzCM6CIg7LBENwGBy2LOiIZi5SUgAQlIQAISkIAEJDAMCXQi5hgAeRh2AKskAQlIQAISkIAEJCABCUhAAhKQwPAlYMyc4du21kwCEhgGBJjeRIwcYvYQJ6idu+UwqLJVkIAEJCABCUhAAhKQgATaEFDMaQPI3RKQgAQGkwCBh1miW5OABCQgAQlIQAISkIAEJBAEnGYVJHyVgAQkIAEJSEACEpCABCQgAQlIQAJDgIBizhBoJIsoAQlIQAISkIAEJCABCUhAAhKQgASCgGJOkPBVAhKQgAQkIAEJSEACEpCABCQgAQkMAQKKOUOgkSyiBCQgAQlIQAISkIAEJCABCUhAAhIIAoo5QcJXCUhAAhKQgAQkIAEJSEACEpCABCQwBAgo5gyBRrKIEpCABCQgAQlIQAISkIAEJCABCUggCCjmBAlfJSABCUhAAhKQgAQkIAEJSEACEpDAECCgmDMEGskiSkACEpCABCQgAQlIQAISkIAEJCCBIKCYEyR8lYAEJCABCUhAAhKQgAQkIAEJSEACQ4CAYs4QaCSLKAEJSEACEpCABCQgAQlIQAISkIAEgoBiTpDwVQISkIAEJCABCUhAAhKQgAQkIAEJDAECijlDoJEsogQkIAEJSEACEpCABCQgAQlIQAISCAKKOUHCVwlIQAISkIAEJCABCUhAAhKQgAQkMAQIKOYMgUayiBKQgAQkIAEJSEACEpCABCQgAQlIIAgo5gQJXyUgAQlIQAISkIAEJCABCUhAAhKQwBAgoJgzBBrJIkpAAhKQgAQkIAEJSEACEpCABCQggSCgmBMkfJWABCQgAQlIQAISkIAEJCABCUhAAkOAgGLOEGgkiygBCUhAAhKQgAQkIAEJSEACEpCABIKAYk6Q8FUCEpCABCQgAQlIQAISkIAEJCABCQwBAoo5Q6CRLKIEJCABCUhAAhKQgAQkIAEJSEACEggCijlBwlcJSEACEpCABCQgAQlIQAISkIAEJDAECCjmDIFGsogSkIAEJCABCUhAAhKQgAQkIAEJSCAIKOYECV8lIIEhQeC1115LDz30UPrkk0+GRHkt5NAi8NBDn6annvq040K/+uqr6Zprrkkvv/xyx8eOiQO8TsYE1e7J8/3338/3wbfeeqsrCtVt5amH8vDDD6cXXnihfvOI/zyYXOgzN9xwQ3r00UdHfDsIYMwQePbZZ9MTTzwxZjI3Vwl0CQHFnC5pCIshgW4mcOaZZ6YDDzyw9nfkkUemiy++OL355psDXuy//OUvacUVV0wvvvjigJ/bEzYm8Oijn6Zddnmv9nfEER+ku+76JH38ce/0e+/9fjrqqA967+iSLYst9mbaZpt3G5bm3XffLeq4S7rpppt67N9+++3TAgsskDbZZJNe+3okHMAPXid9g8297dRTT+3bwQN41AMPPJDvgwiI3WDdVp56JiussEKibZtZs2u7Wfr67Qwa+Y68++6763flewL7EFixe+65J6d98skne6Ud6A1wOeyww8bYaakzda+/Z55yyilpwQUXTBtssEE64YQTxtj5zXhkE+D7eqONNhrZEKz9sCegmDPsm9gKSmD0CZx//vnpD3/4Q7rsssvy3yGHHJJ+9rOfpUUXXTTdcccdo3+CIZIDP76p92233da0xFXSND14iO54+ulP0377vV/8KP8gnXvuR2nXXd9L88//ZppsstfTvff29KA66aQP0mmnfTgka4r3DcLmzTffXCv/gw8+mC644IK0/vrrp2uvvTYtt9xytX2++X/snQW8HcX1xyceQiC4u6R4kWLFXYIFCVK0SIFCcZcEgvPHC8WKu0NxJ1C8uDvFoUiI5yW5//mex9ns21zZ+969yZPf+XzeuyuzI9+Znd05e+ZM6yZwySWXhEGDBjXJ5G233Wb12eSgdsIhhxwSbrjhhjZBoli9Vsp4sXu70jXp81j98Ix8//3304dtm2ck51yZQxj2v/3220nCtrcDfPChrOn3BKxqUfD07ds33H///eHwww9vb8Wuujx57q88YapOuBVd0N7L14pQT/asNKdPnuyZbMMJSpnThitPWReByUlgxhlnDI899pj9vf322/aCNmLECHvJn5z5mJJp/fLLL2aR9NVXX5XMRp4wJS9u4ydOP71XHMxMG4YOnS4qvKYNs8/eOayzzrDw0UcTpy29/fa0YciQadpkSeeaay778n7QQQcl+X/iiSdse4899ghzzz13mGqqqZJz2mjdBF588cXw8MMPN8nkQw89FG6++eYmx7QTAgr9YlYnrZFNsXqtlM9i93ala3S+eQRoR7w7bL/99mGRRRYJffr0aV5E7eiqPPdXnjBtGUl7L19brpuW5r05fXJL0+xI13eJX6UGdaQCq6wi0JYIDB06NEwzTfMGvhMmTAgNDQ2hV69eLS4yX6v5qrjXXntZXN26dQsLLbRQnErzqr3g77jjjkk6Tz/9dLj88suj9cV14dNPPw2LL7546NGjR5KH9957L1x66aVmWs353r17h1lnnTU5zwbxcj3afKxgZptttjDLLLNYGL7wMc9+ww03DFdccYX9kTcG0uXKyrQsynHhhReGxx9/PAwfPjwsuuiioVOnThYveXrmmWfCSiutZPv8e+CBB8KVV14ZVl11VfvlZYM84xflrbfeCmuttVYSlo3LLrvMBj3FwowZM8YUQbAhHyiEYAPLYoLijLDkp3v37hYEdlhFUVaUawiKNaxFYPXjjz/a8XIvx5XygWXR6aefHq1qZrCy+Ndm+HualnDq3+efTwhXXTU2bLFF97D00l0i0xDmmKNz2GijbuG000bHdhjCJps0lvOEE0bHaQbjw8ord7UYfv21EC0hGsLgwaPDo4+OC13j4bnn7hx/G+uFQM8/Py5cdNGYmK8x4emnx4W55upsiiLPwujRhXDjjQ3hrLNGx3oaGz77bEK0DOoSuTXG8cADDfFL8JjIOoTjjhsdnn12fJyi0s2mgZ133uhw8smjY900WHh+SX+77RqZexr8cj+edtppoUuXLmG++eazuqCN0B5ogwxSsFZLC9MRr776aqtr2jrC1+oTTjjBrllsscXsGNNlmHpAe3vnnXcsfq9HfErwJZv7xO8D/E0cf/zxsQzj7F60SFL/8t4n5Jt2S/t/+eWXrWxzzjmn/dL++HK++uqrJzF/+eWXxoA2Oe+884axY8dau+a+uvfeewPKTNp1586lvxVh4XfBBRfYfYBFwxdffGEKlDXXXNPSqXQvdqWRRMHCgSlRtNHXX389zDPPPGH66ae3c/zD8oF79vzzzzf/MlNPPbUx5P70qR8//PCD+VLp2bOnXU9Y4l1mmWWSeMrVDYGOOeaYwH3FvchUHsJT13D0/oX+BsUR5ab/og3NPvvssZ03liVJLLVBP0UdXH/99cZ1pplmCtNOO62FoGxMpVt55ZUtXu7/F154IRCG/jIt5fJfqW3RH9A+6O/wz4MlGgNwz4en4/mhDrFQK9VvVOp/TjzxxEAbW2qppSxqnmGDBg0yjvPPP78d8zYIY5QwLl4WpvRk65WpREsssYTde7TVbB1l723iLNV+vE49XQ9Lfay33nrW/tPnGMiQp5133tnaJ/f3I488ErbeemtrI+mwpHnKKafYs4x+HsGvzf/93/8Fyu/tmzZ08cUXW5ngUImr9+uFQsH6GKY2bbHFFtYe4bLOOutYWuSTuqNf8L6p2meMRfTbP7jS/9FOV1hhBbN6Yx8/JtwT9FPLLrtsEyU4be3cc89twoDoePbxfuF9LM9D7o2LLroovPLKK8k9R1isf4499tjA9Lnf/e53HDKh7unnmOKVlea0PdK58cYb7X3mvvvus3cu7mv6E4R2Rn9G3ZE27yzp9xXu8Ur3V6UwpFHq2ZEtY6l2QH9drj/1cvAMog+76qqr7DnFOxT9qkuldujx0O+dc845Vv88wyox8PjLPa88TPoXq1meSTyv6dtR1H/zzTfh97//vfXBhM37vEHRTz/CM4VnPvHAfe21104n2WS7XBslIM8OyvToo49a/rgX6cPTUoyZP5MrvW9z75Jn7jn6HcYFlJd7m7FF3rLTn8LOn188/2HqUqqvLPes9WvTv+WeeelwbHtbrvSuWu4dhf6DNrLGGmsk0dOvvvbaa9YvcZA+k/c16nvJJZdMwtV7g76L8QH3ZrFnTjr90m9b6VDaFgEREIEiBNz5plsjoFRgfjKKCL688fDkhZEHPMIL6MYbb2wPQxQDt956a9h8883tRcyjJ8xWW21lL5QogYhz0003nWRq04ABA+Kg/FlLZ/DgwQHLiFLCw5KvgHTIPMDolDHtxqzXhTwzcE0Lvg1In5cN/hhYIDwQeUBkpVQYXvgOPfRQS4+BPOViMEm5nGE2Ln+BZtDuwgOT/JB/hBdv4rj77rvthYqXIwZTpaaB5ckHCiHSoA5QLCA83PBTxIt5NbLQQp1Dv37dovJsovOcG24YG5VkjfujRhXiS/6wqDgZEdjGz87GGw+PbWZEfIA2pvToow0WhmlcvB9fdtkYm8KFUgeJaGObGxkHSiPiS1shhulkvnuWXXZYzG9jJCiPuG6jjYaH++5rsLS4dpddRoSDDx4V/S8VYj0UYlscbtucKyajRo0yNrygIbQHmCLUfbE2wUALnih9XFAacsyVnCgk8LfDIIP7gsEB9wmDGgRFJOHTFmGkzbFK1hLl7hMUKfjM4EUaRSgKkd122y3xYcFLDIMPLy954YWWdGeeeWa7D4488sjI8GBTyDAYOO6448yvEGGLCWXdd999LS1ewhgUcD0vmy6V7kXCwWajjTayl0sGBrxUM8UN5+gI02YYWJ9xxhlWtjvuuCP079/flJ6Uy+9lwrJN/SH33HNP4OXZpVLdEI762m+//azstBHqmml3vGgj3MPcT3/7299sm3ub+v7LX/5iL4oWKPOPgR99Gn0QfRaDecrLC15aBg4cGNv0faZc4XfLLbc0ZbiHqZT/Sm2L9u2saN9s0/+VEtpDqX4jT/+DYo+BPHWE0Jfxwo1Sy4VnBG2Qeyst5eqVcNQTCtBidZS9t8u1n3Satd7m/kcBjMLfhXqlvOk+hGcn4Rj45eHq/TofZOBZ7LmDQoR2y0CGewep9hnjeS71m35G+rbXtV+DEpTy0je48OxDUerPIPoq+kgGmCgveRfYbrvt7DquoY0SB+HSQv+Vtcbz89W2PfKNgo4+j3xxb2K1uf/++3uUpiAhH/RNxd5X8txf5cJUur+TjPy2UaodVOpP6dspx2abbRY+/vhjG2CiEKQOUMohedqhx8NzhoE774blyvdbtu2n0vMqHTa9zaCf/halDvXEM4FnkEue5w33zD777GPKJwbYKDzp8zleSiq1Ua6jT+JdlD4PBZH3tek4izHjPPVR7n2bdwPeD3mm8bymL4UD18ECyVN2mHFvnXTSSXZf0Q9Rfyi1kHJ9ZaU+2SL47V/eZ55f42253Lsq/UC5dxTaH/3MZ599ZtEybqF9oFDnmYDwkYD3i2J1YwFaw78IWiICItBKCcQOphBfoKv+ix1UIXZKhahNr0nJ4oCwEB28FuLLl/1FbXshavsL8WtTYe+997Y04pc2248PPAvDwfjCacfiC5eFiV/KCvErRiF2/rYfXwLsfPRDY/vEH79MWBjPe3zAWZjoKNHCRMWC7ZO+y6mnnmrH4gufH2ryGweLdj4+3JLjcRBkx4YMGWLHKGMc2Cbn2YgWKhaGfCLx4Wz78SFm+8X+FQvjHOLLT3JJVBxZXFGpkxxLbzhfyu8Sp/TYNXGwaYd22GEH26eukTiQtf0jjjjC9rP/8uQjvtBbHPCODy+LIj7w7VgcVGSjtP2nnmqII6+fCtEfziTnDzpopJ376acJdm6BBX4prLfeMNv+978brxs8eFRy3Y47Drfwn346PqZfKEwzzc+Fvn2HFr79dryF+e67CXbe47jiijG2f/bZE+O49dbGY0cfPdKuOf30qCmK+Tv++JGFCY3ZKLz00jg7NmDA8OTYCy805mfzzRvzl2Tqt42oRDMO8UUuORVfwuyYt+nkxG8b3L+06ai0TE7R3rl34oCqEF+MbTsOspL7Jloe2DG/Jg6obD9atCRxRKWgHYsvHsmx9Eae+4T2EL+YF+IgI7k0Kj3tXqfuo1NXSyN9r5Env0+4DyhHVPjY9fHFqRBfTO1YtCZI4vQN2iksSNPvKRgQH/G45LkXiYM+iesR+kriiIMp248vhrYfrVVsn3rgGv5c4ottk32Oxy90Be9r8tQN15AueaF9ILQFjg2MfQwSrQ9sP37VtH3+kU/CxAFkcsw34uDGmERljh8qRD9NFj6+/Nsxv08pA/0m4vmNL9pN9mvRtshrqX6FxDw/5fqNPP1PHBxZOb39RAW87ZO+32PcP/CGUzEpVq9cX66Osvd2nvaTTtvLH61z0odtm3onfeoHcQ7eNu1g6l8cJFpeuZ8QnplcHwdmts9x7iNv6x5fueeL549nRlQuWjz8I96jjjqqEAfzFiftPyr4kvPVPmOSC3/b8Psy3fbpb0g3KlWywZN92ixh4kDSjtHu2edayk9d8hcHpXY+DryMD2F4ZnK/sx0/9CRxsgFD71ebnIg71ba9aKVm/Uf6eRA/YFm6PIuRPP0w4chrufurWBi/38vd31yXllLtoFJ/6uVIt+/4EcDyHRWtlkSedujxxA9PVo/pvFViQPzks9TzKh2Xb++yyy6Wx2gd54cK/j4IC6TS8yYq6ZLnFs9dhL6Ie4U8F5M8bZTruJ52HD/UFIvGjhVjlud9m+cA8Ufn9BYPeTrssMPsWLTSsWOVyk4g2iXxxA8Ldg39B2Un3zx78vSVxfpki+y3f3meeenwbHtbLvfMqfSOwj1M2aKCy6LnHYt9/qKy0Y5xjn3vv+3gZPjHGIh3JsZzlcaBssxpDRo15UEE2gABtOALL7yw/WFWypcETLMxTUaYGoVgAo0mmy/kCy64oB3j6zKCBQ1fAvgqiOk5lgjEyZdA5NM4/SF2XmYF4qamfKnkCxBfhNKyzTbbJLsrrriibWNGWkyiwsamUKRNJPmCjXCu3sL0B4SvWC7uKJevU82VBRZYwC7lqzVfn5j6xleck08+uWiU1eQDvj4FJD60LT6vx6KRlzjoFtjxmTRJCKYzIXfeibVOQ/xKF+JXkqmj9cL0cQpP59iGxpvFzJZbdovTYxrDzjJLpzidp3fYYYfudm1UJNnvgAGN++xstlnj9r33Np6zAPHfHnv0sClg7D/3XKMlxtZbd0uOrbBC1ziNqZMHr8kvX/GYTsFXMixr4kPZvpT169fPLAviC4mlwxc0pt4gfJlmCh/XYFXWEil3n5Cv+GJs9yD3L9Nj+MrNvc5XQqYLxJdns/wiD1iEkSePk3sYWXrppe1+ZzqIT48pdi/SL3B/02+4aT7WFXFgavHk/QdHvtTDiDzR18CVvsR5+hQVvlyTZ9hiKUMZ84rHladumPbp05uYCkOZ/Ho4IlgEYPVDXrHMw+KJus4KZtVYEMSXeCsbdeQWOVj1pAXLR2839AdMgSINxNPPk3+7oAb/yvUbefofprQiOBmPgw+zPmEaL0JfHd+h7RkCbzhVI+XqKBtPLdpPNs68+zxfuQdp10xH4rmIBQjWE7R9v498mm8erp42X9jdItCPxUGKfXlnahDTm/mK71LtM8ava+kvVnSI+yTj3uFdgKlaPOvgQ336VFTyHpU0do2/i9hOFf+qbXv0N9ybcTBpUyzpX3zadNqakSx4n8l2pfcVwuSRltzf6XaQpz/1/Dgj9nmGIc67mna47bbbVpw6YpGn/lV6XqWCNtlk+m16Wh0Wjkje9xm/33huudsD+njaYimppo3SjueYY45SUSXH08ycean3bfpJngOUnWcCwlSdNIck4gob9LtRmWH9Bn0SZWP6P/cg069q0VdW88zLZrfcM6fSOwr3MM9trKURprtRNo4zFRbBOhGO3hfawVb2r/Rk7VaWUWVHBERgyhJg8IUyBsHM/fbbb7epS/7i54MMTI6zwrKtCB1/tORJHv68nPFAoKNEeKlEsg8cf2m1k0X+uU8ZXv6zQvz+4pc+h18PhAdTvYXBJGX0wR7p8dJHufxltTl5YOoWg30Ua/zx0N51111D/NpSNLrm5sNfUDGHrlbwXzPNNJ3Mh072WpQ5t902dTR5HhkVXY2m2rvs0j1Oh5vKlDnvvttYn6uu2vRRxdQtl5deGh8fsp3joHjiwK57d140u9mUKg+X/f3ii8a4l1++adzZcLXYRxHJNCIGJCjcEFdO+ku/K8w8PZQotA1etGsl2fuE+oxf5ZMpHdzjKFvSggkz7QwloU/f85d4V8ISJitM38mKH1tuueWyp6rad2ZMRUlPR0lHguKUl/BoVWTTkOhreBn+61//mgy40uGLbXs65erGfZhkr2fA7CxR5uDXg74xfqG0oDA78MADiypzCICim2lZKK0Q8p9HYEu+mc6ZJ/954mxumGy/kaf/oZ9k4MAzBr8W9N1MkUVRyMs1/TZc3WdEc/PGdek6ysZTi/aTjTPvvvuEYXCMaT/3JVMRMfVngObKOw+Xh2u5tP2+ZqDqg1UPX+0zxq9r6W/88m/lZuozyi3Kzb1D2b1dZwfTfp8yXao50py2h/KLqXuIK6grpZ3thyuFL3XeOXi5PVz62VGqf/Kw/Ho85frTdHjfpl/jnQYfVkhL26HHW+o3z/Oq1LXp4/5Rz/vW9Lli23zYQOiP8oozrXUb9fQrvW/T/yNpH5B+bTW/TMdyTky1zwrP9Fr1lc195qXzlH3m5HlHYao54xmmQ+PPj2lvTC3DDx0fq/kAzbtDa5b6v8W25tIrbyIgArkJ8OWLr8AIL1d0eliA8NLFC5a/yDB48i8BHrmfi9MOTJGDpQ0POY7zxdEVKu5U018O/PqW/PrLaXZQ7Aom/2pOGtFktCVJlbyWgRhfmvki7y9yBI7mrzZwKXlhPMEXllLCV0n8CKAk46sg86+ZH4zl0+677z7JZS3JxySR5TiAH5yHH26IA6+u8St68Qu22qp7/KLaPQ5ex8WBeUN0yDcm3HFHQ7S46BOdfTZayaAQKiVY0jz55Hiz6onj50Ref318XPq2S7Kf3fC4v/12QnTkVyJz2YuauY/lCgMFHATzIkm7X2211Sw2/7KMhUla2cfgFUFZ6j4J7EAN/7HUNC/w+I7iZQVrOKxBmDPu4r4zsBShDfNy6PeM39f49HArLr/OLet8n1+/v/3lMH0uu13uXnRH5wzusi9Z7iiQPilOxwl77rmnOQbGvwgKFe45+p88kqdu8sRDGL6+wpIBDz4HuFfpQxmwe3k8LqxwUOQgDGZRAFIet3T0cMV+XeFK3eTJf73aVrG85e1/GDRgUUW5uSd4njBgYNCMs1yEAWs9pdr24/16MUWCH3OnuJXyjZNzLLv4Whync5gFBPcODLgP8TWFg25+kbxcS6VLW8EfCH6ZeH5wn/h9VO0zplQa1R7HDx8Kb+4T+k3ElcjTTTed7dNnpgULJiS9oEKxDzzpa7Lb1bQ9BtS0Sa5BKY6FAhYTWJBMDslzf+fJh/c/5frTUvGgbPT6aGk7LJWGH8/zvPKw5X792ZL2ueXHil3nzy3es/KKM8nTRvPGmQ7nz95S79tetpY+a92Kj48E+JHJCm2+2r4yGwf7LXnmFYvPjzmncu8oa665pinK8Z3DhwL2+cXhOj652K70QdnTm1K/9X2DnVKlUroiIAJ1JcDDDUd/vDyxggfSt29f++ULPiaK/sfLlL9cMXhhGgYdI50sDsbSShY3Y0xPfUKZgaNQXjabI7xkMxjgy55PVSAeBqaIf23hazDlSYdxhY8FTP0r9+D3YOkwbgXEyh0uWA3woM1+VfPzDP4RzFpdcADoQvzRn4ENvBnwM22ML7dIqalbzcmHp1ftL0Y8AweONofCW2/dvejlrIC16qrDYhnHRyVB1ziYmCocdlhPm1r1yivj4yokjY+ohx6aOF0K3dYWWwyP5W205Fl22cZvEs8+O1ER9/774+PXwgkx7tLfKxZbrFHRk3bOjMPk33zeFc1vcw8yMMISgxd96ohBiQ/sWA0EcWe5bPtUEl6OuXd8xR7uLRe3cvH95vy6aTEKVVe+0C7TgjKUQRVOkrlnfHoiYbw98eXS73d+aZvFvgiz+hWSvr/Zd2eMbCOV7kXvJ3yapqdNn+KWgnxRY3CCkon+hhczFFFYOzEAcUlv+zH/zVM3HrbcLwozTMHpXxiEH3300bYyIC+J/oU1fT3h6BtQntN3UQZXCKTDsU1YF7hjvQI/XrDz5L+atlXtwNjz5b/eXir1g1jdwAZF9SabbGKKBV9tCSecTPXwwYrHnf0tV6/ZsMX287Yfv9bbJHWd5sQzLvr6sGBpZa1fV+qXabjUJaxcoYrSgHsWh6Y+TZfr83ItlRbT8HAIy3MWZRHWJkhznjGl0mjOcbdeZMUf2KEUR1ypyRfztHgfiiKML/Rck76/cHbqVhbp69Lb1bQ9+h8EhTLPa/r56CPIjpX7CGMBivxLt5sip+1QOkye+7tUPOnj3nbL9aceng9FLijGsZxza9OWtkPiTZfP0/HfPM8rD5v+JY/pZ4zH4+Wu9Lzx55a3L+KmfsspSvK00XQeq92u9L5N/89zkWetO/IlDbfY8fQqlR2lKmHoh1Ay+7OW5wbv1rzH5O0ry/XJ1TzzPO95fr1NlntHcespPmLxvEVBxS/3tM80aKk1cZ68tiSMlDktoadrRaADE0CRwMsS2nq+7mKqSAfIV73oMM0GTaxmxfxkV/jQIfJlmilBHGMQSSeOZQ4PcQauzOXmJY2XS5Q/LC/KS20ppUeeKsBUHGGKFw9kXrh5AJFffyn2F2bSI91BgwbZS3M6/vnmm892+VKIcqjYC1uxML7SFhYQfJVnQMlKCAirAhQTLJ4QvpZiVcASknz9c2GAx4MWSwo4Uy6WjUR8Tr6H9d/m5MOvzfOL/5rokDiyHW0rUJ155uio0OkZdt21uDJnscU6x+kU4+Kge2T8AjLW/q67bqxNy1pkkS42NWvPPXvE8jfEr50joins2FiHI6MPl4ZEUXPIIY3mOKxmddttY21q1YABjVOFDjggZaqTKQDTsJiedcwxo+KSsWMs7X79hpsiKRO0JrsMmFzS2ygaGHxwT2CNwPQSFKW8gHp98+JEW+U8X6r5WlTM8srjz/vrSw+jXGBlCton9waS/gqJUoHBNeL3CdvenrhXyT/tmjhQVrGEdVZQtOALA6UQPmMoK4NzrkuLp1HqXqSfoO+gL+GX+5UVOvCZ4VMe8EXDPYqlAfHzVZd0mcLpptgMhuBMmX0Qls5HnrpJhy+1zQswL8P0i/Qd/LEcKsonf+lPX+s+CFACMD3vyriqHP0ikh1AwJ2vs/SRKLwpj9dLnvznbVso4RkEkU56YJTOd6Vtz1elftCtb4jP+2eswdwfkyt2SqVXqV5LXZc+nqf9pMPTF6MMoX5Q3KEQwQLMpyDSlqvx8ZOeRuZWSOlj6e28XNP5LbZNvfCMxoIW/zx5njEM6LkHs6tGFYu/2mM881FoI0wddmshFM/R6a9N+6T/wKcFzz76MNj7hxAUgUwh4/nIM9Trp1w+qml7PqDmHqQPYTVJf9dI95/l0vNzee6vbJg897fHX+43T3/q19PH8A7j/Q3HmQaJtLQdZstnkab+5X1epS6xTZ5du+66q7UBVp/iuUq7wsIcqfS8wQKOdsXzg/ZG2enLXSlkkWT+5W2jmcty7+Z53/b6YDovz1reH7L+FCuVnQx5m+ZDDs9RrEWpc/6YmpSnr6zUJ1fzzMsNKQZ0BuXeUbBMwxoHwfrRxS0BYeQf3/xcq/uNgxGJCIhAKyUQBxgVvZjHqTuThKn1alax0zbP9VlMcblf8/KON3skvsja6lZRk2/H4yDVVr2Kiho7HxU3hTh9wM4RBi/07nGflXOQaBljq8Ck42C1CI8jzmO166P5qoXnX3xQ2bGoBEqOZTfiy5yVweNlBYh0HKQbH9S2agFh4gt0wVdCiC8DSXS+chZh4pfL5Hh6o1gYVguJiq2k7NEU21aoSV+X3Y4P30JU6iTX+CpI8WuLBWVlhTRPwpI29V9KKuUjOlW09OLX3yQK2FBe4i4mQ4Y0rgLFilH8zTXXL4Xddx9RuOWWSfPBalYbbDBxtai77x5r4f3afv2GFR57rHEVLdIaMWJCYb/98J7cGDerW5122qhkBSrCvPLKuMJSS7EOeWOYVVb5tfDkkxPjOOOMxtWsvvii6eo30SKoyXXbbDPc8tK//8T8Eb8L7RsO6dVL4kDajvlKOx622G9U4lj7yrabOABvct/El8xCHAw2iYI2zsoTpM+frzBRajW0PPcJ7ZrVXrhPiZP2Ewedtp2u//hFzcKwyk5W4pz0Ju2aOOLX/WywZJ82ywp4Xg7Kml3NKs+9yIoavtqcx0X+fJWsON3I+h4vG7/xpbQQFcdJXqJfg2SlIO/DyD/3vUueuiF9uKWF+5v73SUOAKxP8bxGq6Emq7J4OP/lHqff9fBRuWz9F/lD/D714x4OJun2lSf/edoW7cFZxgGy5SH9z/OTbjfF+o1K/Y/HGX0bTXKv+Oo5vtKVh83+FqvXSnWUvbfztJ9sujyLaUfOiTS551kVxZ9fXOOr/qRX2MnGRR0Sj68W6edpN1HJMclKXpW4Fqsf4iSPUZnr0duqOqRLO6P+Kj1jeOYSR7rek8jiBu8wnI9WVslhViPiGPdEJfF7nDpNC33SWWedZfEQF0wGDhyYrMBIWNL2ZyZhuJ/ob0qtZuXxV9P24tSMpA+BW7QAtDx5f5CnHybdSvdXqTB57m8vF7+l2kGl/tRXVErzpLxRsZOO3lZFK/eeU4yHR1CJQd7nlcfHL++X1Hk63+xHK9ckWJ7nDc8V2gXtiD+eWV7OJKLMRp42SlzeVjKXJ7ulmFV636YPi4rGJM/UF+/cpOmrWeUpOxlhVSjuMS9/VOwkqzvl6SuL9clJAX/bqPTMy4Yv1paLPXPyvKPwrp3mQlpcxzFf6Sqbfr33o0I492pWnchMq9MwKUMiIAJGgJUs8ni5z+Lito4vgzZlyKdPZMPUcx/fMDgQ8ykP2bRihxviA2ASZ4vpcJzHNBLTTv8ilz7f3G3iZJqY+zjIxkPeMSX2L4LZ8+y7qarPpa4mjJspuy+fYtemj1GXTKmBZakvu7CKL3XGKn1tue1q81Eurlqciyt9xq8fIfoPafSTk40zNufIYUL019I5tofs2cZ9pkkhffqUCNAYbJL/8ZkZrSRKpz3JBc04gKkz5ryY5MeXt6Ix0PZoW+XuWdovvhLcuqRoRFUepP3gSLtcupWixDqPeNyPQ6Xw9AF81eOrJxYBfFXPTvHKcy9i0cdXcPKOaXkx4f7hfi52nvuL6YvcX8XOe3x56sbDlvvFqgU/BFhy5BHqBQueUv2Vx0EZYFmqXeTJf6W2xTQVb58t7ZPr3f/krVfnV+63XPspdR0seQZj9dBSVqXSKHa8XlzLPWOYPlGq3RXLYzXHsKaJShmb/lXsOr//y70n0Ga5t7mP6iW0EfqgUs/oVZV4/AAAQABJREFUPOnmub9Khclzf+fJg/PM9qdRoRCiYs0sPOgrad8wL1Xe5rbDUuVL5725zyuewVjplHrOlXvecC1tnDDkkXc/pu3SprAALSfOtFwbLXd9pXPkqdz7Nv0Q74fUG45+sSrCh4xP0yP+cmVPp48PL55dpZ5f5frKvH1y3mdeOl95tqt9R8kTZz3DcI9hNYSFZKVnSGmHAvXMoeIWARFo1wQYePDgKCXucK/UeY7z8sWLcK2l1IPc0yHv5RQ5hCunxPF4SoXJq8TxeOjEK3GAFS8K1Ui1+SgV9/77j4y+LcaUOt1mjzPN6913p21x/v0FhulwvEiWWmmMhGh7ldpnpfPNyTDtp6XxVvJhks0XfUClfiDPvchgotL9Ue7e4P7K48skT91ky1hs3x1jFjtX7Fgx30PFwlVikCf/ldoASqhy/XqxfJU6Vqv+p1T8eeu11PXp4+XaTzpcersSy3TYWm7Xi2u5Z0w9FDkMTpnOwl+0CC2JKM/9X+pZXDLSZpxoThvJJpPn/ioVJs/9nU2v2H4engwuK/WZzW2HpcqXzmtzn1fllBDEX+55c9hhh9kHD6ZokcdogWcKEqZfVZI8TCvFUe48+S7XL1NfeZ4Pld57yYM7XS+Vn3L3Qd4+Oe8zr1QeSh2v9h2lVDyt8biUOa2xVpQnERABEWgjBC64oFf0V9CrjeR28meTValwXIowd939LEz+nChFERABEWgbBHByjfIb64c8A+a2USrlsq0SwN8ifprcKTflwL+K+z5sq+VSvtsHAU2zah/1qFK0UwJtdZpVO60OFUsEqibAdCIcerOqgq+eUXUk7fwC+jmmH/nKcu28uCqeCIhABQIPP/ywWQuyghWWDZIpS4BpnKzuGf2u1G1K3ZQtYeXUmS7FlD+WG8fJtjvtrXxl6wnBdCsWHGFBhVJTpVpPbjt2TqqZZiVlTsduKyp9KycgZU4rryBlTwREQAREQAREQAREQAREQARqRKAaZY7U3TWCrmhEQAREQAREQAREQAREQAREQAREQAREYHIQkDJnclBWGiLQTgiw+kxcxnaSVWfaSfEqFgNv+B9++GFgZQOJCIiACIiACIiACIiACIiACEwpAlLmTCnySlcE2hiBa665Jiy//PJhp512Cv/85z/bWO5rk90n4xKUOLN99913axOhYmlXBN55Z3zYbbcR4fPPJ7SrcqkwIiACIiACIiACIiACrY+AlDmtr06UIxFodQTGjx8fzjzzTFuJ5/777w+HH354zfJ4yCGHhBtuuKFm8SmiKUvgiSeeCAcccED46aefpmxGpkDqb7wxPlx11djw/vvjp0DqSlIEREAEREAEREAERKAjEZAypyPVtsoqAs0k8MYbb9gyodtvv715we/Tp08zY5r0sjvvvDMQv6R9EPjkk0/Cv/71L2sv7aNE+Uux3Xbdw9Ch04X11++W/yKFFAEREAEREAEREAEREIFmEOgyKEozrtMlIiACk4HA0KFDwzTTTNOslFhGsaGhIfTq1atZ1/tFd911V7j66qvj1JHPAz5j/vOf/4Rll13WljX84Ycfws033xwuuOAC86XTvXv3MN988/mlAYueG2+80aZl3XfffZaf2WefPfTs2TM8/vjj4bLLLgtvvfVWGDZsWPjggw9MUYQHd6yAZp111jDLLLNYXPjqOf7448O4cePCQgstFJjudOmll4auXbuGc845x/K0+uqrW9inn346XH755eG6664Ln376qS0J3aNHjyRPpTY8TtKlPFdddVV45513wqKLLhqmnnpqu4w8PvDAA2HAgAGBciAtYWARxH/ffvttQKl1/vnnm08e0iMfnTp18iCh2nJ98cUXVjcXXnihsWZ5V9ghXtbm8HvvvfeMPVPt4Nu7d2/LK3V93HHHhSFDhoTvv//e/lgG05ebrsQpKehvG+XaTjYs++eeOyY8+ui40KVLCCeeODpcccUYC7bAAp3jUqoTOX777YTYPsZamEcfbYhtsVPk0iV8+eWEcOiho2Jddwrzz9/4nePdd8eHY44ZHS3SOsdlchuPcc1pp40Jyy3XJd6bE+MlsRdfHGfnFl20S5hhhsZzxHvttY3pvf32eLtmjjk6x7q17IVffy2Eu+5qCIMHj7b8xyYdlzztHNt2p9jeQ9h775FRMVaIS8LGgv0mJ588OjzzzLiw2mox8G/y8MMN4ayzxoQLLxwT76Xx8R7tamXz8/oVAREQAREQAREQARFo/QRGjhwZ3127Bd7d02OBYjmXZU4xKjomAiKQEECBglII8e1CoRAtEIaG7bbbLpx00kkBxRFKjt12282UEoQlzM4772wDfMLSMR100EFh//3357QpejzesWPHWhrEgyLgpptuCl999ZWF4x/hOOYWPO+//77tkx5KoTFjGgfuhNlll13CY489ZpYhKEe22GKL5HwSYZENj3OzzTYLH3/8sXWgKCw23nhjU2IVuaTFDIiT6UjrrbdeOOOMM0zxdscdd4T+/fuHSy65JEmy2nKhHNpyyy2jYuE0q7OXXnop7LPPPuEf//iHxellrZYfzq/hgeJpxhlnDLfeemvYfPPNwyuvvGLxUo+0EYQ68/qt1FbsgtS/Sm0nFTTZfPDBhtjWRoVVVx0WlUzjw5tvjg/bbz8its/RSZiffy6ENdYYHtvhyNhmQ7j99oaw0UbDTdkyyyydY5saG5V4jW2Ji26+eWxUOI4Jt93W2P45duWVYy0c4bPy6acTLPz33zf6zPnhh0JYbLFfw1FHNSqJrrlmbFhxxWHh9NMb8zRqVCGsvPKweB+NiE61C+HVV8dHvsNjmx0R759geST9F15oZOrp3XHHWFMA+T5hNthgeLSIaohttWCKqhVWGBZGj46RSERABERABERABERABNongfjSLBEBEWilBD777LNCHCBX/ReVG4UR8XN+tIaoScmeffbZwvzzz194+OGHk/iOOOIIO/bmm2/asWg9U1hjjTUKf/jDHwpxQF+IViyFlVdeuRAVCMk1Ubli18QVoZJjxEtcLs8995yFefDBB/1Q4ddovkC4qPCwYxdffLHtR6ucQlQA2bFoOWTHotLC0udgVDbYsWg9ZGHK/fM4b7nlliRYtByy66Oljx2L04dsP1on2X4tGETLGYvzhRdesDipb7jxhzSnXHvvvbfFGa2eLA7qIyp37Bhtw8taLb9jjz22sPbaaxeiAsrijZZaFmf0kWP7/IMVdfXf//43OVaJUxLwt428bSd93QYbDIuai58KjzwyNjm87LJDC337Dk32d989mrjEMC+/PM6OjRo1obDAAr8UZpnl59hmCoUBA4bb9m9Nyq4lPPEgHJ9mmp8LO+443Paz/266aYzF/+9/N9ipk0+OGpp4/VNPNe5H9IW55vrF/ghAOM4PHjwqiYq4ORYVUgXCs33ggSOS82yQn+WX/9WOffTReAuz1VbDCw2NyRSuvLIxH5dfPrrJddoRAREQAREQAREQARFo3QQYvzGO45290jhw0k+L7VNnpVKJgAjUmADTaeKgPTCFieW64+A9rLTSSoGpNUypWXjhhUNUAtnqV2+//bZNE8JkEGGqTi1k2223TcwPX331VYtylVVWsaXTydOCCy5ox6LCKXdyq666ahK2X79+tu1xJyd+26gFg7nnnttiu/baa83yqEucJ8SUqqeeeqpJ2tWU65lnnglLLbWUTTEjEuI88cQTwwknnNDESqlafoMHDzarJ6bFvfjii+Hll1+2en7ttdcsr6X+VeKUva65bYcpVeuuO9FfzXrrdbMpR1jkIA891BCnTHWJUwRDnEI3PraTCWGttbpFa7BC+OabCWGTTRq3mQ710UcT7Nr99usRLY/G2wpVODYeFnVG/fpNTCOb9/Q++UGY+vTSS+Pi1KkQrYb6RMuvRp9TTKdC7rxzbLRsa4h1E6Jl0NTRomb6MO+8+R7Pzz/faLWzzjpdLb+Ua5FFGq99+WU5YjbA+icCIiACIiACIiAC7ZDAxAn37bBwKpIIiEB9CPzyyy/m54XYWao7K0yVmm222cxvDb5uEPc7kw1bq30URgh+W7Ly9ddfZw/l2scvDuX48ssvJwlfKwZMW8Jp8HnnnRfwK8T0JZQsf/3rX22+bLXlwudQ1OaHP/7xj03yvPjiiyfKnSYnftvJkw5Kumj1E6cDNSrOyCvKu3nmmadYlHYsL6dsBPg8amnbcVdJZt/yU8H84pDO4ov/mk3OlDnrrtv4SHzqKaYWBvNvM3jwVOHvfx8T7r+/wZQxXLjOOvmUOdts0z0qLsdHJdrocMstY6MPqE5hjz16RD88PUP37p3MN85tt00d9t13pE2vIu5ddukew0+VW5nD1CyEOLLyxReN072yx7UvAiIgAiIgAiIgAiLQ9glImdP261AlEIHJTsAdCi+33HLhlFNOmSR9rE1QDjAYR9lz1FFHxYHr3KYE2HrrrScJX4sDrixCKbLIIos0idLPNTmYcwe/L9NNN90koWvFAKsZlvLec889o2+UF2wlqIsuuii8++675jja8563XO4wO07RmyTP5Q7kSWfgwIFWh/gSWmGFFUxBh18krLJKSR5O2Wvr0Xaiz22TVVbpGh04T+oUHKfHU03VKToO7hIeeaQh/O9/hejounus+04BpcyddzaEmWfuFK3PutpvNs/F9nHGPGjQVOGww3pGp9PjzNfOKaeMDq+/Pj7ce29vu2SrrbpHv0Pdo5XTOPPNc+mlY8IddzRE5VKfxHEz/n1KiTthvvHGqaM11kQnyYTv3bupg+ZScei4CIiACIiACIiACIhA2yMgZU7bqzPlWASmOIGp4jwVplixshUrTvlS5aNGjTIHxqxWxRQcBCsTt9xwBUOcqdqkDDg+dplrrrlsEye9bvWDpU8l6du3b3LdpptumgQnHlaGyitMIfKVqlCoYHniq0Cl46gVA6Y/wSX6sYlTftayPxwYP/HEE+ZAuNpyoTyhbpiqxYpQKIsQnB+zMhlOi4tJnnSiHyObvkU+Eeo77ag6Ha/XaR5O6evYrqbtZK8ttd+rVyebYvXvf4+L9ds5TD99o6Jj5MhC+PrrgilyuBbFysCBoyyaI45o1ABtuWU3c6bMwVNOiXO0csoBB4yMUxAnREVQb5uaxfQsVre6776GEH1FhxtuGBtX1hoTnSb3MiURiqI+fTpFJegom9rFalVzzdXZHCN7kjg1ZlrY7LM35n/xxRunVOHwmaXRXdifc858U7X8Gv2KgAiIgAiIgAiIgAi0HQJS5rSdulJORaBVETj00ENtKhCrJu2+++5mvcJy4SheWGHKlQPnnntutHL4X2CpbJb8Rpiu44JvF3y8PPLII2H55ZePg9e5zLIGHzIzzzyzrSrlqzD5NcV+119/fbsOqxbi33DDDeOKRm/GJavPDSeffHIcjG9vq2sR51lnnVUsCjvGqk+UjWW7uQ7h2mJSCwZzzjln9JNyVTjyyCMDSqhvvvkmPP/888YCH0N5ypXN29/+9jdbOWyrrbYKu+66q02JY7l3lDDTTjttNrjt50kHSywUeDCdY445TDH0aVyeHEF5wxKKXu9Mk9pkk01safJKnFD+pcXjqNR20tfk2T755J7RymZEVJwMCwcf3MOWDz/zzDE2xeqDD6Y1hc4GG3SNypzG2NZeu/ERucEGE6dVbbjhxO1KaeL35vzzx8SpVSNM0YIiBwsdlDTdo95lscU6B5RLf/7zyHDggT0suuuuG2vTuxZZpFEJt+223WN7HW0rVLFE+lVXjTWFEAopZIstukcF2+ioZBod67kQVzHrFutovCmkLrmkV9hrrx5m7YUi7+yzz04Ur3ax/omACIiACIiACIiACLRdAq3bl7NyJwIdm0C02KjoxbyYl/N6rWYVFS5NKiQuUW2rV7F6EX+smBSX9U7CRCWFrX7EuSWWWKIQB5MWjlWRXO655x47R5i4hLYdjktgx5WFBlhYjvtqSFEhYefjst12Lio+PBr7jRYtBV/JydOM05NsxStWvWKlLc4XE1/hiZWZuNavj0uuJ8GjTxs77qtZcaKlDKL1TIE8wsfTjMqPJqtBlStXkrnUBmW9/vrrkziJ9+CDDzbP+ARrDj+ui4qbQlQUJXx22mmnQlze3PajXyKCFOIS9IUddtjBjvHrUomTh/PfPG3Hw/K70UbDbGWq9LGBA6PZTVwN6qefGlc849y1146xFas4zt9KK/1aeO+9xtWtOM+KUKxY1b//MHYT6ddvmF0Xq6uk3HJL09WsCHvCCaMsPtIi3l12GV745JOJkdx991hb3crzQzqPPfbbslQxpQ8/HB95Nq5wRZg11/zVVtny1azIzFdfjbf8ehykQ7qxGZicfvrpVh+sjCYRAREQAREQAREQARFovQTiR+ncq1l1ohhtVxWlnItA+yYQB19mAVFtKbmt43LUIQ6sw0wzzVTt5VWHj0tVR6uGqeyv2MVY65APLDeKSVQ+hbj8uIXp1Gminw8sepjC5atgFbu22LGo4ApDhw41yx4/j9NeLFWOPvroaCmxhx9OfqOCI8RBb7SU+LddR9pMISuV5+TC3zZayoBo4IRTYZ8alU2jWLmyYbL73333XbRAmaEqhpXSoV0xhcv982TTZB9+vXv3Dlmrm0qcsnFVajvZ8Hn343My+vwJgelXk0NYLWvmmTsnTpSzacbV3iOr0vn55ZdCbBeNTpmz1/o+q2H9/POE6LR70vuM/gBrM4kIiIAIiIAIiIAIiEDrJcA7dK9evey9LT0uKpZjvdkVo6JjIiACVRFAWVBOUIqUE/y8MP0pK81VRHWPc1iy8eFcmJWp8jhgZtBL2GqkpQxIqxKnYuWqlMdq/AV5XJXS4QFTSUrVXSVO2XgrMSF8//7Doz+guPyUZBICDzzQO0457CZFziRkdEAEREAEREAEREAE2jYBKXPadv0p9yIgAjkJsFoUljnFVqbKGYWCtVICOBiWiIAIiIAIiIAIiIAIiEBHIiBlTkeqbZVVBDowAaYuZa110ji22GILW267lEVJOqy2RUAEREAEREAEREAEREAERGBKEpAyZ0rSV9oiIAKthgDTkZozJanVFEAZEQEREAEREAEREAEREAER6DAEJvWS2GGKroKKgAiIgAiIgAiIgAiIgAiIgAiIgAiIQNsjIGVO26sz5VgEREAEREAEREAEREAEREAEREAERKADE5AypwNXvoouAiIgAiIgAiIgAiIgAiIgAiIgAiLQ9ghImdP26kw5FgEREAEREAEREAEREAEREAEREAER6MAEpMzpwJWvoouACIiACIiACIiACIiACIiACIiACLQ9AlLmtL06U45FQAREQAREQAREQAREQAREQAREQAQ6MAEpczpw5avoIiACIiACIiACIiACIiACIiACIiACbY+AlDltr86UYxEQAREQAREQAREQAREQAREQAREQgQ5MQMqcDlz5KroIiIAIiIAIiIAIiIAIiIAIiIAIiEDbIyBlTturM+VYBERABERABERABERABERABERABESgAxOQMqcDV76KLgIiIAIiIAIiIAIiIAIiIAIiIAIi0PYISJnT9upMORaBXAQ6depk4SZMmJArvAKJgAiIgAiIgAiIgAiIgAiIgAhMGQI+bvNxXKVcSJlTiZDOi0AbJtC5c+cwdOjQNlwCZV0EREAEREAEREAEREAEREAE2j8Bxm2M3/JK/pB5Y1Q4ERCBVkEAjW6XLl3Cjz/+GMaPH98q8qRMiIAIiIAIiIAIiIAIiIAIiIAINCXAeI1xG+M3WeY0ZaM9EehwBFyZ07Nnz/Diiy+GL774IowbN67DcVCBRUAEREAEREAEREAEREAERKA1EmB8xjiN8RrjtmqUOV1bY4GUJxEQgZYRcG1u165dQ58+fQLzLz/++OPwwgsvmEKnUCi0LAFdLQIiIAIiIAIiIAIiIAIiIAIi0GwCjNkYr80000xhgQUWsHEb+xz38Vy5yKXMKUdH50SgDROgA2DOZbdu3cIMM8wQevfuHRoaGkyx04aLpayLgAiIgAiIgAiIgAiIgAiIQLsg4OO17t27m2KH/TyKHAovZU67aAIqhAgUJ5BW6KDldYsc/y1+lY6KgAiIgAiIgAiIgAiIgAiIgAjUk4ArbfhN/+VNU8qcvKQUTgTaKIF0J9FGi6Bsi4AIiIAIiIAIiIAIiIAIiEC7JuDjtryFlDInLymFE4E2TKDajqENF1VZFwEREAEREAEREAEREAEREIF2T0BLk7f7KlYBRUAEREAEREAEREAEREAEREAEREAE2hMBKXPaU22qLCIgAiIgAiIgAiIgAiIgAiIgAiIgAu2egJQ57b6KVUAREAEREAEREAEREAEREAEREAEREIH2REA+c9pTbaosIlCCgFavKgFGh0VABERABERABERABERABESgFRCo1s+plDmtoNKUBRGoJwEUOek/0pJyp57EFbcIiIAIiIAIiIAIiIAIiIAIlCfgyht+09vlr5p4VsqciSy0JQLtjgBKmwkTJthft27dQteuXZOOot0VVgUSAREQAREQAREQAREQAREQgTZEgPHauHHjQkNDQ+jcubP9uWKnUjGkzKlESOdFoI0SSCtypppqKilx2mg9KtsiIAIiIAIiIAIiIAIiIALtkwCKG//oPmrUKCskSp08Ch05QG6fbUKl6uAEUOS4ljdvZ9DBkan4IiACIiACIiACIiACIiACIjBFCKC8YdyGlY6P5SplRMqcSoR0XgTaKAE6gfHjx4cePXq00RIo2yIgAiIgAiIgAiIgAiIgAiLQMQgwbmP8xjguj0iZk4eSwohAGyTgypw8JnptsHjKsgiIgAiIgAiIgAiIgAiIgAi0GwKM26TMaTfVqYKIQMsI4PxYIgIiIAIiIAIiIAIiIAIiIAIi0PoJVDN+k2VO669P5VAEmkUgr3lesyLXRSIgAiIgAiIgAiIgAiIgAiIgAjUnkHccJ2VOzdErQhEQAREQAREQAREQAREQAREQAREQARGoHwEpc+rHVjGLgAiIgAiIgAiIgAiIgAiIgAiIgAiIQM0JSJlTc6SKUAREQAREQAREQAREQAREQAREQAREQATqR0DKnPqxVcwiIAIiIAIiIAIiIAIiIAIiIAIiIAIiUHMCUubUHKkiFAEREAEREAEREAEREAEREAEREAEREIH6EZAyp35sFbMIiIAIiIAIiIAIiIAIiIAIiIAIiIAI1JyAlDk1R6oIRUAEREAEREAEREAEREAEREAEREAERKB+BKTMqR9bxSwCIiACIiACIiACIiACIiACIiACIiACNScgZU7NkSpCERABERABERABERABERABERABERABEagfASlz6sdWMYuACIiACIiACIiACIiACIiACIiACIhAzQlImVNzpIpQBERABERABERABERABERABERABERABOpHQMqc+rFVzCIgAiIgAiIgAiIgAiIgAiIgAiIgAiJQcwJS5tQcqSIUAREQAREQAREQAREQAREQAREQAREQgfoRkDKnfmwVswiIgAiIgAiIgAiIgAiIgAiIgAiIgAjUnICUOTVHqghFQAREQAREQAREQAREQAREQAREQAREoH4EpMypH1vFLAIiIAIiIAIiIAIiIAIiIAIiIAIiIAI1JyBlTs2RKkIREAEREAEREAEREAEREAEREAEREAERqB8BKXPqx1Yxi4AIiIAIiIAIiIAIiIAIiIAIiIAIiEDNCUiZU3OkilAEREAEREAEREAEREAEREAEREAEREAE6kdAypz6sVXMIiACIiACIiACIiACIiACIiACIiACIlBzAlLm1BypIhQBERABERABERABERABERABERABERCB+hGQMqd+bBWzCIiACIiACIiACIiACIiACIiACIiACNScgJQ5NUeqCEVABERABERABERABERABERABERABESgfgSkzKkfW8UsAiIgAiIgAiIgAiIgAiIgAiIgAiIgAjUnIGVOzZEqQhEQAREQAREQAREQAREQAREQAREQARGoHwEpc+rHVjGLgAiIgAiIgAiIgAiIgAiIgAiIgAiIQM0JSJlTc6SKUAREQAREQAREQAREQAREQAREQAREQATqR0DKnPqxVcwiIAIiIAIiIAIiIAIiIAIiIAIiIAIiUHMCUubUHKkiFAEREAEREAEREAEREAEREAEREAEREIH6EZAyp35sFbMIiIAIiIAIiIAIiIAIiIAIiIAIiIAI1JyAlDk1R6oIRUAEREAEREAEREAEREAEREAEREAERKB+BKTMqR9bxSwCIiACIiACIiACIiACIiACIiACIiACNScgZU7NkSpCERABERABERABERABERABERABERABEagfga71i1oxi4AItHUCP/74Y3jvvfdCQ0ODFWWmmWYKv/vd70K3bt2KFi0bfsYZZwyLLLJIyfBFI9HBhMD48ePD//73P/sbPnx4WGihhQJMJSIgAiIgAiIgAiIgAiIgAh2bgJQ5Hbv+VXoRKEtgwoQJ4Y477gh33nmnhdtwww3D8ccfH2abbbZJrkPx8J///Cfsvffeybnzzz8/LLbYYsl+PTdc8TF27NjQqVOnMPXUU4fpppvOtuuZbj3i/vnnn8PTTz8drr766vDqq69aEijFzjzzTClz6gFccYqACIiACIiACIiACIhAGyOgaVZtrMKUXRGYnAT69OkTll9++STJ1157LXz11VehUCgkx3xj1KhR4fXXX/fdsNxyy5lVTpcuXZJj9dz49ddfw9lnnx3WWGONsPrqq4f7778/sSiqZ7q1jNsVYnvttVc48MADE0VOLdNQXCIgAiIgAiIgAiIgAiIgAm2fgJQ5bb8OVQIRqBsBplMtscQSYeGFF7Y0vv322/DOO+8ErF+ywnQgtyLh3AorrFDUgid7nfYbCaAge/PNN8Nxxx1nFk5pLiinNthggzDNNNOkD2tbBERABERABERABERABESggxLQNKsOWvEqtgjkIcB0pTnnnDOsuOKK4cMPP7RLsM5hutXMM8+cRIFFyaeffhqef/755Ngf/vCHMNVUUyX7vjF69OgwbNiw0L1799C7d++Q13KHKV9Y36D0QKnRtWvLui/8ABFf586dbUoW+akkWB+NGTPG0s+bb+KkzCNGjDAevXr1KpoMU6tuv/1281FEAJRoTFlbddVVw7TTTlv0mmoOUkekAb8ZZpihCXfO4ZMHxqRVqWyEgwVlQuFHPZbyo+R5JF2uGTlypIXv2bOnn6rLL+lRv6Q5/fTThx49ejRJZ9y4cWHo0KFW/3nzT96pS9pfpfbSHEZNMqgdERABERABERABERABEShDoGWjoTIR65QIiED7IMDgnqlW1113nRXIp1rhDBllD4KC44033rBt/q255prmrNeVAgz68QFz0003hSFDhiTh8APDdKLVVlstUfygcDj11FPDbbfdZuEOP/xwU7bceuut4a233rJjWAodccQRYZVVVjEFxUknnWTTqpKI4wYWLvztsssulgZTxlDgMBWMuPhzwb8O6fTr188UHX6cX6yQXnnlFVO0oGxBSH+77bYLP/zwQ7j44ovt2MEHHxz+/Oc/B1fWoCzA0ubuu+8O11xzjYXh31prrRW22moryzt5Qhj4oyx77LHHbH+eeeYJRx99tFk3oWyqRojr2WefDfvss48pW1AKrb/++uGpp54yi5/+/fuHo446KlB/WFM9/vjjVrfOFn9IAwYMCBtttFGTOiQPKDNefPHFcO2114YnnngiyRZOmanHjTfe2BQnyYnfrnnuuefCLbfcEh555JHk1GabbRY233xzKyP8EZRKTz75ZNhzzz1tH0UWdQsPBIXTRRddlDA/6KCDwu677x6wGKM94LOJuKgHeD744IOmFMPXEI67vZ3ed999TeqEa7ie/KPoSgtlLpZ/6p/8L7300k0URc1hlE5P2yIgAiIgAiIgAiIgAiKQh4CUOXkoKYwIdGACKGRQuiyzzDI2jQoLnPfffz8svvjiiTVGsSlWKAsQBtqXXHKJOfPNYmSlLKxPUC7ssMMONhDPhjnjjDOyh2ygfsABB4QLLrgg9O3bd5LzxQ6gUMKZ88CBAyc5zTmOv/3226aUcAfPWGHce++9puhJX4SiYPDgwelDTbZRGqAwOPTQQ5scZwclCH+77rpr2HfffU2pQnimqMEKQamAogcFDD6KZp99dlOszDXXXBWtZiyC1D+UNK6o8cMo4T7//HNzqIxvobSQBxxX33XXXVbGP/7xj5YmLOCHA+yssIqZTw+jzHPMMYcFQTFH3V966aXZS8I999xjfyheaAPeXiYJWOUB6pJ2kRWO33zzzaYcKnaOcr300kvhsMMOC3BGyP+VV14Z/v73v2cvMcUkyknawZZbbmnKyOYwmiRiHRABERABERABERABERCBHASq++SbI0IFEQERaH8EUG7gA8cF6xamSiFYgqAYwCoCwUrj97//vVkrMLjFOoJVmVxQCjFNKy0MmLHsIa5iguUECg733UMYBudYeqAIWXnllc0aw5UwnCcdlARLLbWUTaVhoJ5WDGHtsemmmzbx64P1CJYhWOMwTeeDDz4Il112GdElgtVRNv/JybjBdfgVQomRFnzezD///Mmhq666KkkLixOfxkYArH2wEsLqBCUDlipY9PzjH/8Iv/zySxJHczaw9CE9FDNpRQ4Ku3XWWSeJ8r///a8pMtzh9UcffRRuuOGG5Dyst9566yYOslEAESdTm2CI0iqtyKFtbLHFFk04XHHFFabU4Zp6Ce2KKYDnnHNOkoS3Kbf64cS//vUvqxPaFJZVzzzzTBNFDmWm7rnWhfaBsgyromoZeRz6FQEREAEREAEREAEREIFqCcgyp1piCi8CHZAAU4dYncqFqVbffPONTalh4Mt0IpQryEorrWSDdZQGHOOcyzHHHGMWOPhLQVlw2mmnhYceesgsUt59911TwHhY/0V5gkJjvvnmMyUBFh1Y8iAoW1Ce/OlPfzIrChRMPn0Ka4ltttnGfJugVMIKyPPINCIsSLAGwfri8ssvN0UJcWIhw7Qkyvzyyy8nShYUMUz5QalF2bBOwpoHJVFamGaDQsiVMzgvptwLLbSQ+XBhutpZZ51llzD1jClm5A+elYTVurDYoVzV+JxhahWKFyx8sLT67rvvzOLI08O6hDD4laG+Bg0aZMo1yoG1EkqML774IvHng0KDOuE4ShuWrvc6gQeKKBQoDzzwgCdhyja3wMGXzfXXX2+WQQRACYRfJqZC1UJQ5P3lL38JCy64oFmPYYlEWbz+UQwyrW7uuecOP/30kynsXOmE0mfddde1bKSVXVhSMXWNNoOCC8UQ5aYdcw3KsGoZFfMpVYvyKw4REAEREAEREAEREIH2T0DKnPZfxyqhCLSYAAoArGKwgMF/CIoRFCkMvhkMZ1exwuEsgnJg2223NQsYBtRMv2Hwz2Ce31lnnTXJG1O1sIbICtYiOGFGUGCgFMGagkE08aA8QaFTTsg//nWwAkHIHw6U8XmDRcgss8ySXE55OEaclNMFBQVWPsSFMBUHBVdWmcOUozQP/KqgCKL8KGJQFKDAwpqD+L///nsrF+VIC36KsBxCQUW+iRdBmYXCLG2llL4uu43PnD322CMsuuiidgq/QSgfmC6HwJfl3N3XD0oJlB3uAwmlFb5rvNxc89lnn4WPP/44TDfddFbHTMXC0ggFDnVOPWGdRDoIecVHDpY5CH6YUAihzCIMLFB+Ube1EBQ5lMvzTBnSSsVNNtnE2hR1go8c8oKVF0y+/PJLa1c4R8YCDaG9cQ2KHK5BKQYjlDkIikjqydPjWCVGzpuwEhEQAREQAREQAREQARGoloCUOdUSU3gR6KAEWL0K6wmUOQgDXZQAKFWw1EFQWiy55JLJSj+sEoQlCwoSnPtiyUL4cpJVzDB4TgtWMelBc/pcqW1WWiJf7pyW6VZejuw1PtWLsChaXPDNU8kahryjBMDyxeWQQw4J/BUTFBiwQUmAcssFZ7z4EGLVJPKz7LLLmoNe2DGdDSXQAgsskIsDZU+v5IQy5+uvv/akrF7c8XJyMLUBA5Rs1K37TSL9nXbayZQzOJhGmYOiC2UV9UV4GLglDOxQ3KXrEsXOYostlih8yBN5a6kwBQqLF08LflhfYU2DoKzCIsfbEOE4hsUU+eY4yiamTLkPI7hj2VRKKCvtpRpGpeLScREQAREQAREQAREQARHIQ0A+c/JQUhgREAFTZGCJ4tYVKHCwPsCCw61GsCZhoOwDabARhmlGKCgqKXLqiZkBPY5scbhbSpGTTh8fKGk/Liim0uVKh01vM6hHQZNXmKaWFqYusaw76SEor7BswRrHBeVBMSsmP1/ul+vc31G5cH6OKWBcg6Jiv/32s18/R70z9QtFBwonVo1C+YMCBaWWC8qR7FLeWEZx3MWXRvf9Wv5SBm+jKHuyVjEo6bC2oe1iPYbyqxpGtJNqGdWyfIpLBERABERABERABESg4xGQZU7Hq3OVWASaRQClAtYgDNqZkoIShyk/+FRxwQoH6wwXpkGxghDTilxwBIwfGabo4JOEVZ/qLVh8YH3iy4iTHoop8sIAHsVU1mExFhppnyYoXbJWQ8XyjcIHa5i8QpwoOjwtlAg+zcuVR5xPL5mNFY9bEOVNJx3O400fK7Xt6aB8wQkzzq2ZGoU/nGzdwRelCE6O08oblCkox9LCPoovl7Q1jR+r1S/KGZSQKHRoC3kUYdUwIp9wqoZRtX6PasVC8YiACIiACIiACIiACLQPAlLmtI96VClEYLIQwNcMU61Q5iDXXHNNki6+WZg2w4DWBSuNF1980XfNyTA+Y1CUMJDH70pWIZAEruEGVh+vvPJKEiPOj3eNDm2x0MgqGQiEggXlAlPLXJimgyLAp+f48ewvcTI9yqfo/POf/zTlVfo64iddZ0VY9x/E1CT8tqBwcIUI6aatfbAuSceXzUO5fdJMW8SgVMAZsFtc+bWkjwKPP+qK6V1wZJ+6xs8MljjUIT593H/MkCFDbPpdWvmERRaWUUwnc/Fy+r77MfJ9fovVTfp8nm2UMtQH+UGZw2pgKBmpA1fY4Hyadkj5qHccYKcZMYWMsmb9FHn+vD1Xw2jttddOfEHlKYfCiIAIiIAIiIAIiIAIiECagKZZpWloWwREoCwBLBywzEgv5+wXYJWDVYYLg2UsTHwpba5hMI8yAEFBkPZJ49fV6tctSogPqxrPB/soTlxRgpVLNh8M8lHKzDvvvAQ3wbqI1YooF4IFTdo3Dse4DmfK7myYY1iw4GjZhbw8/PDD5j+IJd2JD2UDVk8unHe/NpQD/y3uTJgwOF9urjKHOsSHjQvWUSgh3FqF/FBOVhpjqW6samDEilO77bZbwEcOS3YTnulJKPC22267ZIl3mHAN7FD6IMTP1Da3xEE5xUphvloUU8twpu3+fXzpb5xiu+KFeFC2pFlyrJJQJyjlvE5QLKHYI48IChn4Ypl1/vnnWz5po1hs4UsHwQoNyy73AcQxppFdffXVpqBEUVUtI2dBXBIREAEREAEREAEREAERqJbAxE/o1V6p8CIgAh2OAANjlDJMUcr6v0n7eQEMYRmUYxHBKkGEx5KHAToKgwcffNCmaTnElk4dQrmRtqZ44oknTCGD0gYFVNry5NprrzWlEuFRNKSnX6FoYICPooIpZT49h1WrjjzyyLDVVluZIgjrJLdQ8jLwS/iNNtooKdttt91mqzVhAYOCCEUNeUOwtmFJb5QzrLZ1xx13mEUPy2ijbGAFKJRQcHNLH6Y6oYxprjKH6+DBVCgUNCgoWDJ8++23t3pFwXTDDTckPmawSFlvvfUSxQb5Zhlv6hCLFRQZLAfv+UNhh3UL0+hYBYuVqpBBgwZZO1h66aXNmgf/RS5YwrCSFVZDXI9/Hl/h6thjj7W84UMIxZgrgPzaPL+0QfgyLRA59dRT7RdLG/J92WWXJeWlzlH+8McKVr6iGU6zaQPkFWbUq59DMYOSy5U/RF6JUSVn2pZB/RMBERABERABERABERCBEgSkzCkBRodFQASKE8AnDoobn1ZDKBwfF1MwYAHDEtEoTBAsPfgrJlg6oEhBCdQcQYGQtjhBIcIfznmZGoZi4frrr7eosbQotcIUyhMsirDOYAWsHXfcMZx33nl2HUuOp5cdL5ZPlCWs7nTYYYfZ1BzCMOgfPHjwJMFRHKBoIC0UZCh2DjjgAAuHJU7aGoeDKMdY5QonvS0RrId2jdPMPvnkk2QJ8htvvDHwlxbyhMUMihTqEW4oblDMHXfccemgyTbKJhQhKCtQfFF26gHBkoW/tGC9Qx2h/EFQbJGWK4FIk7+WCBY/5OtPf/pT0gZcoZOOFyfTTB+jLdEOUXihiLz99tstGEo4V8T5dSjvUFBRj9Uy8jj0KwIiIAIiIAIiIAIiIALVEtA0q2qJKbwIdHACDIwZgKf9h6AscZ8vaTwoH7BI2WeffdKHbdv9rviJ999/36Y7VVLmlDpPvlZbbbUwYMAAjzL5xeIDp8tYV/gUHj/JYLx///6+a0oErFOwzmH608477xzwsVNJUMh43rgOSw1WeiL+YkJeUC74qlVYEGEBg5VQ2sLDr8Va5ayzzjKlVHOtcjwuV1QRHwqXYrLxxhuHU045xaZREZ6pUAceeGDRuuR6zlPeLbfc0hQ5HGPq2AknnGDlZD8rWB6RB6ZqOTt4bLvttrbqWDY8+9n6Kxam2DEsfg466KBw8MEHFzttVlBYD2Eh5HlBacYqbFxXTKgnFH34v6H9NYdRsXh1TAREQAREQAREQAREQAQqEegUTeUbHUBUCqnzIiACk50ASoXmWGFwW+PThOkfDGJrLcT7zjvvJA5x8Y+CjxEG/cUEPzGE//DDD81/DQNmLD7II8ewyGEwjIKIqU+skIVPGgbVlB+lgCsw8G+TvoZ40mXEqgYfKK+//rrFwVQgLInwFYOCBmsU8sL0IPeLgvIFZRLTZ0iT4/PNN5+Vh7zhtwVfLaSLVQp5xD8QK3XhSwVBaYESwn3xcAx/N+QX6w7qkriYpkaesY4pxQvfMOQRqxYshbA4wvqplGKItFyoe/ztUE7KS7nxF+OWLx7Of6nLz+Ly8eSPKUdYmFA/MMdCJSvEiTNo8objYA8PM1dMZa9hypinQd7gDQPKRf6KCW0GbqTDNsos/piaRj4pJ/WOQgVe7777roWjnZB32o0rZdLxUwfUIfmhHNQleVlwwQWb1F36Gtop18AI59TUMWmQ//TqbX5Ncxj5tfoVAREQAREQAREQARHouARwSYFrBj5GF3uXTZORMidNQ9si0MoItFZlTivDVLfsMCh/+umnzdfKXnvtZYN3FDAcx4Hv0UcfbQoHMlBs1aq6ZUwRi4AIiIAIiIAIiIAIiIAItDsC1Shz5DOn3VW/CiQCIlALAlh+YOFz4YUXms8fnAVjHbPMMsuYxU/avwzTo7AqcuuhWqSvOERABERABERABERABERABESgFAEpc0qR0XEREIEOTwDzRqbhuLCaEX9pYRoXq0E1ZzpcOh5ti4AIiIAIiIAIiIAIiIAIiEBeAppmlZeUwonAFCCgaVZTAHoqSaxz8AszZMgQWx4c/y1pYUUonBjjy6WU/5t0eG2LgAiIgAiIgAiIgAiIgAiIQCkC1UyzkjKnFEUdF4FWQEDKnFZQCb9lASe+OO/FcTKOflm5CKudSo7JWk8JlBMREAEREAEREAEREAEREIHWTKAaZY6mWbXmmlTeREAEWg2Bnj172gpGrSZDyogIiIAIiIAIiIAIiIAIiECHJVB8HeEOi0MFFwEREAEREAEREAEREAEREAEREAEREIHWTUDKnNZdP8qdCIiACIiACIiACIiACIiACIiACIiACDQhIGVOExzaEQEREAEREAEREAEREAEREAEREAEREIHWTUDKnNZdP8qdCIiACIiACIiACIiACIiACIiACIiACDQhIGVOExzaEQEREAEREAEREAEREAEREAEREAEREIHWTUDKnNZdP8qdCIiACIiACIiACIiACIiACIiACIiACDQhIGVOExzaEQEREAEREAEREAEREAEREAEREAEREIHWTUDKnNZdP8qdCIiACIiACIiACIiACIiACIiACIiACDQhIGVOExzaEQEREAEREAEREAEREAEREAEREAEREIHWTUDKnNZdP8qdCIiACIiACIiACIiACIiACIiACIiACDQhIGVOExzaEQEREAEREAEREAEREAEREAEREAEREIHWTUDKnNZdP8qdCIiACIiACIiACIiACIiACIiACIiACDQhIGVOExzaEQEREAEREAEREAEREAEREAEREAEREIHWTUDKnNZdP8qdCIiACIiACIiACIiACIiACIiACIiACDQhIGVOExzaEQEREAEREAEREAEREAEREAEREAEREIHWTUDKnNZdP8qdCIiACIiACIiACIiACIiACIiACIiACDQhIGVOExzaEQEREAEREAEREAEREAEREAEREAEREIHWTUDKnNZdP8qdCIiACIiACIiACIiACIiACIiACIiACDQhIGVOExzaEQEREAEREAEREAEREAEREAEREAEREIHWTUDKnNZdP8qdCIiACIiACIiACIiACIiACIiACIiACDQhIGVOExzaEQEREAEREAEREAEREAEREAEREAEREIHWTUDKnNZdP8qdCIjAFCYwduzY8Nxzz4UPPvggjB8/vsW5GTduXPjwww/DL7/80uK42mIEo0ePDv/+97/DJ5980hazrzyLQEUCX3/9dfj8888rhmtuAO6dp59+OnAv5ZHvv/8+fPTRR0lQ8kYeO4LQZ9Pf/vzzzx2huCqjCIiACIhAByMgZU4Hq3AVVwSqJXDxxReH//u//wujRo2a5NIXX3wxnHnmmeHll1+e5Fx7OHDeeeeF5ZZbLvzpT38KG264YVhttdVaXKyvvvoqbLDBBuHuu+9ucVxTKgIGR4cffnigLNXINddcE5Zffvmw0047hX/+85/VXDrFwz7yyCNh0KBBNVHoTfHCtPMM/PDDD+Hxxx8PF1xwQfjuu+9KlrZedXr00UeHXXbZpWS6zT3xv//9L2yxxRZh3XXXtfh/+umnXFHBYf311w+FQsHCk7cjjzwy17XNDfT3v/89XHvttc29vGbX0Rbob2+++eaaxamIREAEREAERKC1EJAyp7XUhPIhAq2UQOfOncNFF10UbrzxxiY55IvnUUcdFf7xj3+EeeaZp8m59rDDIBBlzkorrRRuuummcOWVV1p520PZWlqG9957L9x2221VWdfQXlD89e3bN9x///2mDGppPup1/RNPPBEOOOCAkB4sDxkyJKCMGj58eL2SbfPxFuM2uQt16623hhVXXDHsscce4dJLLw0jRowomYVa1OnkLPNDDz0U3njjjXDSSSeFZ599Nsw666wlyzalT9A/3HXXXVM6G0pfBERABERABNo1ASlz2nX1qnAi0HICWFHMOOOM4ZxzzmkyMLrzzjvDp59+Gg4++OAwyyyztDyhVhYDX+2R/fffP6ywwgphjTXWCJtuumkry+WUyQ4cGFRWY6lEeAbW22+/fVhkkUVCnz59pkzmc6TKNJZ//etfTdr7CSecEN56661Wne8cRatrkGLc6ppgJnKUB0cccUTYeOONbRrSm2++GRZYYIFMqIm7tajTyVlm+iT6Yu6h2WabLXTp0mViYVrZFoonWcO0skpRdkRABERABNodgS7RbHxQuyuVCiQC7YTA0KFDwzTTTNOs0kyYMCE0NDSEXr16Net6v6hbt26mrLn33ntD7969bZoMfmT+8pe/hB49eoTzzz8/EAbBYuP66683S55XXnnFws8555welX0pf+aZZ8zaxQ8+8MADZvWy6qqrhq5du/rhJr+vvvpquO6668Ill1wSXnrpJRvIpBVI+EO47LLLLH6mfDHIIV0f7BxzzDFhzJgx4e233w6Y/z/55JNJ3jp16tQkLXawyGFgyLSGYcOGmc8FLHT4Iv7ll1+GJZdcMvz3v/8Np59+ephhhhkCii0slN5//31jxYDLhbwxzcHzTn1gmbLmmmuGpZde2oMlv+QNiwK+upNXLILeeeedsPDCC1teiOfyyy+3KU4wmG666ZJrKSNKCM7zZZxpUIsvvnhSP55nplsQL1OdmLaB9RV5Z1oE5Xj99dfN2mr66adP4k5vcJ7pdwsttJClf8UVV5gfHHjTHrCOQLDYom3A8uqrrzY/Ili2/Oc//wnLLrtsmGqqqSwcZcbqxcs633zzJUqTUnm+6qqrzDoBBRGcGDhSNzAlf3CiLTI9kLbgaZEg7RTGlB+FJO0a3lgPHXfccQGLDfyM8Pfjjz+G3//+9zYtDguttddeO3ibqdTeK3Gxwhf5VyneatozZRo4cKBNN6LduuC3iDr83e9+F6addlrzKVLuHipXFtpPKW6kV4q354VfBv/cd9xL3HfffPONtQl4u5Rro5Rz3333tTZJveZRFjLVMV2n5crofZznpVxbob3jEwvexe4Hj6NceTwMvzwHTjzxROu38LlFO6dfWWyxxSxYpfaC9RCKLazNaLvcO/Dp379/kky5OLiPKBMKbRfazmuvvWb3McfoU1COUW9ebsq3zDLL2CV52ixM6QMuvPDCQJ7pTx5++OHw7rvv2j3oafuv9w20X/LIPf/CCy9YH+xWS/Q3tIdVVlkl/OEPf7BLKz0vCPTFF19Yn0JemLJHG6e/Swt+i+hreTbRj9DX8kx04XlD+yJf9CM8F7xdwvuMM86w+8+P+XX6FQEREAER6NgERo4cae/PPHv8nbMUEVnmlCKj4yIgAgkBLDGwpmC6FQMLBuvffvttOOywwxJlEQNovogzqOarMdMAtttuO3uZ9Ygee+wxU2T4Pr8MMnjhZZBSTBh0brXVVqZk4EWZsOQHpQ7CdCj8QTAQRVFCPnbbbbcmPlmYIrbffvvZgJPBPQok/ODwMl5MUFYxsEDIF/sIZcMZMsLLOXkhbwxAEAY4+GeAEUJnzICJ4wwGP/744/DXv/7VzpX6x0s+8W622WYWnkEhgxG+xm+++ebhjjvuMMUUfow22WSTJG/k99BDDw2HHHJI+PXXX21QwbQmWKGQQjzPe+21lw1+/DgWJxtttJEpnVCooVjBLwe+cYoJAx3ySHwIyo+zzz47bLPNNjYIYhDHwBElCwJDFIvpbfffgQLpz3/+s/ldYrBDXdGOyBNSKs8ogM4666zwt7/9zcpLO2IfTltvvbUNNFFmMRUQLi60J+JHaUB6tGW4onxEqGtvi+TZ840CKj3VME97r8TF85T+zRNvNe2ZATEcTjnllKRNkx6KCxR/3Kt57qFKZSnFrRJv8sJAfJ999jElH/cJCkXuV467VGqjKHwZ3HNPcD/ynYq2VW6aVbZOK5XR8+K/pcrMefJS6n7gfKXyECYt3g45xrb3T3naSzqeYtuV4kBJjALos88+s8thiiKCNuW+1LBQot/wfN5zzz2mfPL08rTZAw88MJx88skBPzf0TXwwoA976qmnPJomv943bLvttoFny9RTTx1uueUWU1CjaComedo6z7Ytt9wynHbaadYX8KyhfdIuXej/8D1EuvBAaYdiHFYIzwn6XhSG5AvL1jWjAt+fW7Q9FO4oqiQiIAIiIAIi0GwC8YVaIgIi0EoJxJfnQhwwVP0XXygL8QWzEF+Ka1ayaFFTmH/++QuDBw8uxC+chfjFvBAHvRZ/tAKyYxyPygc7Fl/yC/Fl1q6JX9rt2IABAwpR8dIkT9G6xcLEL6hNjrND/EsssYSl5WUhLvIRp39Z+DgYL6y88sqFqDxKro8DestPHFjYMcKTt/jV2PajLxSLI1osJNdkN+IXWQvj13CevMRBpgWNg/8kH55OfLG3Y/fdd5+FiUoY249fbm2ff27kEgUAAEAASURBVHFQZMf4LSZxwGDnKZdLdKhqxyhzHMTZ4fil3I7FL9i2T3jKSZou0QLIjsUBkR3yPO+www6FuBKOBzN+8IkDKDtGuyOugw46KAmT3ohKADsfByR2OA5qbJ824kLd00ZcqB/ijF/a/VAhKrfsWFQuJW0pWh3YsahgsXCl8gwL4ourjFk4uETLATtG3blEZY4d83Z57LHHWr5oAwjtjnii8skvKcSv7XYsDsiTY1xHONp63vaeh0uSQNzIGy/5qKY9x4G15d3vkahstH3uZSTPPZSnLKW40Q5K8Y4KT7uvuIejEtLyQ1ivSzsQ/3G+XBv1+wE2/HGv8kvaxfoW4k3XKft5yki4tBQrc554KpUnnYZvRyVlk/4zb3vJlhO23n/miYN7DJZRgWFZefDBB22fY9FqxY5xjn3uaSSdBvucK9dmo0LJwkRld9LHRQWdHYvKXqKYRLxviMpau3cIEJU4Ta6h/yZt+lUkT1vfe++97ZqocLNreA5F5Y4d49kaVwOz7ajgSfot73+jwt+uoY8lXZ7DSFSM236cBmj7cE8/W+yg/omACIiACIhAJMCYh+cHz5xK40BZ5jRbDaYLRaBjEcBMnS+LfNHni2gcICTTmPgKzTFWfHKT8Z49e5rFA5T4at4cwXSdr55Yu8w000wWBdYUWKpguYJghYEVENOQSIevuFgbkB+ma7iQN44jTB+Kg73EGsPDNOeXr+8+PSwOViwKrEQQTP4RrFxcYJhHmHbmEgdGtomlEyaXCE5ekWxaWJ24eLpME0gL8fh0AKw2+BK91lpr2RQJrHGwOIBnHCylLyu7zZQq2ogL+af+3ErJj6d/PX6+YPuUOKZEkRd87DAdwiWdZz9GmuQTgYuXF2splzhotk0snpCowLCv6Xz5ZzU2puURR6kv+XZR5l817b0aLtXEW017XmeddawETGVC3NIB7kjee6iasljE8V8l3lh0cI+TR59Syv2JnyqXPG3Ul9qm/TO9hbYVlZHWBqtZVak5ZfR8pn/LxZOnPOm4Sm1X015aEgf3B31nVNZaNI8++qhNleW4+xbDEoUyl/NRVK7N+v1HX+99HFMm6e8ryeqrr56YoTMlknxwbxeTPG2dci611FI2bYo46JuY5sY0Mixv/HlGf0f7pc9ccMEFLTnvj51DVPaZlRZTtLBYxPIIwWzen0d2QP9EQAREQAREoBkEujbjGl0iAiLQQQkwhYfpLSzXzYDbxQfK6QEY51y5wbSc5gjTkhCWs05LOm2mGzCVBpN1BJN2BoeVBGVGnnCV4kmfd78aPgWCcvPC7v4b0mGr2XbFS9rvi6cVFfgWFcoPBjHpAQJhYIX/iVLidQc/Z1gqbDXHu3fvbsE9f8Wu9bS9nXgYFDDkmUFvNeKcUCS6ZPPBFI745T0ZkDFYRPEHu7zi+W5Oe8/mJ51mS+It156Zfsgg9vbbb7ephih1KC8DVqS591C5sni5KvF2hSuD8FLiXMq1UZ/ug28Wv0+ihYxNb/HBd6n4yx3PU8Zy1/u5dDx5yuPXlfv1eJrTDj3evHEwlZX2Ey36QrTMsdXoUNTiDwZFB9ONmO5UjaTbLNOfEG+T1cSTDYt/M6ZbMc01K5XaOu2R58If//jHJpfiD4c/BGUhgp+orLhSkamdKKPPPfdc+2Oa8q677hqidWr2Eu2LgAiIgAiIQLMJSJnTbHS6UAQ6HoFoNm6F5sU0Le6EN5qNpw/bV3EOpJUZ7o+kScASOzi2RHD4WUpuuOEGU0KgaGIwgQUPPmrw6TClhbwwWMKPhCtf6pUnlBLPP/+8WdX4wJG08Mng9VYsbXeQjd+a7GCsktO1YvFVc8ytuGg3aSXURx99ZNHMPPPMwQdH1cRbLizOgBncY93FIBjl384772xfz8tdlz5XTXtPX1dpu17xki7+PFCGYJWDA25WofP6rec9VIm33+MofUpJnjbqfQzWD7PPPrtFhaUP94X7hioV/+Q+nqc8efJUi/aSNw4sCvGJE6eHmrKDfZQe+MrClxjbaSV7nvynw3hfgDJl3nnnTZ+qetuV6a7cTUdQqa27dZj7B0pf69v0GQgOu7PPQj9HefAZRrvGNxs+g4488khri7vvvrtHpV8REAEREAERaBGBRnv9FkWhi0VABDo6ATcx5+tsWtzBMFOaEJQKTL1JfzEtN1h3U3Uck7pg6YFjTBxSIm76z4Dcp2Jh+t4apG/fvpYNHIy6+Bdo36/Vr381xrGmCxyYQpW1fPHz/Dpjn27E1An+GJSgTKmnLLrooha9txN2qF/aEYNwH6DXMg9YFfD1n4EnZcSio5QFUPRrUTTpvO296MVlDtYrXpJkWh5MWbob8SlWbNf6Hkpzq8TbB+7ZNkC7dcnTRn1lJy8L10ZfL2Z15Vw9vnr8pstcKf485akUB+e9XJX63XJx5Y3DrX9QkqPAmHvuue0XCy+3UMFis7ni+XAH88SDEg5LoEqCw3cXpkFhPUof5lM3/Ry/3j5KPS9QAPGcoj26UojrcH7MFDDS8n4dxaH3l/zSBuiz+GARfebYBwX6UJwpowhDslNe7aD+iYAIiIAIiEAzCUiZ00xwukwERGAiAZQorJDESh0s380LOctxs2IQPmV8Cst6661nF+Fvh0EeK86w6kkp4cUYXykMVlh2mGu4Fj8NrqDwQVx0EmzpYaHj04XKfe0vlWYtj0cnoxYdJvcs7c4KKJVWs2pu+nvssYddSvlZrYtpSqwIhLC6VymBMQMbpmnxC2PyyQpPxx9/fKnLanIchQqKPqYi4NeElY/wc8K0J6bO1UMYcFJW0mQqBmVGwYj/ER+Q+2CNJYfTijjPT9727uHz/tYrXtJnYMu9CFuWi3YlCudqdQ8V41aJ9wwzzGD5wqqMvoN7G4WTD7rJX542Spnw04RPL/5owyh9EfqQekmxMldKK095KsXB+Vq0l7xxYE2ENQ6S9svVr18/O0bfnp7eaAer+EfcPCew9EHxQX+JtWCeqbAok7C4of/gOUEbL2X9kqets0Ie6eJ7iyXZsfRkVa255porYEnGlDMUWqzuSFulr2U1K1YEpE/BhxpT/biO4yiGeB4i7usMpTt9T6kVA6tAp6AiIAIiIAIdmICmWXXgylfRRaBaAj4to9h1KCyY3oNpOYMprAB4WUX54oIfAl6yGWjxkszUGpxXYnlTKm5e1ImXF3wUDVhTHH744faiT7x77rmnfcHF1D+uImUDApYdZ1ljTOWXXHJJT76qX8+P/1ZzsTvwZMDMdB4GB/wh+E1gqkKleNPnPb50Hvy8/zJAZKlplot3hREDacz7s1MB0vGwjeKEwRqDDx9EM0hj6eFiks1Pdp9rPF/+6/Gk91EwwAI/J0zHQfgqjtNcvmaXk7xpenr+y6CMZYIZZCEoABhI8jUfqymm6KAoxG8PdffOO+9YW/LrPU952nvePHqc/OaJNx2+mm2chlPHWbZ57qE8ZSnGLQ9vlIYMnl0Rg5UDbdb9uVDGPG2UvgelLkohhD4Iiwq3WrODqX/ZOs1TxtTltlmszHniyVOebFrEm7U2ydNesuUk3nQe88TBNXFlMLtP3KE2x1BswJhzWUmnkT2X3fe+AGUMSn4ES5g8Qn5OPfXURPGD1SY+opBs2fO0de4T2iNxMh0R6d+/v/VLbJPXK6+80vIZV7EK/PFcYml1VxyiLObZxy+CoooPHvjrQuKKWNbXYoFGe5eIgAiIgAiIQHMIdIom7Y3eM5tzta4RARGoKwFe+OaYY46q0+C2xtSb6Ux8eZ2cgnUDFjGzzDLLJC/Sng9WS8KEnsFWXsHkHX8KpeLlPA4nJ3d58+Sf+vj+++8tb9nBWJ7rqw3jPkLc/0Pe673uYDg58pnOF22CKQyTq/64N2gz5RjR3nr37l3W4sCZlWqX6TJWs12veMvloVb3UDFu5Xgz1Q2fUrQBpslg/YATWwbIKNnS4lzKtVGm5nAP1HuaYDpfxcqcPl9qO095Sl2bPu7xtKQd1iKOdJ6q3eb+p+7j0vR2zzH9EYUOynkUvFnB9xXWM/iu2WSTTayPxdIrj3+yvG0dBW+5OGmzOIIu1dZIB0sh6iUrk8OXWjZN7YuACIiACLR+ArxT8JEVS8/sR4ls7mWZkyWifREQgRYR4GssViLlBEubahQ5xIVyoVy8nJ9cioByZSt2jo64XN6LXdOSY+UUFOXizVN35a5vyTnaxOSsP3dCWy7PefJTL2b1irdceWt1DxXjVo431mQoYrFWwWfJhRdeaANgpoVlJQ8Xpvu0ZMpPNs08+8XKnOe6POWZXPHUKi958psNg7KPpcuZwrXjjjsGVjLE4gcpZvWTvb7aPjZvW6/Ub9NvlVLkkEfSKabI4VwepRPhJCIgAiIgAiJQioCUOaXI6LgIiIAIiIAIiEDdCTD1hCkoTG9xYVDvPp/8mH7bLwGUfSj18PnFdDsX9luySpbHo18REAEREAERaI8ENM2qPdaqytRuCLTFaVbtBr4KIgIiMNkIMMUHH1csU49/EVZLknQ8AkxbYpUopt4ttNBCNsWpFAWseQg733zzhemnn75UMB0XAREQAREQgTZFoJppVlLmtKmqVWY7GgEpczpajau8IiACIiACIiACIiACIiACHZVANcqczh0VksotAiIgAiIgAiIgAiIgAiIgAiIgAiIgAm2RgJQ5bbHWlGcREAEREAEREAEREAEREAEREAEREIEOS0DKnA5b9Sq4CIiACIiACIiACIiACIiACIiACIhAWyQgZU5brDXlWQREQAREQAREQAREQAREQAREQAREoMMSkDKnw1a9Ci4CIiACIiACIiACIiACIiACIiACItAWCUiZ0xZrTXkWAREQAREQAREQAREQAREQAREQARHosASkzOmwVa+Ci4AIiIAIiIAIiIAIiIAIiIAIiIAItEUCUua0xVpTnkVABERABERABERABERABERABERABDosASlzOmzVq+AiIAIiIAIiIAIiIAIiIAIiIAIiIAJtkYCUOW2x1pRnERABERABERABERABERABERABERCBDktAypwOW/UquAiIgAiIgAiIgAiIgAiIgAiIgAiIQFskIGVOW6w15VkEREAEREAEREAEREAEREAEREAERKDDEpAyp8NWvQouAiIgAiIgAiIgAiIgAiIgAiIgAiLQFgl0bYuZVp5FQAQmL4FCoTB5E1RqIiACIiACIiACIiACIiACItCGCHTq1Gmy5lbKnMmKW4mJQNsjgCIn/UcJpNxpe/WoHIuACIiACIiACIiACIiACNSOgCtv+E1v1y6F8jH9P3v3ASdVdf5//NlK70WKgIINVOwlduwoaixRY6LG2FtijRo1fxOTmKhplvyMLfYaexcRe6MooigoCgoo0vuybf7ne5ZzuTPMNtid3dn5HF/D3Ln33HPOfd9l3PtwCsGcmn04ikBOCyhoU1lZaRUVFVZQUGCFhXxl5PQPBBePAAIIIIAAAggggAACSQJ6ViovL/fPS/n5+VFgJylTI3xgzpxGQKVIBFqCQAjk6IupqKjIfzm1hOviGhBAAAEEEEAAAQQQQACBhhLQP3rreUnPTfqH8EyNYiCY01B3kHIQaEEC+gLSS19I8W6DLegSuRQEEEAAAQQQQAABBBBAoEEEwjOTnp/Cs1SDFFxDIQRzasDhEAK5LKAvIXUZVJSZhAACCCCAAAIIIIAAAgggUL2Anpv0/KTnqEwkgjmZUKYOBLJQIN4zJwubT5MRQAABBBBAAAEEEEAAgYwJqHdO6JmTiUoJ5mRCmToQyFKBTEWVs5SHZiOAAAIIIIAAAggggAACkUAmn58I5kTsbCCAQFwgk19E8XrZRgABBBBAAAEEEEAAAQSyVSBTz1EEc7L1J4R2I4AAAggggAACCCCAAAIIIIBATgoQzMnJ285FI4AAAggggAACCCCAAAIIIIBAtgoQzMnWO0e7EUAAAQQQQAABBBBAAAEEEEAgJwUI5uTkbeeiEUAAAQQQQAABBBBAAAEEEEAgWwUI5mTrnaPdCCCAAAIIIIAAAggggAACCCCQkwIEc3LytnPRCCCAAAIIIIAAAggggAACCCCQrQIEc7L1ztFuBBBAAAEEEEAAAQQQQAABBBDISQGCOTl527loBBBAAAEEEEAAAQQQQAABBBDIVgGCOdl652g3AggggAACCCCAAAIIIIAAAgjkpEBhTl41F40AAgggUKvAkuUl9tGXM+2HhUutID/P+vXoYlsO7G3FRfyvo1Y8MiCAAAIIIIAAAggg0IgC9MxpRFyKRgABBLJVoLyi0t74eKoL5CyxDm1aWSsXwPn6+3n2zqfTsvWSaDcCCCCAAAIIIIAAAi1GgH9ebTG3kgtBAAEEGk7gm9nzbcXKMtt4/Z621aA+lkiYvfvp1/bd/MV+Oy+v4eqiJAQQQAABBBBAAAEEEKifAD1z6udFbgQQQCAnBEpKy/119uvR2b8reNO5QxsXyEnY8pKVOWHARSKAAAIIIIAAAggg0FwFCOY01ztDuxBAAIEmFOjYrrWv/eOvZllJaZktXlZi385eYEWFBdbODbsiIYAAAggggAACCCCAQNMJMMyq6eypGQEEEGiWApov5+vv5vm2zV201J5991O/rd45G6/fo1m2mUYhgAACCCCAAAIIIJBLAgRzculuc60IIIBALQKVbhjV6xO+tAVLlvuceS6C0651sVvNKt82G9DTr2hVSxEcRgABBBBAAAEEEEAAgUYWIJjTyMAUjwACCGSLQEVlwkaO/dyWrqiaE0c9cXYc3N/W797FtE1CAAEEEEAAAQQQQACB5iHAnDnN4z7QCgQQQKBJBaqWIv9ydSDHtWb7Tfpbv+6drGLCH63s7TPNyhY1aRupHAEEEEAAAQQQQAABBKoE6JnDTwICCCCQ4wIK5GjZ8XmLlnkJdcLZbrP+NqBHBysbd4VVTL7D7UlYXru+Vrj1FTmuxeUjgAACCCCAAAIIIND0AgRzmv4e0AIEEECgyQQqKivtrYlfmSY6DmmHwQOsf/d2Vj7+/7lAzu1ht1mb9VZvs4UAAggggAACCCCAAAJNJkAwp8noqRgBBBBoWgFNdjxy7OTVQ6tcl5zdthho63Vpb2Xvnm0VXz8WNbBw819b4aanRp/ZQAABBBBAAAEEEEAAgaYTIJjTdPbUjAACCDSZgHrkjBo3JQrkqCE7D97A1uva0cpe+5lVzBwZta1w6yutcIibM4eEAAIIIIAAAggggAACzUKAYE6zuA00AgEEEMicQFl5hb3j5shZvLwkqnQHN0dO366trHT0cVY565VV+/OscKvLXCDnbLM85suPsNhAAAEEEEAAAQQQQKCJBQjmNPENoHoEEEAgkwJlFRX27qRpNmdhbI4cF8jp37XQyt45d3UgxwVvCof+xgq3OC+TzaMuBBBAAAEEEEAAAQQQqIMAwZw6IJEFAQQQaAkCGlr15sdTbf7i5f5y8vLy3NCqAda3c6GVvn2GVc58ueoyFcjZ5iorHHxGS7hsrgEBBBBAAAEEEEAAgRYnQDCnxd1SLggBBBBYU6CiMmEvjfnMlpeURQd32XxD692to5W+PMIq53wQ7S/a5WYr2ODI6DMbCCCAAAIIIIAAAggg0LwECOY0r/tBaxBAAIEGEZj87Q+2YIl64OSZ64BjS9z8OCGQ4z7aTkMGWO8urW3li/tbYt5HVXXmFVjxbrdZfr+DGqQNFIIAAggggAACCCCAAAKNI0Awp3FcKRUBBBBoMoGFS1fYxK9mVVv/Dpu5oVUdKlyPnENXB3IKWlnRDtdafv8R1Z7HAQQQQAABBBBAAAEEEGgeAixP0jzuA61AAAEEGkygID/f98ZJLVA9dHZyc+T061jqlh8/3irnja/KUtDaina8zgoG/TT1FD4jgAACCCCAAAIIIIBAMxSgZ04zvCk0CQEEEFgXgQ5tW9mBOw7xw6wSiYRVulfCFdi9Yztr30bLj//UBXLGVVWRX2RFu95iBQytWhdyzkUAAQQQQAABBBBAIKMCBHMyyk1lCOSewHdzFtlToz62k4/axYoKC3IPoImuuF3rYtMrXUos/qJqt5sjp9W+T1hejx3SZWMfAggggAACCCCAAAIINFMBhlk10xtDsxBoKQLHXHinXXvnSDvo9H+blsYmNQOBxKr74ObJsU6bugZpSuRqUqLcyt49x1Y+N2z10uXVZGU3AggggAACCCCAAAIIZEaAnjmZcaYWBHJWIH9VnGDqt3Ns5uyF1r931ySLaTPn2Q33jvb71uveyS45Zb+k43MWLLVrbn3JzA0VUlKe37g81YUfLvvHU7ZyZdXy24MH9bJTf7JbUnnX3jHSvne9hXq6JbkvPXV/f2zBouX2x1teSMqX7kO/3l3svBP2Tjr09odf2WMvrZp7xh3Zb9fBNnz3zZPypPswfdZ8G/XeZPv0y1k2d8EyH+jq2K61DejT1fbacRPbaegGSafdcN9omz5zftK+8KGwMN9+d+ZB1s4Nr6pTWmVZl7yJlQutYtqTZpWlVj7lLivuW2VWl3PJgwACCCCAAAIIIIAAAo0jQDCncVwpFQEEVgkcuvdWdtP9r/lPH342Y41gzkMvjLMnX/3YH7/5ymNWnbX67eb7X7cnR02IdrRuVWRnHru7dWzfOtoX33ju9U9s6fKVftdToz+2LTfpaztvtWGU5dX3p9iUabNtUL/uUTBn+cpSeyJWR5Q5ZWOoKysezFF4SUGWMROnRzlnz19aYzBn2YpS+/eDb9h/HnnLKqvpqbRwyYo1gjmvj/nC5JcuFRcVuiDY/tbO6hjMsXgPqerCYqtq8r14qgJpCugozV+w3MZ/MsM237SX9e7ZcVVG3hBAAAEEEEAAAQQQQCBTAgRzMiVNPQjkqMCwHTeOgjn3Pv2+Hbb30CSJt8ZP9Z+7dGy7RhBkZWl5FGTp16uLffv9AltZWmbqzTN0075J5aT7oA4o6tXzxI2nW37oIpQmYysXDIkHfL6eMddmz1vic8b3KwAUTzNce0IgZ8jAXjbpq+9t/KRvXBvLrVXxml+vmoz49P/3gL3z0Ve+mOKiAttsw162zeD1TQEZ9dbR+cN3q75nj87ZZZuBSatVFRYU1G8+oljPHK1wVXNaFchRprx8q6iotDMufdhWrCy3nt3b2x3XswJWzX4cRQABBBBAAAEEEECg4QXWfNpo+DooEQEEclhAPWO6dmpn8xct8z1Lps+a54YSdfMiCxYvtylfz/bbm2243hpK8xYus+UlVb1Bfn38MLv4+ifcaKuE3fTA63br749bI398x547bGxvjv3SJn4xy/55zyi74Bf7xg8nbXfv0t4euO6kaN9v3VAt9RhSuvevJ5qW+k6X1FtGSRM7X3b6gXb8JXf5QM4dj79jZx27xxqn3PLwm/buhK/9/g3X72aP/P0UZ9PWBWZWR1TKyyuSPqcWoqFYt/3hZ9W2KTV/+s+xAE21A9biZ4b8+VbiAlUK5CjNnb8snoltBBBAAAEEEEAAAQQQyJBA+ieUDFVONQgg0PIFCgvy7ayfVgU2FIh5Y2xVTxxd+Y33vWblrqeH0unH7O7f4388Meoj3xOkyPVG2d/NRTPMzSWj9Or7k+2H+VU9Z+L549s9XIBm2yH9/K57nv7ANLxJKRY38Z/X5Q/NeaOkXkU7uzluNN+N0hMjP3JDqEIAxO+y0rIKu+vJ93wwSj2B7vrzCdatc7s1AjeFLjBU4MyqSyp1hZsTKP4qWTVHUHXnrLE/TIBcr0COK8Xhxa+L1cnWkGUHAggggAACCCCAAAIZEaBnTkaYqQSB3BY4wAViNNxJq1kpEHP8oTtameuBovltlPq7iYX32H6jJKTSsnK78/F3/b79dxls7d3kvscctJ0/XwGFMZ9Mt4P32CLpnPiH5SVlfn6bEy672xYvLbHTrnrA7rnmhAYL5qhX0Xuretmc9pNdfQBmxy038EOlZv6wyPcoUptDKnHDw5Yuq5rLZ7OB65mGjYX0wpuf2jtuIuV4Ov7QnWyTDXrGd/lt9Vba9ohrkvYrKPTGvRfUeahVoj5z5qimEJdyw6ziwRxNvExCAAEEEEAAAQQQQACBzAvwm3jmzakRgZwT6Nmtg3XqUDVh8bsffW3L3ATFi9wkv5roV2nYTpuuYfL5V7NNq0wp7b3TJn6YVp8enaJ8z4yeGG2n21CwSHPLKJCk9J6rd+q3c03zyzREeuKVCX5IlXrSjBi2pW/fj7Ye6ItWT5kHnhuTVI2CIGFp9jati5OOjZ/0rd3/7Jik16wfFibliX+odD2cUl/x47Vt58XmzKktbxTI8RnpmVOrFxkQQAABBBBAAAEEEMiAAD1zMoBMFQjkuoCG45xz3F72h/973g03Krfn3vjUB3MUcFFKnRRZ+8Ikwdq+8NrH9ZaURr7zmS+jU4c2SfvDh7BS1K+P39teeHOSH9507W0vWxu3GlZDpJfemuSL0Rw3Ox973RpFXnfnK/bLI3ZxwaOqmLnm3VEgScOtNIFzPGk4WMnKHVywaY7r7TMtfmiNbfXCefO+C5LmzNGMOwoq1TXlFXWwxEq3zHmeOye/tv8NqFvOqq456pkTDdFycwW54W8kBBBAAAEEEEAAAQQQyLwAPXMyb06NCOSkwM8O2cHatanqkfLKu5/bbf972zsMHtTLtkqzMtVjL38YOeW7uVrCK8x5o84lNS0nXrFqzhoNVbropH19WaM/mGKz5iyKyl3bDc398/mqiZtVRmib3kP7tOrTVy44E1Lb1kXWeVXg6fu5i+3vd40Kh/wqXlf/6hA7fN+to33VbShwo+BY/FWfQI7KLdrrASvY4kJrNfwVs4L0S7yH+hOL3LxAUQAnb/Wmbwf/CwlOvCOAAAIIIIAAAgggkEkBfhPPpDZ1IZDDAgo+DOzXwwu8//HXNnfBUr/9sxE7rjEJ8MQps/yQKGXQpMdjH700ej3z77OiZcZHvfe5LyP9H2GiFzMFktQjR3tmzq5++FL6ctbc+/jICbZkWYk/cMEv9onapnZecOI+0QlhgmTt0KTGfzzv0Kjt/3nkLbv8X0/bdy6wo0mg9VKvpdqSrkHzAWmVr/grDOGq7Xwdz+u0sRVtdYnlddigxuyVs9+20tFaNazKMq9dXzdnTtWE1TqxvkGkGivjIAIIIIAAAggggAACCNRZoLb+9XUuiIwIIIBAbQI/3nuoTZwy0wVCqiYCVv5d3bw2qUkTAod05k93t84dVw+laut693Tt2M7mLlxq4yfN8EGVDm657ppSp/Zt7I4//tyOv/RuvzpWTXlrO6a5b/7v4Td8Ng2hOubAbZPapyXR/7aq183dT71vpxy1azQx8V7u2OlH72YK5GiI2YPPjfUv9ehR0jw4tSVNgLzVj/+0RjYtV77PzmvOPbRGxjruqJz3oZW+9jMXx6kKMOV129qKhv7GKhaubqMCdCQEEEAAAQQQQAABBBDIvAA9czJvTo0I5KyAesi0Kl4dQ956s/Wj5bzjKG+Pn+o/ajWoIQN7xw9ZsZunRUOzlFa43in3PfNB0vHoQxjvtGrHTkM3tKGb9I0Or+3G4qUr7Du3WpXSkEG9rUfXDklFbb5Rb79UuXb+MG+Jjfv0m6TjF/9yP7cs+fE2cP1u3kJhnDCZcZ5rczt3zQPX725rBqiqAj5JhTXSh8SK76xs9E/NyqsmoM5r09OKhz1g5fkd7fHnP45qLS4mmBNhZHBj+fLlNmnSJFuyZEkGa6UqBBBAAAEEEEAAgeYk4BY1qcM/BTenFtMWBHJIYPr06danT596X7H+WpeXl5se+rp3775O53fqtHoFqXoXlOYErWQVeqAosFNctDq4E7IvdXl0DQpuxJf3Dsc1ifBKt9S3knrHxFeHWrq8xJ1bNaypbcqqUfHz8vNd4KTN6qXDQ9l612pUYXLm1KCK2qX2KWmYUboJlVe48zUxslJrN7wrXQ8WlaN8FRUJN4hp1TAml1955aJrjycNqdI8PNUlGYTJlqvLU9f9Kx/bwhIlP1RlL+5krQ8ba+beb/rvm/bS66uHtp114m42fFjVamF1Lbu6fBq+ddVVV/mf25CnwE0YPWjQIDvwwAOtV6+qAF44tjbv9913n3344Yf2t7/9bW1Obzbn3HnnnXbyySfb22+/bbvssstatUvfDRdffLGNGDHChg8fvlZlcBICCCCAAAIIIIBAssCiRYusbdu27jlhzd/nk3Om/zR37tw6n7/mU1T6MtmLAAIINIiAep7UltIFcOLnqHeOXulS+7bVD7mq6bx4WQrA6JUuKciSGuBJzecDPNWcH/KqnNRgUziW7r0+edOdX9d9ZW6OnBDIyWuznhXt/5wP5Nx811tJgZxTfrqzHbDnZnUtttZ86mly9dVXW8+ePa1z584+/5QpU/x7hw4d7IMPPrDNNlu3+i688EIbOHDNYX21Nq6GDP/85z9twoQJ9t///reGXA176LXXXvMFbrfddmtd8Pjx4+3f//63bb/99lEZp5xyije+6KKLon1sIIAAAggggAACCDRPAYZZNc/7QqsQQACBJhHI67WHq9etytWqmxXt4QIUbfvZ7Q++5wI5n/n2qMPQ0YdsbYfst0U0mXNDNPStt97yxTz44IM2efJk/1qwYIFdcsklfjjRrbfeus7VfPXVVxbqWefCVhVwzTXX2LRp0xqquFrLUY+ul156yfbbbz9r1ar2wGh1Be62224m35NOOslnmTp1qt1xxx1WUlI1sXd157EfAQQQQAABBBBAoHkIEMxpHveBViCAAALNQqBw8BnW6uDXrfiQdyzRZVt77PkJ9vTLE/3QNQVyhu89xI4/cocGDeTowkePHu2vf6eddooc1EPnmGOOiT4rkHHuuef6HiV//etf/fCrEJyZNWuW33/00UebXgpMxNObb75p559/flLg5fvvv/fn/PjHP7af/exn9txzrhdSLGno15NPPunP23///f377NmzfY5//etfdsIJJ9gPP/xg33zzjZ122mlWVlY19C8U8f777/v9CiKFpDqUt7S0NOyy//znP3b22WdHQ8xqapd6K6nOrbfe2v7whz/YQQcd5NvxzjvvROVpQ118//e///lgjdr57LPP2sqVqyce//3vf2833XSTX53srLPOsjPPPNOf//LLL5tsQ6qpLSEP7wgggAACCCCAAAKZFyCYk3lzakQAAQSat0AnN5ypuLM9PfITu+d/Y3wgRw0ePmyInXn8rg3edgVNXnjhBdt1112tXbt2SeW/+uqr/vO2225rCmQoAKHAx6WXXmrfffedrb/++n4enG222cYUoND5n376qWnI0F/+8peoLPX4ue2226xHjx5+38SJE22rrbaKgigPPPCAnz9Gw7mUFPg48cQT7fDDD7fnn3/e9w7SkCoFdRRUUgBn3LhxPu/mm29u7du3t6Ki5KF5M2fO9HUq+KK0bNky++Uvf+n3KdiipDxnnHGGtW7d2o+trq1dmidH6brrrvMBmuLiYrv33nu93Zw5c/wxlb3jjjv6ujQ3js455JBD7PLLL/fHly5d6ucnUt3qnaPP7733nj+2wQYbWLdu3fx2bW3xmfgDAQQQQAABBBBAoEkECOY0CTuVIoAAAs1PYPHSErv8r8/ZmZc9Yudc+bj99+HVK4WN2HdzO+1nP2qURoeVmTR0KCQFJB577DHT/C2a5+bII4/0QQkd1+S/CrZorhpNkqxAz8Ybb2xffPGFn7tGARnNs3PzzTeH4vzQpJ133tk6duxo6sWjwJHO0YpQ6rUSgkbh/bzzzjNNmPzMM8/Y559/bu+++67v8fPxxx/b/Pnz/STKCpgoPfTQQ/b3v/89qitstGnTxm8qWKWkPCGwE4I5119/vT922WWX1aldYb4ctU3XqZ5Dv/vd73wZIRB1wQUX+MDXRx99ZA8//LDpXSnMQRQCN3vuuacP3Nxzzz2mtu61116mbQXC6mLkC+UPBBBAAAEEEEAAgSYRYALkJmGnUgQQQKB5CUyfMd9++5fnTAGd1LTfHpvaScfs5AInjRP/D0OltMqUeshoJbYwNGno0KH21FNP+WBDCGQoSKMeKUoa7qSkoIgCNUrqndO7d29buHCh/6weKCrvuOOO85/Vu0dBHAU91MNGKcwVoyCQ8t9yyy0+eKPVnkJSfgVAQj3qsaMAiFYsSJfCfl2PgiMKupxzzjm+d5HqVz3q7aN5d7Tq3G9/+9sa2xWfL0fDwkIKvY3Uu0fp22+/9e+jRo2yLl26+JeCX/n5VfdPQ86UFNBS0nw5CjJpCFtItRmFfLwjgAACCCCAAAIINI0AwZymcadWBBBAoFkJPPXyJ7ZsRamd7ZYb323Hgfbe+Gl2w51vWMcObezME3ZNu7x6Q11AmC9HvWGUFHRYb731TMOXdt99d79MezyQESb+1RAiBYAOOOAAU6+beFIAZcCAAX5XCBapLJ2j4ImSevukpv79+9vdd9/td1955ZVJhzWfT5jTJ10AJCmz+xB65lRUVPhAjnoQ/frXv/bBHPXMueuuu/zqXQqi1KVdYb6cvffeO6kqBYaU1HYlzaWjXkuam0cvDRWT04YbbuiPK8ij3k79+vXzn8PQrT322MN/rktbfEb+QAABBBBAAAEEEGgyAYI5TUZPxQgggEDzEfhy2lzr3LGNHbDXYBc8Mdt3903t4Wc+suUuwOOmiGm0FJ8vR0GI6lK6QIYm51XSZMDxpPl31BMnTOr7+uuv+8MK+KiHjJLm1znqqKP8dvwPBTwef/xxv2ujjTaKH0raTg2AJB1c9SH0zNFEyJqQWe0I89F88skndsMNN9jtt9/uexJ9+eWX/qya2qV5f5RC0MV/cH888cQTPuilYWNKuk71+tHQMM2no7mCZsyY4YdlaX4ctV3z9IQUgmlhmfK6GIVzeUcAAQQQQAABBBBoGoGqPtdNUze1IoAAAgg0E4FundvaEjfEqmRlmQ/ezJm/zH6Ys8T3yCnId9GdRkrp5stJV1W64EmYd0YTC4ek4NAVV1zhP2ruFyUt5R3my9F8N0rquTNkyJDopc+bbbaZ700TJhJWj5qQNLRLPYVC0OWNN97wh0IAJOSLv4eeOZoPR71jFITp1KmTz6LeOJtssomfZFk76tKuMMws9MDReQrkjBkzJprs+dBDD/XDpQoLC32AR8PFevbsafPmzVP2aKJjDRcLKXW4WF3aEs7lHQEEEEAAAQQQQKBpBOiZ0zTu1IoAAgg0K4ED9x5sYz/+1k48737r1bOjzZm31Cpdl5xfNuJcOQKID4GqCSQEMrbbbrso25ZbbuknOtawqF122cXPZXPjjTfa+PHj/QpUWto8db6ccM7VV1/tV5fSkKVXXnnFz10zcuRI23fffX1ZWkJc8+Vo2W6tWqXluhWACb11VqxY4duhQJGCNKHHTdQ4txGCOdp37bXX+kMaQqZ5eTQ0SvsUdFGqrV377LOPD0opr4JUGj712Wef+cDVYYcd5tusY5MnT/aTNitQpLZqEmnNh6OgjlLqfDkaUqXjvXr18iuKachabW2REQkBBBBAAAEEEECgiQXcPAQkBBBopgLTpk1LlJaW1vvlJjtNuN4KCdfDYK2uzPVu8HW6CWTX6nxOyj4B3fPR73yROOmCBxKHnnSbf39+1KRGvxA3KbEGcSXc8J8a63K9SxJutas18rhgUELHVIZew4cPT4wdOzbK51aa8vtd0CXa51asSjrHzWWTcEONouMu0JJwPWmiMt38Mgk3HCoho5DcEKnouP6epkuuh4vPc+GFFyYddoGWhJt8OKk8ZaipXW6lLl+WCy4ltf3UU09NuB5KUfm6drU3eLjgTMINz4qOu3mD/PFoh9s4+OCDfX63zHu0u6a2RJnYQAABBBBAAAEEEEgS0POTnt/ivzcmZajlg57f9Byn57nangPzVJb7pY+EAALNUGD69OnWp0+ferdMf601bET/6q5Vcuqb4ueHYSH1LYP8CGRSQPPndO3aNVrlKtSteXPUK0VDssIqVOGYeqS0b9++2tWo9PdHc8xomFK6NHfuXCsqKoqGTqXLszb7amuXytS8Nvq7HVb1Sq1Hw6rUMyjM25N6PPWzejDJL96bSHnq0pbUsviMAAIIIIAAAgjkqoB+59TvX+p9naeJKOuZ9PtlXc9nmFU9ccmOAAIIINAwAnl5CxqmIF9KK/en5s6pmj+npKStud4sPpBz8skn+0DOmvUVufwrV73cW9qkPNW1s8Adq6zheNoC67CzLu1q48pZfb1rFqop8Wq7tvhZWl5dy9KnLk2f3JZjjy22Bx9sFz+RbQQQQAABBBBAAIEmECCY0wToVIkAAggg4MZEJbo0GsOwYcNM8+xofhqtEKXUmPU12oVQMAIIIIAAAggggAACaQRYzSoNCrsQQAABBLJb4De/+Y25eV/8KlF9+/bN7ouh9QgggAACCCCAAAIIpAjQMycFhI8IIIAAAtkv4CZCzv6L4AoQQAABBBBAAAEEEKhGgJ451cCwGwEEEEAAAQQQQAABBBBAAAEEEGiOAgRzmuNdoU0IIIAAAggggAACCCCAAAIIIIBANQIEc6qBYTcCCCCAAAIIIIAAAggggAACCCDQHAUI5jTHu0KbEEAAAQQQQAABBBBAAAEEEEAAgWoECOZUA8NuBBBAAAEEEEAAAQQQQAABBBBAoDkKEMxpjneFNiGAAAIIIIAAAggggAACCCCAAALVCBDMqQaG3QgggAACCCCAAAIIIIAAAggggEBzFCCY0xzvCm1CAAEEEEAAAQQQQAABBBBAAAEEqhEgmFMNDLsRQAABBBBAAAEEEEAAAQQQQACB5ihAMKc53hXahAACCCCAAAIIIIAAAggggAACCFQjQDCnGhh2I4AAAggggAACCCCAAAIIIIAAAs1RgGBOc7wrtAmBZiCQl5fnW1FZWdkMWkMTEEAAAQQQQAABBBBAAIHmKxCem8JzVGO3lGBOYwtTPgJZLKAvoiVLlmTxFdB0BBBAAAEEEEAAAQQQQKDxBfTclKlAjq6GYE7j31NqQCArBfRFVFhYaAsWLLCKioqsvAYajQACCCCAAAIIIIAAAgg0toCel/TcpOenTAV0COY09l2lfASyVEBfQgUFBdamTRsbN26czZgxg6BOlt5Lmo0AAggggAACCCCAAAINL6Agjp6T9Lyk5yY9P2UqmFPY8JdDiQggkO0C4QtIkeWOHTtav379bOrUqTZmzBgrKyvzl5dIJLL9Mmk/AggggAACCCCAAAIIIFBvgfC8VFRUZD169LBBgwb556bQMyccr3fB9TiBYE49sMiKQC4J6AsoPz/fiouLrWvXrta+fXsrLS01gji59FPAtSKAAAIIIIAAAggggEB1Anpm0vOSXgrk6PkpE4EctYdgTnV3hf0IIOC/iPSFpIizvpzUdVCJgA4/HAgggAACCCCAAAIIIJDLAiFoo/f4K1MmBHMyJU09CGSpQPxLKksvgWYjgAACCCCAAAIIIIAAAo0qEJ6bGrWSWOEEc2IYbCKAQHqBTH8xpW8FexFAAAEEEEAAAQQQQAABBCTAalb8HCCAAAIIIIAAAggggAACCCCAAAJZJEAwJ4tuFk1FAAEEEEAAAQQQQAABBBBAAAEECObwM4AAAggggAACCCCAAAIIIIAAAghkkQBz5mTRzaKpCDSVAKtXNZU89SKAAAIIIIAAAggggEA2CGR6nlGCOdnwU0EbEWhCAQVy4i81heBOE94QqkYAAQQQQAABBBBAAIEmFwjBG73HtzPVMII5mZKmHgSyUEBBm8rKSquoqLCCggIrLOQrIwtvI01GAAEEEEAAAQQQQACBRhLQs1J5ebl/XsrPz48CO41UXVQsc+ZEFGwggEBcIARy9MVUVFTkv5zix9lGAAEEEEAAAQQQQAABBHJdQP/oreclPTfpH8IzNYqBYE6u/+Rx/QikEdAXkF76Qop3G0yTlV0IIIAAAggggAACCCCAQE4LhGcmPT+FZ6nGBiGY09jClI9AlgroS0hdBhVlJiGAAAIIIIAAAggggAACCFQvoOcmPT/pOSoTiWBOJpSpA4EsFIj3zMnC5tNkBBBAAAEEEEAAAQQQQCBjAuqdE3rmZKJSgjmZUKYOBLJUIFNR5SzlodkIIIAAAggggAACCCCAQCSQyecngjkROxsIIBAXyOQXUbxethFAAAEEEEAAAQQQQACBbBXI1HMUwZxs/Qmh3QgggAACCCCAAAIIIIAAAgggkJMCBHNy8rZz0QgggAACCCCAAAIIIIAAAgggkK0CBHOy9c7RbgQQQAABBBBAAAEEEEAAAQQQyEkBgjk5edu5aAQQQAABBBBAAAEEEEAAAQQQyFYBgjnZeudoNwIIIIAAAggggAACCCCAAAII5KQAwZycvO1cNAIIIIAAAggggAACCCCAAAIIZKsAwZxsvXO0GwEEEEAAAQQQQAABBBBAAAEEclKAYE5O3nYuGgEEEEAAAQQQQAABBBBAAAEEslWAYE623jnajQACCCCAAAIIIIAAAggggAACOSlQmJNXzUUjgAACCNQqsHh5iX305Uybs3Cp5efnWb8enW3LgX2sVRH/66gVjwwIIIAAAggggAACCDSiAL+RNyIuRSOAAALZKlBWXmFvTJhqK8vKrUv7NlZeWWnTv59vS5avtGHbbJytl0W7EUAAAQQQQAABBBBoEQIEc1rEbeQiEEAAgYYV+Gb2AispLbPN+veyLTbs5Qt/b9I0mzl3obm4juup07D1URoCCCCAAAIIIIAAAgjUXYBfx+tuRU4EEEAgZwRWlpX5a+3TrWN0zR3btbZEwmzFypXRPjYQQAABBBBAAAEEEEAg8wIEczJvTo0IIIBAsxfo3KGtb+PYKd/YspJSm7d4mX01a54Vu/ly2rVp1ezbTwMRQAABBBBAAAEEEGjJAgyzasl3l2tDAAEE1kJA8+RMmva9P3PxshJ74f1Jfjs/L8+GDuqzFiVyCgIIIIAAAggggAACCDSkAMGchtSkLAQQQCDLBUrdxMevffSFn+hYl1JYkG99u3f27+v37Gw9OrXP8iuk+QgggAACCCCAAAIIZL8AwZzsv4dcAQIIINAgAprw+MUxn1u5C+goFRUW2G5bDrRuHd2QK02Wk8fI3AaBphAEEEAAAQQQQAABBNZRgN/M1xGQ0xFAAIGWIKChVS+8/1kUyNGQqj2GDrJu7VtZ6cuH2srHhlhixeyWcKlcAwIIIIAAAggggAACWS9AMCfrbyEXgAACCKybgAI5I8dOtgqtOe5SngvkDNtmY+vSJs9WPreXVc553xIr51v5p/9at4o4GwEEEEAAAQQQQAABBBpEgGBOgzBSCAIIIJCdAhpaNWrcFNO7kgI5+2y7iXVpVWalIw+1xOIp0YUV9B4WbbOBAAIIIIAAAggggAACTSfAnDlNZ0/NCCCAQJMKrFhZaiNdIKfU9cxR0rLje2+9sbUvWGqlo462yvkTo/YV7X6n5ffdL/rMBgIIIIAAAggggAACCDSdAMGcprOnZgQQQKDJBJYsL3GBnMlWWekmNnapdXGR7bnVIGuXv8RWvnigJZZ+U9W2gtZWvNcDlt9rt6rP/IkAAggggAACCCCAAAJNLkAwp8lvAQ1AAAEEMiuwZPlK3yMnBHKK3apVe269kbWvnGMrn9jJrLJqyJUVtrNW+z1teV23zGwDqQ0BBBBAAAEEEEAAAQRqFCCYUyMPBxFAAIGWJbCspNRe8T1ywmTHZvtuv6m1KZ1ppc/tuTqQk19orYa/bHkdN25ZAFwNAggggAACCCCAAAItQIBgTgu4iVwCAgggUBeBZStW2ivjp0SrVhUVFNj+O2xmrZZOstLXjrVERYkvJq+glRUfOJJATl1QyYMAAggggAACCCCAQBMIEMxpAnSqRAABBDItsGDJcnt9wpdWXlHVI6ddm1a211YbWatF46zszV9aomSeb1KeG1pVPFyBnI0y3UTqQwABBBBAAAEEEEAAgToKEMypIxTZEEAAgWwRKC2vsLcmfmXqiRNSmdtXmaia7LhTu9a265YDrdXC912PnOPNypf5bHnt+1vxAS9aXuvu4TTeEUAAAQQQQAABBBBAoBkKEMxphjeFJiGAAALrIrDUBXHmL64K0KSW08H1yNlty0FWPPc1F8j5uTtcFeDJ67SpFWuy41ZdUk/hMwIIIIAAAggggAACCDQzAYI5zeyG0BwEEEBgXQUUsGnbusjKy6uGVFWFa8wKC/Jt2DYbW+F3L1jpm6e4aqqO5LtJjosPeN6sqMO6Vs35CCCAAAIIIIAAAgggkAEBgjkZQKYKBBBAIJMCRW6p8eE7DrFVo6qiqvPyzPLcH6Uf/8XtWx3IKTrwRQI5kRIbCCCAAAIIIIAAAgg0f4H85t9EWogAAtkscM1tL9luP/+b3ffsmGy+jKxru4I2+fnJL+1TSpRXrVplBa2taN8nLK+2HjmlC6xi1mh3YkXWOdBgBBBAAAEEEEAAAQRaogA9c1riXeWaEGhGAve7IM7yFaX2+5ues0P32tI6tm+d1LpyNzHv1zNXraTkgg0b9e+RdFy9S7785odoX/u2rax3j07R59SNqd/MiSb67dqpnXXr3C4pyzez5tvKsnIrLiq0AX26+mNqwzS3v7bUurjQ1u+VPKfMMndts35YGJ3as2sH69ShTfS5po3KyoR9NWOuzZ63xCrcKlOd3Xkb9O22hpHKmDF7oZWsLEtbnII0G/TtagX5dY3PVw2/sjyX3y1DXmMqW2Irn9nFr3aV2PRUK9z+TzVm5yACCCCAAAIIIIAAAgg0vgDBnMY3pgYEclpg160H2sh3P7eKykr78ts5tu3gfkkez7/5qZ13zf/8vsP2Hmr/uPSopOOvuHNPv+qBaF/3Lu3t7fsvNA0lSpcO/9WttnR51SpO/Xt3sadvPjMpOHLaVQ/alGmzbVC/7jbyjl/5ImbPX2L7n3JjuuKS9g3dpK89edPpSfv+de9ou/1/b0f7jhm+nV1z/mHR53QbCl7d89T79vToj23BouVJWTSvzfGH7mRXnjk8af+v//yIffjZjKR94YMCU+88cKEpeFWnlDT+qqq3TnXnJcpXWKJ0sT9cuWhylE0BujZuXp7Q2yc6wAYCCCCAAAIIIIAAAgg0ukBd/xm30RtCBQgg0DIFDt17q+jCnn7142g7bDw1qmpfoQvOXHX2wWG3f9dS2n+7a5TfLi6qCt4sXLzc92RJyljNh2++W2A33OeGB9WSFJBo26Y4eimgElJ8f+tWRWG3fy8pLbeHnh/rt9usOvbOh1+tMVdN/KRR7022EWf82+5+8j0fyFFvHwWo1KNHvZYqXG8dBaGqS2qreielvuoXVKmaL8fXUXMsx2WJ5bU8f20PPTXefnr2PXbXIx9U10z2I4AAAggggAACCCCAQCMK0DOnEXEpGgEEzHYaOsD33ki4wMxDL4yzy049wFq5AIaS9k2YXNXbZAM35Cl1eNKiJSvsm1lVQ7CO2n9be+C5MVbuhiM99/ondvrRu9XIq9WclpeU2V0uaPLTg7a3QSnDt+In93HDtj556opo12//8ZRvq3ZMeOK31Q5fen/C174XkIY3nerac4PrpfPt9wvsg4nT3HVvEJUXNr6fs9jOvvohKy2rsAIXMDrW9eK5/IwDrXXx6iDRN9/NT/oczg3v3Tq1tXcfurjaNoV8Nb0nEquGWblMee6/2tOqgI4blqWhXvc/Mc6f8uSLE+2kY3aq/XRyIIAAAggggAACCCCAQIMKrP7n5wYtlsIQQACBKgH1Ojl4zy38h1LXk+XtD6dGNArKzF81zOiQYVtG+8PGJ1NmmXq/KJ10xM7Wr3fVHDc3P/C6W3a75sl4R+w11Hr16Gial+bcPz0SimzQ91ddLxulwsJ8O/nIXaydWxJcSUOvUpN6Gf3it/f4QI6O/eGcEXb1rw5ZI3CPo16iAABAAElEQVTT311jz24dUk9v0M95ri11T7G8Lpij4XIhKSBFQgABBBBAAAEEEEAAgcwL8Jt45s2pEYGcEzj1qF2juVVefW+Kv34FNxSUUdJQppMO/5Hfjv/xj3tf9R8HD+plA9fvYSccuqP/rDlxPvo8/fwx4fwVJaX20+Hb+4+Tp/1gd7s5apTcKKUGSWr/y+987sva70eDrYMb+rTtkKr5gCZ/PdvKXO+beFJ7Zs1Z5HdpsuJjXW+hkL6fu9g++eK7pNfSZVXz/oQ84X3xshI75Yr77aTL741ev/7zo77HUshT+3sIyNQRI8RzHJ6CYyEVFfG/kGDBOwIIIIAAAggggAACmRRgmFUmtakLgRwV2HD9bm71qAJb6XrZqDdL5bkj3BCoUr9Ck0h23WagnwMmzjPj+4X20aoJf485cDsfhNl9u42iLK+4crbfYkD0OXWj1PXc0dCnp16d4FaMmmd/+s+LdsheW/jhTal51+bzm2O/dHP3LLZ8F+C48Jf7+CL2/dFm9ua4L23hkuU27rNvbOehG0ZFl5VXul45Vb2MtBpXPKh0x2PvmF7xdOcff2577bhJfJff1hCt18d+kbRfK3ZpyFpdU3LeOgZ0fOH5ScEczXNEQgABBBBAAAEEEEAAgcwLEMzJvDk1IpBzApqs94Bdh/jVm753AZD3P57mluKuMC3rrTRizzWHWI35ZHrk9Nb4qfZ5Sm+XJ0Z+ZBeeuI8VrZoYOcq8akNLfWty4fNdHg2z0rCsR1/6MJqvJzV/fT+rLCUFNP7z8Ft+e/HSFf5dcZWr//2CPft/Z0Y9khT0yddS4FYRDS3zmd0fWoVKAa8lrjfO3AVLw+6077qmQ92qX/EJj+Wr8uua8vILq6Y11jm+TTWc6YNEqwJFLn9SzxyCOTXAcQgBBBBAAAEEEEAAgcYTIJjTeLaUjAACMYEr3ES/miNHc64889pE+/KbOf5ox3at7cDdh8RyVm1q2e6QtDx5aprjgh7qoaLeMOmSgjlKmq/n/mfH2HtusuLr7hhpm2/cO132eu/76PNv/TnqbRNWtIoX8tlX39t3bsLjPj07+d2a9FnDyUpKy0zDsMZP+jYalnXmsbubXo++NN4u+duT8WLW2Fbg5k/nHbpOEyAXbHSCVXz1oBUMONxFo9quUUfSjor40ukEc5Js+IAAAggggAACCCCAQBMJMOFBE8FTLQK5JqCJkAe4FauU3nY9bcau6nnzczcPTlFKD485C5bY62OqhhL169XFXrz13Oh13UVHRHQKClWXErElta85/zCfTfPcTHSTKq9rUhmzfqia/+bH+wyN2qZ2HnXANlHxIeCjHQrm/HifraJjmgx5zvwlScOj6jZQyvWmqVvGqK7UjcKhF1urH4+3wm2uTD2U9DlRushKnxvm6ls1/09+K5NhSMyZEyR4RwABBBBAAAEEEEAgswL0zMmsN7UhkNMCe2y/kZu/Zq5fvjtA7L/r4LAZvT87+pNo+/wT9rZNNugRfe7fu7P94f+ed0OSSuzdj772wZD4kKMoY2xDQaSLf7mvXXfnK7G9a795za0vRief+pPdktp3mBsC9b9VQ7BuccOvDtqjaiUvnXDZafvbh59961+axHnnn17ve+60buWWJndBkoVuKfba0oLFy23fk29YI5t66+yy9cA19q/1jooSK31puIvjlFQV4YZmFQ29yCpLw+TJrlNPAXPmrLUvJyKAAAIIIIAAAgggsA4C9MxZBzxORQCB+gmc+pPVq1rpTE0EPGRgrzUKGf1B1ZLf6s2yz482TTqufQP6dPH7NL/M8298mnS8ug+nH7279V2vc3WH67xfQZiJbuUppQFuGfHBKe3fZnC/qKfRJ1/MMq2kFVJBfr7dfc0Jdvoxu/k5bjQR8czZC22qG3I29du5Nm/hMp9Vwal8lzdd0jC16bPmr/FaUVKWLvva7XM9cUpHHWmJxV9Wne/aU7zfU5bXaVP76NOZUZnVzVcUZWADAQQQQAABBBBAAAEEGkWAnjmNwkqhCCCQTkDBm6vOOsjmu94lSjtuOcBPIJyadze3atV2mw+wtq2L/St+XIGOy08f7ufA0f7yVXPjhDyae0YrPm3Yt1vY5d/z8/PsH5ce5Yd4aUfXTtXPFbOPm4dnve4dq85LM0HwaS4opeFGG/Vf3WPIZ3Z/qM3XXXS4fT1znt+liZfjSXPeXHLy/nb2cXvas6Mn2g/zl64aupTw8+AMXL+7DXOrWGl+nXg6Zvh2tsf2G8d3JW0PdBMoN1QqfeVIq5wzpqq4gtZWvPfDlt99B3v59c/t5ruqJnvWwc03WTMQt7ZtqHRBqquuuspNVF214lfbtm1tl112sZ133tm0TVo3geuvv97bXnrppetWEGcjgAACCCCAAAIINAuBPPcvw6snQGgWTaIRCCAQBKZPn259+vQJH+v8rr/Weihevny5de/evc7nhYzx8zt1qprANxzjvWULlI+9zMon31F1kW5y5KJdbraCfgfbq29/af+8/bVojp9tt1jfrjxv/7TBuLUR+uSTT2zLLbe0nj17WufOne27776zJUuW+KLGjh1r22233doUm9Xn/POf/7QJEybYf//733pdxymnnGKbbbaZXXTRRf680tJSa9WqlR1//PF2zz331KssMiOAAAIIIIAAAgjUXWDRokX+HyILCwuTVp+tawlz586t8/np+/HXtSbyIYAAAgi0KIFEaVUAxfKLrWj7ayx//YPt/Q+nJwVyNtqgu115/gENFsgR4FtvVfX4efDBB23y5Mm2cOFCe/31161Dhw523HHH+cBki4Kuw8Vcc801Nm3atDrkXJ1l6tSpdscdd1hJyaq5jtyh4uJiW7BgAYGc1UxsIYAAAggggAACWS/AMKusv4VcAAIIINBwAkW73GgFA4+2vA4bWl67fjbh01n2pxtGRj1yNttoPbv28kPdvzQ0XJ0qafTo0b7AnXbayb9rzqA99tjDLr74Yvvd737nAzzbbFO1UtiKFSvs8ccf9+fMmjXLdI7yxYdj6V9FnnjiCXvttdfshx9+sD333NPOP/98H9ioqKiwc8891/f2Ofnkk319+uOvf/2rLV682P70pz/5IMqf//xnO+KII+yDDz7wL5V/9tln2w477OADJm+++abPf8kll9iwYW7Vr1h65ZVX7Pnnnzf1ONp2223tsssus9DL7eabbza1+5BDDvEBls8++8wOPvhgO++881yArND+9a9/2bhx43y727dvb6eddprpnKKiIps4caI98MAD9uGHH1rfvn1N7ddwNA1TO+ecc+zLL6vmOXr55Zd9frXtoYcesldffdWX26ZNG99K1f/kk096H+044IADfFnhEmprY8jHOwIIIIAAAggggEATCWiYFQkBBJqngPtX+YQbIlHv18qVKxPLli1LzJkzZ60uzD0Y+jpd74i1Op+TWobAmx9MTRx60m2JESfe6l+//8eLiZWl5Q1+cS64knA9cBK77rrrGmU/+uijGgqccEEMf8x1PfX5tO/YY49N7L333v74fvvtF507c+bMxNChQ/3+vfbaK7H++uv77QsuuMDncUOX/Od//OMf0Tn6exbK1M7bbrvNf9Y+leECOP6z2jlkyJCEGw6WUJ06rtfXX3/ty3LDGxMuaOT3uSCOz6vjLnDjj+vvls7VPpXlgjj+XZ9dAMXnUTtVRzhP5SnddNNNfp+uzfVWis579913E3Jxw6iifdrWNSjJdeDAgX5bf4wfP963Qe34xS9+EdXlegL5PHVpY1QYGwgggAACCCCAAAKRgJ6f9Hulfp9am6TnNz3H6XmutudAeua435ZJCCCAAAJmy1eU2qPPTrAFi5b71bRGvzPF9fhQ/MBsp20G2AWn7WXFRQ2/HPmkSZP8/DguOLLGbZgxY4bfpzlf3P8UzQVvzAVO7IsvvrCNNtrIHxsxYoQ999xz9s033/g5ptRLRsO0Pv/8c9t0001NPXG6dOli6i2jFIZ07b777v6z/nABDr8detiEnkIvvfSS7b///v6Y3keOHOl7DP373//246DVe+fyyy839RZS0rYLEvmeQ4cffrjv0aQ2P/PMM34eKw2DUk8h9e5Rm3v06GEff/yxbbXVVub+h+3L+Nvf/mbz5883uahXjXoEqSfN3//+dzvjjDPs//7v/3y+e++910444QSTkSaK1nw46623nu9xFObGWbp0qb399tv+PJ307bff+p5CLsDjew517NjR3C8M1rt3b9/7RxMkT5kypdY2+gbwBwIIIIAAAggggECTCRDMaTJ6KkYAAQSaj8AP85bab6951mbPXTVnTqxpW2/e1wdyUlfYimVZp810wZVQoIYHKfXr188HPxT40HCoEMjRMdfrRG/m/gXDnn76aR+MuOWWW3wgR/sLCgrsrrvu8kEdfdbQKyUFUELSkCml3XbbzQdgFHzR0KMQyNExDf3SHD4KtmhVNaWw+paGL2nCOrVNQSIFkRSMUdI5ShpCpcCKkiY3ViBHKQRxwhAo7dMQLdcjKBo6ponQFQhS0lAqvTQ5spLreeTfQ6BIQ8hCeu+99/ymhpkpaQiXkla3UiBHqV27dj6YowCYUl3b6DPzBwIIIIAAAggggECTCBDMaRJ2KkUAAQSal8Djz0+wOW6Z9J+M2NoO3X8Le+WNyXb3/8ZYpw6t3apVBzRKj5wgEHrBhPlywv7vv//e92jRfDitW7f2ARAFRs4666yQxb+XlZX5d62EdeONN/oVsdzwoaQ8mvtGSb10XnzxRT9fjYIrISlopLIHDx7s5+fRSlrqUROS6lAvnZ/85CdRgEXH1HbVu8EGG/hAjvYpMLT55ptrM0puaJTfDoGk+OpcbpiUP6beNUrpgjLqqaM5ddQG9exRnXpX0pw8SiEIo7mGQgpBKvXE0ep2CkQpSBXqCvkUlBowYID/WJc2hvN4RwABBBBAAAEEEGgagdW/yTZN/dSKAAIIINAMBCZ9Mdu6dGprxx+5g5/c+CgX1HnJBXQ09Koxk4ZOvfDCC6Zgg3qIxJMmIlb61a9+5d/HjBlj++67r2lS4JBmz55t6oUzfPhwP8GwJg5W4ETDstKlTz/91A/pSg3UqA1uDh7f4yb0FIoHRT766CNfnHrLhKTgiAIfIXCkiYyVNGQrtX612Y2b9sEYDSeLHx81apQPJG2xxRb+/NSgjAJJCiLp+tVjZ+utt/ZWmlBZkx9rtSqlEBTbfvvt/Wf9obLVc0k9m7766iu/X+fHk65dx84888w6tzF+PtsIIIAAAggggAACmRfIz3yV1IgAAggg0NwEOndsY0uXrXTDhip90xYsWmFz3dCrwoJ8K8hv4KWrYhefbr4c9RK59tprzU34a1dddZUfRqRAiJKGMsWT8ilp1Sb1ulGPGr2HpGDRSSed5FebUrkhoBGGJimf5q5RSp0vJ/R40bHQw0XDsEIaO3as3wznhbZ169bN3ATG/qXeLgq29O/fP5qLJh5IUpvUK0hBKg0HU3rjjTf8ewjKaOUu5bnhhhv8MDAFhhTUSe09lDo0K8yXE4aKaYUvJc2RE5J8rrjiCv/xlFNOqXMbw/m8I4AAAggggAACCDSNAD1zmsadWhFAAIFmJTB82GD78JMZdsJ591n/vl1s1veLrLyi0k44agcXZGi8uH/oBaMhVbfffrsPtjz11FN+vplbb73VTj31VO+kOWq0lLeW5dakwxqSpflxFOD4/e9/75ceV0Yt8a3gjAITBx54oD3yyCPmVsTy7xpWFSYqVl0qUz1u/vjHP/o6UufLCT1edDAMw4oPnwpBF/UqUlJQR3Vr4mMNDVNdf/nLX/zcOLrO1B43OkdLjSsos88+++ijT6GNGlKl3kHhsyY8VsBHQSRdt1Joj3oJadhVr169fE8nDaVKnS9nyy239D2A7r77bt+jR3PmaFiaehIpENS5c2c/cbPKjfdKStdG5SEhgAACCCCAAAIINKHA2iyXxTkIIJAZAZYmz4wztST88omj3pqS+MX59/vlyH9x/gOJZ0Z+0ug0WmLb/S8wemkJcLeiUsINKVqjbi057uZ6ScrrgjtJ+dxKTNFS2ypX5bkgSpRn3rx5flnvUKeOa9luN1+ON9D5OuYmMo7Ocb1n/D431Cnapw0tTa7lvUPSMpInnnhi1D6Vec455/jlJZXHDcfyx0pKSsIp0XLjLqgU7XOBmqgMfQe4+XKic9U2FzxKHHbYYT7P+++/H52nZc51XEuxK7kgl//sVvmK8rigUrQ0uvK64WkJFxyKjte1jdEJbCCAAAIIIIAAAghEAplcmjxPtbpf6EgIINAMBaZPn+6XWq5v0/TXWsM39K/13bt3r+/pft6McL7m5SAh0JwEtOqSVpYKqzGla5smDC4qKopWkkrNo14sWvI7Pv9Oap61/axVtRYsWOB7yaxtGRqypfbH//6pB4/+btd03S7gZV27drX4yljp2qCeUMoX732ULh/7EEAAAQQQQAABBOouoGHt+h1TPcLD6qd1P7tqSoG6ns8wq/rIkhcBBBBAoMEE8vIWrENZmhenpvM1z095DXmK3DGtglVTGe7wWidNwLwuZWv+HM1flK6MdPtCQ9u6jZJVr7Av3bvap7lzVs+fky5X6r4vvujkloVvvGF3qfXxGQEEEEAAAQQQQCC9AMGc9C7sRQABBBBoZIFEoksj10DxCCCAAAIIIIAAAgi0TAH+ea1l3leuCgEEEEAAAQQQQAABBBBAAAEEWqgAwZwWemO5LAQQQAABBBBAAAEEEEAAAQQQaJkCBHNa5n3lqhBAAAEEEEAAAQQQQAABBBBAoIUKEMxpoTeWy0IAAQQQQAABBBBAAAEEEEAAgZYpQDCnZd5XrgoBBBBAAAEEEEAAAQQQQAABBFqoAMGcFnpjuSwEEEAAAQQQQAABBBBAAAEEEGiZAgRzWuZ95aoQQAABBBBAAAEEEEAAAQQQQKCFChDMaaE3lstCAAEEEEAAAQQQQAABBBBAAIGWKUAwp2XeV64KAQQQQAABBBBAAAEEEEAAAQRaqADBnBZ6Y7ksBBBAAAEEEEAAAQQQQAABBBBomQIEc1rmfeWqEEAAAQQQQAABBBBAAAEEEECghQoQzGmhN5bLQgABBBBAAAEEEEAAAQQQQACBlilAMKdl3leuCgEEEEAAAQQQQAABBBBAAAEEWqgAwZwWemO5LATWVSAvL88XUVlZua5FcT4CCCCAAAIIIIAAAggg0KIFwnNTeI5q7IslmNPYwpSPQBYL6ItoyZIlWXwFNB0BBBBAAAEEEEAAAQQQaHwBPTdlKpCjqyGY0/j3lBoQyEoBfREVFhbaggULrKKiIiuvgUYjgAACCCCAAAIIIIAAAo0toOclPTfp+SlTAR2COY19VykfgSwV0JdQQUGBtWnTxsaNG2czZswgqJOl95JmI4AAAggggAACCCCAQMMLKIij5yQ9L+m5Sc9PmQrmFDb85VAiAghku0D4AlJkuWPHjtavXz+bOnWqjRkzxsrKyvzlJRKJbL9M2o8AAggggAACCCCAAAII1FsgPC8VFRVZjx49bNCgQf65KfTMCcfrXXA9TiCYUw8ssiKQSwL6AsrPz7fi4mLr2rWrtW/f3kpLS40gTi79FHCtCCCAAAIIIIAAAgggUJ2Anpn0vKSXAjl6fspEIEftIZhT3V1hPwII+C8ifSEp4qwvJ3UdVCKgww8HAggggAACCCCAAAII5LJACNroPf7KlAnBnExJUw8CWSoQ/5LK0kug2QgggAACCCCAAAIIIIBAowqE56ZGrSRWOMGcGAabCCCQXiDTX0zpW8FeBBBAAAEEEEAAAQQQQAABCbCaFT8HCCCAAAIIIIAAAggggAACCCCAQBYJEMzJoptFUxFAAAEEEEAAAQQQQAABBBBAAAGCOfwMIIAAAggggAACCCCAAAIIIIAAAlkkwJw5WXSzaCoCTSXA6lVNJU+9CCCAAAIIIIAAAgggkA0CmZ5nlGBONvxU0EYEmlBAgZz4S00huNOEN4SqEUAAAQQQQAABBBBAoMkFQvBG7/HtTDWMYE6mpKkHgSwUUNCmsrLSKioqrKCgwAoL+crIwttIkxFAAAEEEEAAAQQQQKCRBPSsVF5e7p+X8vPzo8BOI1UXFcucOREFGwggEBcIgRx9MRUVFfkvp/hxthFAAAEEEEAAAQQQQACBXBfQP3rreUnPTfqH8EyNYiCYk+s/eVw/AmkE9AWkl76Q4t0G02RlFwIIIIAAAggggAACCCCQ0wLhmUnPT+FZqrFBCOY0tjDlI5ClAvoSUpdBRZlJCCCAAAIIIIAAAggggAAC1QvouUnPT3qOykQimJMJZepAIAsF4j1zsrD5NBkBBBBAAAEEEEAAAQQQyJiAeueEnjmZqJRgTiaUqQOBLBXIVFQ5S3loNgIIIIAAAggggAACCCAQCWTy+YlgTsTOBgIIxAUy+UUUr5dtBBBAAAEEEEAAAQQQQCBbBTL1HEUwJ1t/Qmg3AggggAACCCCAAAIIIIAAAgjkpADBnJy87Vw0AggggAACCCCAAAIIIIAAAghkqwDBnGy9c7QbAQQQQAABBBBAAAEEEEAAAQRyUoBgTk7edi4aAQQQQAABBBBAAAEEEEAAAQSyVYBgTrbeOdqNAAIIIIAAAggggAACCCCAAAI5KUAwJydvOxeNAAIIIIAAAggggAACCCCAAALZKkAwJ1vvHO1GAAEEEEAAAQQQQAABBBBAAIGcFCCYk5O3nYtGAAEEEEAAAQQQQAABBBBAAIFsFSCYk613jnYjgAACCCCAAAIIIIAAAggggEBOChDMycnbzkUjgAACCCCAAAIIIIAAAggggEC2ChDMydY7R7sRQAABBBBAAAEEEEAAAQQQQCAnBQjm5ORt56IRQAABBBBAAAEEEEAAAQQQQCBbBQjmZOudo90IIIAAAggggAACCCCAAAIIIJCTAgRzcvK2c9EIIIAAAggggAACCCCAAAIIIJCtAoXZ2nDajQACLUPgf8+stM+mVNikyRX24K0dqr0oHb/6b8ttyKYFduSIVj6ftkkIIIAAAggggAACCCCAQK4JEMzJtTvO9SLQDATiAZx4cxSsGbxJVYBGAZ6QtC98VlBn0uTl/hCBnSDEOwIIIIAAAggggAACCOSSAMGcXLrbXCsCzUBAARsFZNKlqkDNmsdqzr/cjjyk2PfYSVcm+xBAAAEEEEAAAQQQQACBlibAnDkt7Y5yPQg0Y4HqgjXr2uTHnik19fYhIYAAAggggAACCCCAAAK5IEAwJxfuMteIQDMReOzZxgu4KKBDQgABBBBAAAEEEEAAAQRyQYBhVrlwl7lGBJqBgHrOVDdcqqGapzqOOqRqcuS6lllbm2qbZPmO+0rsUzds7Cg31GuXHYvqWm3W5kvtAVVf76y9cBqOAAIIIIAAAggggEAzEiCY04xuBk1BoCULZKLnjOqob3BBvYXqEtDRJMypZd/76Ep75Y0yf9tuvL3EBvQrsL69W3aHx/h9zHNXnmrSkn+GuTYEEEAAAQQQQAABBJqLAMGc5nInaAcCLVigtmBJQ1762vTOqa1+tV8vrah15YVto+xt2yicsTq1aZ382Z83pTxaiSus1FVTACR+Tsg/ZJPCaid4Dj1l1Dblry6vyo2n0OMo1JfaJu1XoCu0IfV4vCy2EUAAAQQQQAABBBBAILMCBHMy601tCOSkQGPOldMYoPFAR7x8BTi0GlcI6Bw5otjyXPzm8y8q7MfDi61rl9XBHAVZ4r1YVE4IqGi/VuCKB0hqzG91z/+Yy6uUWr7aHU8P3trBX0tok46F9sRXHAvHUwNZ8bLYRgABBBBAAAEEEEAAgcwKEMzJrDe1IZCTAiEgUN3FK/CgYEFD5FuboVbxdqUGQVKDLGqj9oXAxxEHF8dP99up56yRwe3Q9YZU3/zxYEsoI/U9BJJCO1OPq8503tWVHa47tRw+I4AAAggggAACCCCAQOYFCOZk3pwaEcgpgXQBgziAernEe8Kk9iAJeeuaT/lVZygznL+27wqGhMBIahlqq4YhhcDMkSNa+XrD55A/HiBS2ybFhl4pT7ryQ/tVfvy4P9+VEU8hGKZ9cW+dV10wJ7WNOjddgCe0Q8fj7dBnEgIIIIAAAggggAACCDSNAMGcpnGnVgRyRkCBi+qSAgXxYIG2FZhIDRrUNV+oR3XGyw371/Y9tU3xQEi8rUeOqKpBQZ1Jk1cPa1IenZNu/hkFUFJTPPijYwrIhCBN6pC1eJBLeX962hK9RUnlpwvoqDzVozl2vNeq9+jEVRthSJk+qqz49abm5TMCCCCAAAIIIIAAAghkRqBlL7uSGUNqQQCBGgTigY/UbAp61CXVNV9dylqbPDVdQ7ryUoNPyqPgiQIheingki6Io3w6N13wJQSnQlBHedMlBWjqkkLAKNSn99TrTC1LgR8SAggggAACCCCAAAIINL0AwZymvwe0AIGcFUjXayddwCBdvprQUoMSNeWt7ZiCJ6kBlLoEl9SjRcEQvUIgJl6XgjoqN/V6U+uKn6Pt1LJSbVKvPbX8UF51+8NxvaeWlVpXPC/bCCCAAAIIIIAAAgggkDkB/pk1c9bUhAACKQIKaKT2QkkdRqRT0uVLDTTEi64tIBLPm25b54fAhepOTakBldTj6nkTer7Ej6UOgYofi2+H87VPQZdgogCRhmrFr08O4bPaHLZDebW1NeTTe+rwMJUV70GUziJ+PtsIIIAAAggggAACCCCQGQGCOZlxphYEclbgMxcQqClpEmEfRFg1KXBqMCKcW9d8If/avitgEZb3TldG6tCjdHm0z5ezKhBUXUAl7FeZqYGS8Dm0JeRV8CscUz3yis/Po30h1bWtIX+693hdakN19yfdubm6b+XKlTZ16lTr3bu3denSJVcZuG4EEEAAAQQQQACBRhQgmNOIuBSNAAK1C9QUjIifXdd88XMacluBDPWKSe1JlK6O1OBMugBIPNASyowHTtKVG/Y9eGsHU3ArXbkhj8oP5YZ9tb3rGtX7R2WnSzpW195F6c6vaV9lZaVdddVVVl5eNWF227ZtbZdddrGdd97ZtB1Pzz33nD3xxBN2yy23WGFh8/vf2Msvv2yHHnqoPfnkk3bYYYfFm57z28393uX8DQIAAQQQQAABBLJGoPn9Fpw1dDQUAQSaq0DoxVKX9oUVplLzxvdXFxSJ54mfr/waHqVhT/FhUKFd6okUtsN58TrCOSFPuvwKrCiYE4ZgaVv5Q5vi5amOUFaor7p35QuBJgWXwnlqg1L4XN35a7t/0qRJdvXVV1vPnj2tc+fO9t1339mSJVUrc40dO9a22267qOi///3vNmXKFFMAqDmm119/3TdLwShSskDqvVPg67///a/9+c9/tg033DA5M58QQAABBBBAAAEEqhXIS7hU7VEOIIBAkwpMnz7d+vTpU+826K+1ejgsX77cunfvvk7nd+rUqd7nx084zs0fU92XjAIDNfUuiZeTul3TuTqmYAcpewTUy+bMM8+0UaNG2d577+0DNW+99ZaNGDHCD1f68MMPox46+rkuKiryr+Z4hVtttZX/+/fpp582x+Y1aZtS791JJ51kd911ly1btiy6v03aQCpHAAEEEEAAAQTWQWDRokX+dxr1Hs/Ly6t3SXPnzq3z+axmVW9eTkAAgfoIHOGG+1SX1NtDQRe96tLjQ3nUa0TDjEIPlHRl13QsXX72Nb3A6NGjfSN22mkn/56fn2977LGHXXzxxb4XzuTJk/1+BXXOO+88++yzz6JGf/vtt3brrbfaj3/8Y7vwwgvtvffes/i/U6gHj4Y8nX/++bb//vv799mzZ0fna+Pjjz/2vUMOOuggU4AhtCdkuvnmm+03v/mNPfTQQ3bEEUfYTTfd5A/NmzfPfve739mBBx7oz3vllVd8WQcccEA4dY13/U9eAYxf/OIXpvr++te/Wmlp8kTb6rFyySWX+Pb++te/9nPwhIJ0beeee64vQ9d9zDHH+PrvuOMOn+XRRx+1U045xfbZZx9Tu0MPprU9r6Kiws466ywL5Yd2qN2XX365/6jA82mnnebdrr/+en8vdD/i9yl+71544QWf/7HHHvPn655+8sknft+NN94YqvDvDz/8sN8/bdq0pP18QAABBBBAAAEEclrA/XJHQgCBZirgHl4S7iGv3i83AWvC/Ut3Ys6cOWt1Ze7hz9e5cOHCtTo/9aRPPy9P/OH6ZYljT12c9qXjIWk7vB59uiTajh+vrhzlJ2WfgAsWJDp06JDYdddd12i8C0yoY1di4sSJ/pgLnPjP33zzjf/sggX+88CBAxNHH320L0f5n376aX+8pKQk8fOf/9zn2WSTTRJuDh6/PXTo0IR+zpXuvffeaJ8LsERlvPHGG/648rnhXz6Pyh4yZEji8ccfT3z11VfR/sMPP9zv13G9XPDIn5v6x8yZMxOqW3n22muvxPrrr++3L7jgAp+1rKwscc455/h9LiCUOPbYY/22fObPn+/zhGsObVG+UK8MtX3wwQdH13Hfffet03kTJkzwZf7jH/+ILkffS6pH7VNygZ6oDfLZfffd/We1O6T4vVP+/fbbz+fZYYcdEscff3zihx9+8G3WPQpJ32EqQ3lJCCCAAAIIIIBAcxfQ85N+Twq/Z9a3vfrdR89xep6r7TmQnjnut1ESAgg0rkAY9pSuB46OxXvlhM9693PPpDke5nSJt3ptJvyNn8920wlovhzNj+Me2NdoxIwZM/y+Vq2q5uzRMCwXuLF+/fr5HidHHnmkueCBqQz14HBBFp9fq0kpqceHC2bYM888Y59//rm9++675oI+vveMC47YU089ZS6Q4HvrqOeI5m9R7xolnaek+XlcoMG23XZbP5ePhk+54I1dccUVtmLFCvv66699vS7oYS5Q489JN1+Ohj4OGzbMvv/+e98W9f5RbxMXrIjqVG8c9fpRj5UXX3zRHnzwQVNPF/nos5KGnyn9/ve/N7VF+zXnjJLyLV261J599ll7/vnn/T4NbVJa1/NcgMaXoz/Gjx/vt3U9Sq+99pp/v/POO32bXCDMdG/CvEc6GL93v/zlL80F2fw5ur577rnHevTo4e9ruOc6+Kc//cmXccMNN/i8/IEAAggggAACCCBQJcAEyPwkIIBAxgSqAjWrJ+7VfDlhYt36NEJBHk3OG4I6qZP91qcs8ja9QAgyxIMFoVWvvvqq31TwRkGKt99+284444xw2AdxNGnyyJEj/ZAkDS1yvXH8KleuF4xf8UrBG829E5LrBWN77rmnD6L84Q9/8O9aSUtDu5T69+/v3xWoUVKdShr+06tXL789btw4e+CBB+y6666zDTbYwO8LK2spuKTARGpyvYV8YEjzA2266ab+cEFBgR8upaFMCvJogmAN0dJQrpBC+boupTAE7NJLLw1ZorZr2FW7du38ftfLx7+3adPGv6/teSFQo7mAQnrzzTf95m677eaHtL300ks+GKchaiG5f03ytvqc7t6F9my//fbhFD8Jsla8UtLQun/+85+m69xss82iPGwggAACCCCAAAIImBHM4acAAQQyLhCCOutSsebNIbUMgfBQH+bLCVel4IZ61GjenNatW0e9VxSIUVLw5T//+Y+dfvrpdsghh/h9v/rVr+yaa64x9eS5++67/b4rr7zSv4c/VI9eCtKoh4nmfunYsWM4bCEI0rdvX78vBDPiK2pp5S31qFHdIWn+HM29o7l50iUFgxR40lw58RQCN2q3kgJL8RTao0CS66rrTRTwKS5ePR+VgitqTzwwEoJQP/rRj9b6PAWZ1PNHviFYpbYpyKb6Bg8eHPVc0sTVIakXktz23Xdfv0vzGCmFe6dt9RxyQ82SJj4eMGCADvnJ29VLSV5hXh5/gD8QQAABBBBAAAEEvADDrPhBQAABBBBoMgE3ntg0Ga6b6yXqURIaoyE2SgrQKIXeIMobkibdXbx4sR/mpGCChuP88Y9/9Ie/+OIL/77RRhuF7Envbs4b/3nzzTdP2q9Jg5U0ga+CJ6HXSRjqpWPqmbPxxhtHPU+075133tFbUsDC71j1RzgnXk78+Jdffuk/xnuhqH711lHgRBNCq7eKhi7FAycK9qg3iyZhVk+fkDSsScGQQYMGrfV5GsaVrj7dMzcvj1+lIQSN1L6Q3BxH/jz1lFJKvXcaBqeha+F4OM/NIeQ3NWROQ+A05Kx9+/bhMO8IIIAAAggggAACqwQI5vCjgAACCCDQZALp5stRr45rr73WP8irl0p4wI/PuaLVkzTER3O0KNChOWzUS0dJq0UpuQnk/Lt6l4SkQI2CNwqchHxhOJXyzJo1y/fUUY8R9d4J8+XEgyfKp3ldwrAnfVZQSitdKaWbL0dtUFAk3hado2FJmndG17xgwQJ/frw96pk0ZswY3ztJw6fCkLR44OSjjz7y56nNIWmeHPWM0WpZSmt7Xgh4hXugssIwqNT5cuI9l0J9ukdK8Xunz5q7SCl1aF2oR3PqyPyoo47y+fgDAQQQQAABBBBAIFmgMPkjnxBAAAEEEMicQHjo15Cq22+/3RQ8UI8MBXk0/8upp57qG5M654qGGKlHyHfffeeHVKm3i3rlKLAThjkpqKLAg+bL0dLa6hmjIVVa1lu9dUJAREOm1PtDwRRNaqwJltUWpXS9TrRfgRMFS/7yl7/4ni/333+/b3d18+Wox4x6sqg9WjZcvWgeeeQR0zLietcQJvVSeeKJJ+yiiy6yk08+2TShsub30RAnvSuFIWmajDmk0OslBE60f+zYsf5wCLis7XkhsCSPvLw8U+Ao9HxKnS8n3uNIwRvdiy222CLtfDmhXAWq+vTp43s5qcFhaJu2NSxNdZIQQAABBBBAAAEE0gjUd6ks8iOAQOYE3Eo3tS5Jl27Juua2NHnmxKgp2wSOO+44vzy1+99TtEy1m/A24R7yky7FzdHij7vVnaL9rldOtPy2Cxz4ZbLff//96LjrCZPQkuGhbC1f7oISSUtFumE80XGVceKJJ/olskMhbn4bf1xLnMeTC2pEy5Kr/LCcuAskxbMlbbtePknLl2tJbhcsivLo763rkRK1R+3Vct5uGFWUxw2bSmgp8ng67LDDvIPr3RPtdqtb+XJcDyS/b23Pc/MAJeL3SG1Wu2SlJTfdUDZfj5vvJ6pb+3Vc9krp7p0LQEX3LiydrrxhGXQ3X44+khBAAAEEEEAAgawSyOTS5HmSSRPjYRcCCDQDAQ0l0b9a1zfpr7WGbWioRffu3et7up8nJJzfqVOnep/PCQhkUkBDo9Zbb72k+WLi9evvgXr2aP6YdElDn2bPnm29e/euV08Q/T1TzyCVG58cOF0d8X1aEr2oqMj3XInvD9savqUhYLqm5pI0v03btm0bdP6aZcuWRfcl9MDRHEjqmaX5juKTUjcXB9qBAAIIIIAAAgjUJKDf4fQ7k343DL/f1JQ/9djcuXPrfD7DrFL1+IwAAgggkBGBvLyqOWLWvTItvb24lmKK3PGa6lMZC2spI91hnbck3YEa9mnoULl71dSe4lqO11B8oxySn5Y6r6nN9a84kVjPB541zE7zH912221+lSsFcsLPx+jRHdywNn5dqb8uZyCAAAIIIIBASxbgt6OWfHe5NgQQQKAZCyQSXZpx62hapgTUEydMdHzHHXfY8OHDfdX8fGTqDlAPAggggAACCGSjAMGcbLxrtBkBBBBAAIEWIqBJkjURtCZr7tatWwu5Ki4DAQQQQAABBBBoXAGCOY3rS+kIIIAAAgggUIPApptuanqREEAAAQQQQAABBOoukF/3rOREAAEEEEAAAQQQQAABBBBAAAEEEGhqAYI5TX0HqB8BBBBAAAEEEEAAAQQQQAABBBCohwDBnHpgkRUBBBBAAAEEEEAAAQQQQAABBBBoagGCOU19B6gfAQQQQAABBBBAAAEEEEAAAQQQqIcAwZx6YJEVAQQQQAABBBBAAAEEEEAAAQQQaGoBgjlNfQeoHwEEEEAAAQQQQAABBBBAAAEEEKiHAMGcemCRFQEEEEAAAQQQQAABBBBAAAEEEGhqAYI5TX0HqB8BBBBAAAEEEEAAAQQQQAABBBCohwDBnHpgkRUBBBBAAAEEEEAAAQQQQAABBBBoagGCOU19B6gfAQQQQAABBBBAAAEEEEAAAQQQqIcAwZx6YJEVAQQQQAABBBBAAAEEEEAAAQQQaGoBgjlNfQeoH4FmKpCXl+dbVllZ2UxbSLMQQAABBBBAAAEEEEAAgeYhEJ6bwnNUY7eKYE5jC1M+AlksoC+iJUuWZPEV0HQEEEAAAQQQQAABBBBAoPEF9NyUqUCOroZgTuPfU2pAICsF9EVUWFhoCxYssIqKiqy8BhqNAAIIIIAAAggggAACCDS2gJ6X9Nyk56dMBXQI5jT2XaV8BLJUQF9CBQUF1qZNGxs3bpzNmDGDoE6W3kuajQACCCCAAAIIIIAAAg0voCCOnpP0vKTnJj0/ZSqYU9jwl0OJCCCQ7QLhC0iR5Y4dO1q/fv1s6tSpNmbMGCsrK/OXl0gksv0yaT8CCCCAAAIIIIAAAgggUG+B8LxUVFRkPXr0sEGDBvnnptAzJxyvd8H1OIFgTj2wyIpALgnoCyg/P9+Ki4uta9eu1r59eystLTWCOLn0U8C1IoAAAggggAACCCCAQHUCembS85JeCuTo+SkTgRy1h2BOdXeF/Qgg4L+I9IWkiLO+nNR1UImADj8cCCCAAAIIIIAAAgggkMsCIWij9/grUyYEczIlTT0IZKlA/EsqSy+BZiOAAAIIIIAAAggggAACjSoQnpsatZJY4QRzYhhsIoBAeoFMfzGlbwV7EUAAAQQQQAABBBBAAAEEJMBqVvwcIIAAAggggAACCCCAAAIIIIAAAlkkQDAni24WTUUAAQQQQAABBBBAAAEEEEAAAQQI5vAzgAACCCCAAAIIIIAAAggggAACCGSRAHPmZNHNoqkINJUAq1c1lTz1IoAAAggggAACCCCAQDYIZHqeUYI52fBTQRsRaEIBBXLiLzWF4E4T3hCqRgABBBBAAAEEEEAAgSYXCMEbvce3M9UwgjmZkqYeBLJQQEGbyspKq6iosIKCAiss5CsjC28jTUYAAQQQQAABBBBAAIFGEtCzUnl5uX9eys/PjwI7jVRdVCxz5kQUbCCAQFwgBHL0xVRUVOS/nOLH2UYAAQQQQAABBBBAAAEEcl1A/+it5yU9N+kfwjM1ioFgTq7/5HH9CKQR0BeQXvpCincbTJOVXQgggAACCCCAAAIIIIBATguEZyY9P4VnqcYGIZjT2MKUj0CWCuhLSF0GFWUmIYAAAggggAACCCCAAAIIVC+g5yY9P+k5KhOJYE4mlKkDgSwUiPfMycLm02QEEEAAAQQQQAABBBBAIGMC6p0TeuZkolKCOZlQpg4EslQgU1HlLOWh2QgggAACCCCAAAIIIIBAJJDJ5yeCORE7GwggEBfI5BdRvF62EUAAAQQQQAABBBBAAIFsFcjUcxTBnGz9CaHdCCCAAAIIIIAAAggggAACCCCQkwIEc3LytnPRCCCAAAIIIIAAAggggAACCCCQrQIEc7L1ztFuBBBAAAEEEEAAAQQQQOD/t3cn4FKVdRzH/8AFwW6QCK5R5FpakJpGuKFmiZlghtpDqWgaWWouaS6PZi5R5paaSJZlPrmUmQtalKJlGiiSmZoZS4oWriChJMv0/v76Hs/MnLl35t65c+/MfN/nmTtnznnPe97zOXOvvH/fBQEEEGhKAYI5TfnYuWkEEEAAAQQQQAABBBBAAAEEEKhXAYI59frkqDcCCCCAAAIIIIAAAggggAACCDSlAMGcpnzs3DQCCCCAAAIIIIAAAggggAACCNSrAMGcen1y1BsBBBBAAAEEEEAAAQQQQAABBJpSgGBOUz52bhoBBBBAAAEEEEAAAQQQQAABBOpVgGBOvT456o0AAggggAACCCCAAAIIIIAAAk0pQDCnKR87N40AAggggAACCCCAAAIIIIAAAvUq0FKvFafeCCDQmAKrV6+2efPm2SOPPGLz58+3V1991VpaWmy99dazrbbaykaMGGHrrrtuY948d4UAAggggAACCCCAAAIIlCFAMKcMJLIggEDXC8ydO9emTZtmN998sy1evLjkBXv16mUf+9jHbMKECXbYYYfZwIEDS+blAAIIIIAAAggggAACCCDQiAIMs2rEp8o9IVBHAo8//rjtvffetu2229rUqVPbDOTotnK5nN1///123HHH2bBhw+y8886z//3vf3V0x1QVAQQQQAABBBBAAAEEEOicAMGczvlxNgIIdFBgzZo1dv7559vIkSPtzjvv7FApGoJ12mmn2XbbbWfq2UNCAAEEEEAAAQQQQAABBJpBgGBOMzxl7hGBHibwxhtv2AEHHGAnnXSSrVq1qtO1e+yxx2z06NE2ffr0TpelAtT7R3P36KVtEgIIIIAAAggggAACCCDQkwSYM6cnPQ3qgkATCChAMn78+A73xilFtGLFChs3bpzddtttNnbs2FLZSu7XPD2XX365Pfzww3bvvffaf//7X8/bt29f22KLLWynnXayLbfc0iZPnmwDBgwoWU5HDii4Fa+n8zUv0DrrrJNZ1JIlS0y9mmJae+21rX///vFjh95l99prryXnasJp5iJKONhAAAEEEEAAAQQQQKDHCdAzp8c9EiqEQGMLHH300VUP5EQxBYr2228/mzNnTtzV7rsCI6effrptsMEGdvbZZ3vvnnRgZeXKlaaeP1deeaUdf/zxtvvuu+eVqZW3TjzxRDvmmGPsnnvuyTtW7oeLL77YV+jSKl16DR482JYvX555uuYJivn0fsYZZ2Tmq2TnqaeemlfmZpttVsnp5EUAAQQQQAABBBBAAIEaCxDMqTE4l0OgmQVuuukmu+KKK/IIrr32Wps1a5adfPLJFfUw2X777e3SSy+1559/3saMGZOUqcmQDzzwQFMQpr2kIVT77LOPnXvuue1lTY7vueeeybZ61IwaNcouuOACr8tuu+1ms2fPTo6zgQACCCCAAAIIIIAAAgh0hQDDrLpClTIRQKBIYNmyZd57JX1Aw4m0kpWGFO2www6mHiLq5aJhPkOGDLGNNtrIXxoGtGDBAtOEx+olM3HiRPvsZz/rw5FUnpYqT/eKUW+ZM88801e6Sl+vcFs9YiqdfPl973tfUsw111xjL774YvJZG3fccYffS9x5zjnn5A2L2mWXXfKCTzEf7wgggAACCCCAAAIIIIBAuQIEc8qVIh8CCHRKQL1onnvuubwyNPdMem4YzdMybdq0vDzlfFhvvfWKsilQo+XLhw4dWnRMOxRcOuWUU4qOKcB08MEH2/Dhw/1c9b555ZVX/HX99dfbhAkTknM23njjZDtu6Px0Ouuss/ImedaQrnRPonRethFAAAEEEEAAAQQQQACBcgQI5pSjRB4EEOiUgIY8XXbZZUVlaEiU5qdpbW0tOlbJDgVbCtPrr7/u89woeJKVNNxL108nzUejnjpbb711eneyfckll1jv3m+PTt1rr718YuT77rvP86jXjubOISGAAAIIIIAAAggggAACXSnwdqukK69C2Qgg0NQCv/vd7+zf//53kYECI1n7izK2s0OBm6x01VVXZe32fXfddVfeMfWoue6660oGcpQ5HcjRZ50zc+ZMu/XWW+3qq6+2Rx99NK+nkfKQEEAAAQQQQAABBBBAAIFqC9Azp9qilIcAAkUC06dPL9qnHZr0ePPNN888VslOzY+jQMyiRYvyTnv66aftqaeeKrqGhk4VBnM0ofKOO+6Yd357H9SzR8uZx6QVr/bdd1+Lq0FpMuT0MuLKp8meL7zwQj9l5MiRtscee8TTO/X+wAMP2EMPPZSUod5OkyZNSj5rY+rUqXkTQ++66642YsSIvDzxg8qT6YwZM2zp0qX2jne8w9QTSauRaYl2EgIIIIAAAggggAACCHSfAMGc7rPnygg0jYACA4Wpf//+vtR34f6OfFagYfLkyb7EePp8rVZ19913FwVzNCxLy5in07hx49Ify9p++eWX7YQTTsjLO2jQIFuyZIlp1Su9Fyb1UtJL6YgjjigZzLn99tttrbXWKjw9b/6d9MFf/OIXdtFFFyW73vnOd9qhhx6aTBIti2OPPdYUyIppypQpmcGcl156yQNbOiedFLhSDyT1RKpWECpdPtsIIIAAAggggAACCCBQngDBnPKcyIUAAh0UUM+UJ598sujsbbbZpqpDksaPH18UzNFF//Of/xRdu7AHjzJo9ax0uuWWW0oOAVOPGq2gVSq98MILmYGcUvmz9h900EFZu2uyr7A3Ufqir732mq8mph5PChiREEAAAQQQQAABBBBAoPYCBHNqb84VEWgqAQ3RUQCgMGmy4WqmrBWtVP6zzz5bdJmsAM+GG26Yl08TJ//tb3/L2xc/HHXUUW0Gc2K+en/X0vBacWz+/PmW7qWzePFiH4J15JFH1vstUn8EEEAAAQQQQAABBOpSgAmQ6/KxUWkE6keg1OTEhcOcOntHpXqTaLWswlS4ipWO9+vXrzBbhz4r6DF69Gi78cYb7YYbbiiaNHn//ff3/TqmoFB3pnSAJl0PBbb+8pe/eCDsn//8p2nOoz59+qSzJEPF8nbyAQEEEEAAAQQQQAABBGoiQM+cmjBzEQSaV6BUkOS5556rKormeclKmpunMKm3SWHKWt68ME85n7XClebNmTBhgmefOHFi3iTIH/jAB+yAAw5ot6jhw4cXBYJ00sKFC/PKa7egDmTQkDMNJYtp7NixtvPOO9s999wTd9kTTzyRbLOBAAIIIIAAAggggAACtRUgmFNbb66GQNMJvOtd7/KJfAt7wzz++OM+mW9LS3X+DN17772Ztu9+97uL9mftK1wi/XOf+5ypV4qSJhfO6uFTVHAVd2iIlyZ2Lkyap6bWdVEdtttuu7xgzvPPP19YNT4jgAACCCCAAAIIIIBAjQSq04qqUWW5DAII1J+AgjWbbLJJUU8OzaWjVZ3U66Ma6c4778wsJmsunY033rgo77/+9a+8faeeemryeebMmd0SQEkq0AM2Cic7rvYwuR5wi1QBAQQQQAABBBBAAIG6EWDOnLp5VFQUgfoV+OhHP5pZ+XPPPbcqQ4b+/Oc/22233ZZ5jaxVp9RbSK90+ulPf1q0XHn6eLNvp5c0l0XW8LWeZKT5gNT7K2uy60rqqcm7Vc6yZcsqOY28CCCAAAIIIIAAAgh0qQDBnC7lpXAEEJDAXnvtlQnxpz/9yU444YROBXSeeeYZ+/znP59ZvuZ+0fCgwtS7d2/TRMTptGTJEjvjjDPSu9hOCRQGRQqXck9l7dTmypUr7frrr7eTTz7ZDjzwQPvGN75hc+fOzStTAZavfOUrVqo3ljL/4x//sK233tp+8pOf5J1b6QfVReU8+uijlZ7aY/M/+eSTNmnSJF+lrCsq+b3vfc+mTJnSFUVTJgIIIIAAAggggMBbAgRz+CoggECXC3zqU5+ygQMHJtfRXDB9+/b1zxdffLHpuBqYlaRVq1Z5Q33bbbe1efPmZZ56yCGHZO7XTs2JU5jOO+88+/KXv+y9OVS+XitWrOhUsKnwGgpWdEXSxMvppIBHeiWxUitXpc+J24V5tVJY4ZxEGjpX7aSgzYc//GF/Nr/5zW/soYcesu985zumZ/z73/8+udzDDz9sP/jBD5JeN08//bSfkw7uKFCotMsuuyTndWQjTvqcFRTsSHk94ZybbrrJf3f03VaaMWOG+y1YsKDT1VMPrq9//evem6nThVEAAggggAACCCCAQEkB5swpScMBBBColkBra6sdfvjhdtFFF3mRaoir0X7MMcd4kEAN9/e///22ww472Mc//nHf/sIXvlB0+cWLF9vUqVNN79dee22bQ180V8+XvvSlojLirFsMrgAAFkFJREFUjt13390b+n/4wx/iLn9X+XpVKymI9fLLLyfFnX/++b5K1VprrWUf/OAHi3oIJRlLbBQGWmK2wYMHx01/15w2ClhpiJsa7bfffrsVDpXKOyH1QZMvjxs3zp+Rgm4KqhQGzEoNnUsVU9GmVjdTDy4Nf/vrX/9qH/rQh/z8X/3qV270/e9/378b2rnTTjuZVh+LQ+UUcFEPGgXiYqpGEEbWv/3tb23PPff0Sbxj2fX+ftJJJ/nvnn4vla677jr3+9GPftTpW9Pqdeln0+kCKQABBBBAAAEEEEAgU4BgTiYLOxFAoNoCakD+8Ic/9ImE1WPm7LPPth//+MfeQI89AmbPnm16lZr/Zv3117f77rsvr5dGqXpq6NXmm29e6rCpJ8vPfvYz7/VRalnzkidXcEBDha644orkDPVy+fa3v+2f1SOpcLhXkrHCDS15XphuvfVW06sjqa1zZVfO8uqVXPeLX/yiaYUsPd/0c9tnn31Mky8vX748Ke6ss86yPn36eLBKPXdiL5wrr7zSAwn77ruvB2EUsLv55ptt+vTptmjRIjvxxBO9F5gK0kpl3/3ud+3ggw/24JD2qdfUV7/6VV+GXd8fDdVSnRR4/Na3vmWam0nDyyZPnmyjR4/WKUVJPYhuvPFG+/SnP20KRCldffXV/q5jd9xxhylYpt5Gp5xyii9jr4OXX3656XuoHkC//OUvTaur7bjjjj7MLPZiUz4FvX79619bDFZ98pOf9ECpjsWkoYfqpaRrbbrppjZhwgQP6um5aSW0448/3j7xiU/4amnyUU8dpa997Wt23HHHWfwuqcfOXXfd5cPctE/BV5WnpAnDNeeVAl0PPPCA51FZCszefffddskll9iAAQM8r4ao3XLLLf5s3/ve99qxxx5rW221lR/Tj7bqm2RiAwEEEEAAAQQQQCBfIPyfRxICCPRQgYULF+ZCb4qKX2EZ8Fxo/OZeeOGFDt1ZCDj4NcM8Mh06v9RJoWdOLvwF8leYtyYXGrW50HDNbbnllsn+0MMkp+uXStOmTUvyxrIK30OPjVxohJcqIm+/6hAalu2Wmb5GCEx5GaFhXXTeVVddlVf+I488ktO9ps+P2yFQ4XlDQKLoeGh055UTP4Qhanl5w5AWPySzkSNH5h2L1yn1HoJKfm5owCfnlapruowQ8IjVqcr7U0895deP99JWoWEiYs8bAiq5EMTJhR5c/jksN+/bIRiU+/vf/57cT1jNLBeCZsnn0OvHiw/BE98Xeh0llwvBGt8XgkK+L/RUSc7bfvvtc6G3UvK51Pcr1kdeYShaLqyKlgvD9XLROARxku9bCPj4dfTsVE+do/cQfMnpfvQ5zOOU1C8ML/PjynPooYcm5cTnqIxPPPGEn6drh4BbLgTC/HMIznk5YQU5/xx64+R0fyEY4591f6q77isEtXJ6xrp+CBblDjroIN9WWaGXmZeTttF+laMUAlB+3/4h/Ag9pvxc1XnMmDFJOWEYoGdpr76xHN4RQAABBBBAAIF6EFD7Se23ttozbd2H2m9qx6k911470NoqiGMIINC9Ao0WzNEfNTUO1UjUa+LEid5wVCM69CLIhZ47uTA3S5voOh7Pz3oPvQ9yoVdCm2UUHtQfyjB3Ty4M7SlZtsrdb7/9cqH3QfLHWX+sFfzQsfgKvYoKi8+F3g25LbbYoqhsNdqVLrzwwuR8lRN6neRiY7ewsEGDBuXlPe2005Iszz77bC70uCi6jpxC75LcNddc4w18fdZ1dM9KYZLhpEw9H/mFYVRF5eheQ+8WD04kF63CRuhp49dSsKK9lA5GKG/oYePnhp5eyakx0HDEEUf490sHLrvsMs8Xgzeyl4MCFzGFIXC+77HHHvNdMTAThvTFLB5c0Xlh2FqyL27EoIyCG/pOxxQmc/ZyQ08d36V8MbCh68fgk4JOClYpxUChgixKYV4gL0PBkqVLl/o+Bfx0LQV+lMLQOg/wKDgZhtb5vuilQKqSgkOqv8pTCqu4+ef0713oueP7Qo8dz6MfYVJj3/fzn//c90Ub/c7Gf6ykA23KpN9pXUtBuugcn7UCceXU1y/GDwQQQAABBBBAoE4EahnMYZhV+JcmCQEEaiMQAgh2ww03+DAWDb0IDUPbaKONfLhGeihJW7VRGW0lzUlTavWsUufp2hr6oZeWoNbwmtBbxOea0bwiI0aMMA0P0Tw36RQCKz5JcvhvS7I7BDyS7bih4T6hB4JP2Kv7DsEjny9n2LBhnkXDW3TtdMoqR8fT8+/oc9pDlprjRcN1HnzwQZ9bSHPpaHn2dddd1/Nq+JDcleI1NPGzhswoqTy9NHxHc5/MmTPHhxq95z3v8aFBmry62klDgkLPDR/OpLI1BEpz9qSThu/I649//KPv1hAkpTjEKj3RcRyCdOmll5rmTlKSuZKWVNd8QipPQ6HicR3T8KAQHPFhRnqmcb6cEHTUYU9Dhw7196yl2eOwLA2ji3MKvfjiiz6J884772yhB1oyMbCuo6Trx3sIvXgszmOzwQYb5F1Hw5aUtFJUnExcz2LDDTe08I8GP6YfWkZdliGI40Op9thjD/8ex/vUsClNXh2/ezNnzvRzP/KRj/i7Vi0LwUV//p/5zGd8n34MHz7ctzX/UtpGw+Ni0jA0pV133dXfzzzzTPfUUEPZKMXvXLzP9urrJ/EDAQQQQAABBBBAoEiAYE4RCTsQQKArBRQAUYNSARetSqTgi+aU0ZwcmmNDgYTYGK+kHjpPZWmp884kNbI1b0m5qxfF4Ed711QjVsEWvQpTuWXovNgYLiwj/VmBm1IBLV1L882kU9b1tU+BIM2J0tVJ89Jss802/ux1rdCt1MaPH++XVUBGKfQ+8ff2ghHpQEM6+KbVuPRsNdF26HnjQTsF2WIKPUd8npkwpMjrodXVVK90HuVVsE9Jwa3CFIMy6cBS6CXk2RSE0hLn6aQgoVL8vqe/czH4pDlqtDLZBRdc4AGWUaNGpYvwYKICjUr6bmjeIE38rUCVkua5UXBJFpovR3XUnD8xaV6dMWPG2Nprr+274vw+3/zmN2MWf5ePkoJMMWhVaJMOtN1///0eUNQ5MVCk7Zj0PNurb8zLOwIIIIAAAggggECxQPH/Qi7Owx4EEECgqgLq3aCGn3qJKKmRqZ4kWllKE79WmrSqkSZx7Wwgp9Lrkr86Anr+6Z4uCnqop5B6qih4oomiFVyKwQhN3htTYTAiK9CgJebV60YrpSmQpUmWldRbJiYFFpV22203f88KzOiAJvnVeelJmv2E8CMrKKMeWUoqX0Gk9EsTfZcKPqlnjdKkSZOSJdg1EXM6qUfT/Pnz8yajPvLII+3VV1/1yZcVbNEqYOecc46fVthzRiuUKWCl3jsxqVeUkoJeMamO6q2jYJgCVaVs0oG22BNHk56n71nb6o0TV19rq77x+rwjgAACCCCAAAIIFAsQzCk2YQ8CCNRAQD0BtJqUGsebbbZZcsUw/0aynbWhhnlMauBr+W01DsN8NnE373UooGCLghDpFIMPMcASP8dhPApkFPaeyQo0aGibgkIxaBEDFuleUhr+p6Rlz5ViYCbdA0ffVQUdp0yZ4nnSP0oFZTTMSkm9pbSCk17qSaMlvFV2DD6FuXGS4jSUKcyzY2PHjvXgSZgjx4+lV/TS78npp5/u+zXUSatLqe5aIU5BF/0+qJeOUjw/3XNG+7UKlVI6qKWhdUqvv/66v+uHgk667zD3ja+AFW3SPYkKA21xhTgNBYv3rd53+v3Vezn1TSrABgIIIIAAAggggECRQEvRHnYggAACNRTQcJq9997b59LREI904zmrGmoIq3GohuvRRx/tc89k5WNf/QhoCFGYUNeHEWnuIAUA5s6d6/PDaDiO5u9RKgxGKJijpPmNZs2a5fPUZAUaYk+cGKiJQRENy9N8QlqGPUxy7EEQBRpiYEZlK1Ci3iPqYaPgiebyyVqWPAZlCoceKRClpdEVXFEwREESBYPUO031isEnDSfTsCvdu3olKUAZ5zYKE3N73cJkxX5tzZmj/Orto55J6pmmclWWerZpSJVe6pWjwI6WG1dK95zR5xiwUaBGgS31NlLAS0ErLeN++OGHW1iNzZcy17AtLWkebTT8Lj2MrTDQFgNEmg9KATc9R/1+q/edgmkKZrVXX9WRhAACCCCAAAIIIFBCIPzDjIQAAj1UYGGDLU3eQ5mpVjcLaDUkrXKUXvFLS2trCfjQoyapXQgQ5C17rdW74jlauUpJS2DHZbLjifvvv7+v+qQlwpVCEMSX0A7/WdTM1cnS21qCWykulX7UUUclS4Yrn64RV5LyjKkfIVDhZYUARWpvzpeWPOSQQ/yYygjBFV/2W0tOKsVVoeLy38qje9cqVOmkJdd1bzquV+i1k4src8V8oVdOshS5rqMyQ5DLD+t6Ok9LuscUgmNJ/rhil5bBPOyww5LrqC5aASuuRhVt0suhq7y4SlVcJUv7tEpbrK/etVrXggULdMhTW/WNeXhHAAEEEEAAAQTqSaCWq1n1Ekz4RxYJAQR6oICGIqSHgpRbRf1aaziDJk4dMmRIuacl+dLna8JiEgK1EtBqSvrOaTLscpJWplJvFE3MG1dsKuc85Vm0aJGv/KReIm2lsEy4/x61l6+tMjSps4YwxVWqlFe/Z/o8cuRImzFjhqnHkF5ajapUko/mm2mrLqrv+uuvXzTRdVaZup6GSOmaGrYYk4Z6aXiWyulM0vNZvHixl1/q+VRS387UhXMRQAABBBBAAIGuFtC/nzSdhP7dk/63VbnX1RD9cs9nmFW5quRDAAEEEKiqQK9eb87Pkl+oln9f8dYr/0jpT1ou/c1VpkrnyTqi85a/9co6HvcpsFROvpi/1Lvu7c17zuXWSebLiUOzWlu1fHrfJE92KSqjvbqovvnzD2WXFfcqmPX28uZxr5n2Zz2jt3OUt6X6tPV88us7alRLmM/nzaXbyyufXAgggAACCCCAQPMJEMxpvmfOHSOAAAI9QkABjWZOcb6cuJR5s3s083eBe0cAAQQQQAABBCoVIJhTqRj5EUAAAQQQqIKAJhHWilLpVaGqUCxFIIAAAggggAACCDSBAMGcJnjI3CICCCCAQM8TGDZsmOlFQgABBBBAAAEEEECgUoHelZ5AfgQQQAABBBBAAAEEEEAAAQQQQACB7hMgmNN99lwZAQQQQAABBBBAAAEEEEAAAQQQqFiAYE7FZJyAAAIIIIAAAggggAACCCCAAAIIdJ8AwZzus+fKCCCAAAIIIIAAAggggAACCCCAQMUCBHMqJuMEBBBAAAEEEEAAAQQQQAABBBBAoPsECOZ0nz1XRgABBBBAAAEEEEAAAQQQQAABBCoWIJhTMRknIIAAAggggAACCCCAAAIIIIAAAt0nQDCn++y5MgIIIIAAAggggAACCCCAAAIIIFCxAMGcisk4AQEEEEAAAQQQQAABBBBAAAEEEOg+AYI53WfPlRFAAAEEEEAAAQQQQAABBBBAAIGKBQjmVEzGCQgggAACCCCAAAIIIIAAAggggED3CRDM6T57roxAjxbo1auX12/NmjU9up5UDgEEEEAAAQQQQAABBBDoboHYbortqK6uD8GcrhamfATqWEB/iJYtW1bHd0DVEUAAAQQQQAABBBBAAIGuF1C7qVaBHN0NwZyuf6ZcAYG6FNAfopaWFnvllVds9erVdXkPVBoBBBBAAAEEEEAAAQQQ6GoBtZfUblL7qVYBHYI5Xf1UKR+BOhXQH6E+ffrYgAEDbM6cObZo0SKCOnX6LKk2AggggAACCCCAAAIIVF9AQRy1k9ReUrtJ7adaBXNaqn87lIgAAvUuEP8AKbI8cOBAGzZsmM2bN88efPBBW7lypd9eLper99uk/ggggAACCCCAAAIIIIBAxQKxvdS3b18bOnSobbrppt5uij1z4vGKC67gBII5FWCRFYFmEtAfoN69e1u/fv1s8ODB1traam+88YYRxGmmbwH3igACCCCAAAIIIIAAAqUE1GZSe0kvBXLUfqpFIEf1IZhT6qmwHwEE/A+R/iAp4qw/Tuo6qERAhy8HAggggAACCCCAAAIINLNADNroPf2qlQnBnFpJcx0E6lQg/UeqTm+BaiOAAAIIIIAAAggggAACXSoQ201depFU4QRzUhhsIoBAtkCt/zBl14K9CCCAAAIIIIAAAggggAACEmA1K74HCCCAAAIIIIAAAggggAACCCCAQB0JEMypo4dFVRFAAAEEEEAAAQQQQAABBBBAAAGCOXwHEEAAAQQQQAABBBBAAAEEEEAAgToSIJhTRw+LqiKAAAIIIIAAAggggAACCCCAAAIEc/gOIIAAAggggAACCCCAAAIIIIAAAnUkQDCnjh4WVUUAAQQQQAABBBBAAAEEEEAAAQQI5vAdQAABBBBAAAEEEEAAAQQQQAABBOpIgGBOHT0sqopAJQK9evXy7GvWrKnkNPIigAACCCCAAAIIIIAAAgjUWCC222I7rr3LE8xpT4jjCNSxQO/evW3p0qV1fAdUHQEEEEAAAQQQQAABBBBofAG129R+KzeVn7PcEsmHAAI9QkAR3T59+thLL71kq1ev7hF1ohIIIIAAAggggAACCCCAAAL5Amqvqd2m9hs9c/Jt+IRA0wnEYE7//v1t9uzZ9swzz9iqVauazoEbRgABBBBAAAEEEEAAAQR6ooDaZ2qnqb2mdlslwZyWnnhD1AkBBDonEKO5LS0tNmjQINP4y3nz5tmsWbM8oJPL5Tp3Ac5GAAEEEEAAAQQQQAABBBDosIDabGqvDRkyxDbZZBNvt+mz9sf2XFuFE8xpS4djCNSxgP4AaMxl3759bfDgwdba2morV670wE4d3xZVRwABBBBAAAEEEEAAAQQaQiC21/r16+eBHX0uJ5CjmyeY0xBfAW4CgWyBdEBHUd7YIye+Z5/FXgQQQAABBBBAAAEEEEAAga4UiEEbvadf5V6TYE65UuRDoE4F0n8k6vQWqDYCCCCAAAIIIIAAAggg0NACsd1W7k0SzClXinwI1LFApX8Y6vhWqToCCCCAAAIIIIAAAggg0PACLE3e8I+YG0QAAQQQQAABBBBAAAEEEEAAgUYSIJjTSE+Te0EAAQQQQAABBBBAAAEEEEAAgYYXIJjT8I+YG0QAAQQQQAABBBBAAAEEEEAAgUYSIJjTSE+Te0EAAQQQQAABBBBAAAEEEEAAgYYXIJjT8I+YG0QAAQQQQAABBBBAAAEEEEAAgUYSIJjTSE+Te0EAAQQQQAABBBBAAAEEEEAAgYYXIJjT8I+YG0QAAQQQQAABBBBAAAEEEEAAgUYSIJjTSE+Te0EAAQQQQAABBBBAAAEEEEAAgYYXIJjT8I+YG0QAAQQQQAABBBBAAAEEEEAAgUYSIJjTSE+Te0EAAQQQQAABBBBAAAEEEEAAgYYXIJjT8I+YG0QAAQQQQAABBBBAAAEEEEAAgUYSIJjTSE+Te0EAAQQQQAABBBBAAAEEEEAAgYYXIJjT8I+YG0QAAQQQQAABBBBAAAEEEEAAgUYSIJjTSE+Te0EAAQQQQAABBBBAAAEEEEAAgYYXIJjT8I+YG0QAAQQQQAABBBBAAAEEEEAAgUYS+D9dKDR89fqKygAAAABJRU5ErkJggg==;" vertex="1" parent="1">
          <mxGeometry x="670" y="320" width="1139" height="960" as="geometry" />
        </mxCell>
        <mxCell id="_Icnadqldm7JAuMDdTMk-7" value="" style="shape=image;verticalLabelPosition=bottom;labelBackgroundColor=default;verticalAlign=top;aspect=fixed;imageAspect=0;image=data:image/png,iVBORw0KGgoAAAANSUhEUgAAANIAAAEiCAYAAACMfIzvAAAAAXNSR0IArs4c6QAAAGJlWElmTU0AKgAAAAgAAYdpAAQAAAABAAAAGgAAAAAABJKGAAcAAAASAAAAUKABAAMAAAABAAEAAKACAAQAAAABAAAA0qADAAQAAAABAAABIgAAAABBU0NJSQAAAFNjcmVlbnNob3SGjomjAAAB1mlUWHRYTUw6Y29tLmFkb2JlLnhtcAAAAAAAPHg6eG1wbWV0YSB4bWxuczp4PSJhZG9iZTpuczptZXRhLyIgeDp4bXB0az0iWE1QIENvcmUgNi4wLjAiPgogICA8cmRmOlJERiB4bWxuczpyZGY9Imh0dHA6Ly93d3cudzMub3JnLzE5OTkvMDIvMjItcmRmLXN5bnRheC1ucyMiPgogICAgICA8cmRmOkRlc2NyaXB0aW9uIHJkZjphYm91dD0iIgogICAgICAgICAgICB4bWxuczpleGlmPSJodHRwOi8vbnMuYWRvYmUuY29tL2V4aWYvMS4wLyI+CiAgICAgICAgIDxleGlmOlBpeGVsWURpbWVuc2lvbj4yOTA8L2V4aWY6UGl4ZWxZRGltZW5zaW9uPgogICAgICAgICA8ZXhpZjpQaXhlbFhEaW1lbnNpb24+MjEwPC9leGlmOlBpeGVsWERpbWVuc2lvbj4KICAgICAgICAgPGV4aWY6VXNlckNvbW1lbnQ+U2NyZWVuc2hvdDwvZXhpZjpVc2VyQ29tbWVudD4KICAgICAgPC9yZGY6RGVzY3JpcHRpb24+CiAgIDwvcmRmOlJERj4KPC94OnhtcG1ldGE+Chq+TjQAADF2SURBVHgB7V0HnBTF8i5yTpKRnATJOeeM8BCVqGRBgsIj/nkIiIAgEgUeOSMCknM8QEByzkE4BMk5wxHuP19h75vd29vbvZsNs1v1++3NTE93dffX/XVV1wxMtFBNSEQQEASihED0KJWWwoKAIMAICJFkIggCBiAgRDIARFEhCAiRZA4IAgYgIEQyAERRIQgIkWQOCAIGICBEMgBEUSEICJFkDggCBiAgRDIARFEhCAiRZA4IAgYgIEQyAERRIQgIkWQOCAIGICBEMgBEUSEICJFkDggCBiAgRDIARFEhCMT0NARnz56l3bt3W1VbqlQp+uCDD6zS5EIQMBMCHrdIN2/eJPxbQv0PaSKCgJkR8DiRHj16FAYve2lhMvlIAkh/8eJFH2mNNMNXEHArkTZv3kwbNmygS5cu0YsXL2jv3r10586dMH1HGu4hD/KiDMq6W9avX0/Dhw+n58+fO13ViBEjqGrVqk7nd5Rx/PjxNHfuXEdZwtx79uwZ9enTJ4x7HCajlxIi0ycvNdXQat22R7pw4QJduXKFG3vt2jWHjYabd+rUKf7pM0JHtmzZ9EmGnb9584b69etHd+/epdy5c1OdOnUM0+2sosWLF1Py5MmpWbNmzhahe/fu0YIFCyhlypSEvaWzMnnyZLp+/ToNGDDA2SIO812+fJlGjhxJX3zxBRUrVsySNzJ9shQ28YlbLNKrV6/owIEDUYYFOqDLHbJjxw4mEXT/9ttv7qgiQp2wvAsXLowwnz5D+vTp6dixY9S1a1d9coTn+/bto40bN0aYz9kMDx48oFWrVtHVq1etikSmT1YKTHoRQ1uhBhjddgy0skb2dCdOnJiyZs3Kq2pISAi9fPnSXjYmUfTo0Slt2rR270clES4aVvcOHTrwZP70008J7bIVTL4xY8bQsmXLmHiwrog8dunShbNu27aNpkyZQqlTpya4NTNnzmTLmiNHDnr8+DHBEkybNo0nXKpUqShp0qSWKsaOHcu6ChUqxGkzZsygP/74g2LEiEG4t2jRIk7PmDEjxYoVi88fPnxIP/74I+fJnDkzp8G6IhKK8lgUsPigPfHixeP9HNxX3L99+zZhjxc3blyCTtX2mDFj0ujRo+ngwYNUvnx51nnmzBnu1/Tp0yk4OJgSJkzIOnFz6tSpjAfS4ZafOHGCKlWqxOVs+4REjC9IBxxgsUC+PHnyWPqEPN9++y3nO3nyJOOItqHO999/n6JFi4YsPi1usUiYLCCAPcmZMyfVr1+fSpYsyT+cI82eQId+4tnLE5k0EGjt2rX02WefcVugY/ny5WFUwYVq3749T7A4ceLQhAkTaOXKlVb5MOGQ71//+hfBFcVKjcnXpEkTqlevHi1dupQnCIgL9xELhxLowoRRsn37dho1ahQ1aNCAFyJFWBBUCfZzqA/1Kunfvz+7h5iEmLTdunWj6tWr80IBt1lv1XH++vVrLgr90NWqVSvasmULl8UNkLl27dpMFrieIDT6cujQIS6H8krn27dvHfYJJO/Rowd1796dEFQCjiB23bp1eaFhhdqf+fPn09dff83uNvq4bt06+vzzzwmegylEA9otoq18odoghWqrpOWnrUahGrBh6kMa7unzoix0uENmz54dmiVLllBtJWX12qQP1fYbodoEsVSnbepD8+bNy+lPnjzhdI2AoRUqVOCyKuPEiRP5WptsKilUCwZwmrb3sfRXIyqnbd261ZIPupBHSYsWLTjPzp07VVKoNuFCK1eubLnW9jmcB/VCtAnN1+iDEs1d5DTNiqqk0NatW3NfLAnayaRJkzifZo1CNUJYbvXt25frRH8h6D/w0qywJc/Ro0fD1IGbtn0CLiirLS6WstoixmkaoSxpyFO0aNFQ9A+CupH23Xff8bWv/7FvNgxYAuDGYBOvF5hpe5YKabinF5SFDnfIvHnzCK4X3AvIJ598Qjdu3CDsI5QgxP306VNe2RMkSMDJyZIls9pYq7w4li1b1nKpTSY+b9y4saW/JUqU4LTjx49b8tk7gctVpkwZyy3ohQsFl86ewC1DGeiF+4l8sGiwWFj1nZFGjRpZuU+DBg2ioKAgthjABHtV4HXkyBFn1FnlQTQWAgunREU9YQX1UrNmTUqTJg0nAWttIbNYQX0+Xzx3W9TOFzuLNmHCnT9/nvcCK1as4Gaq8Df8dxUJw14CUrBgQT668gfuCwR7FCVqj6OtrCrJqWPs2LE5n6Ny2KMp9wmZsc/p2LEjFS9e3Kk6bDNhLwWX9vDhw3wL7h2imyCsq4L9MsopgqA8sMCeSrPODtUBRyxmZhC3EenWrVt0+vRpKwywyYRPbWuVkGYb/UFZgG+0VcKeBYL9CH56wYqO/UaSJEn4h3uKUPp8vnaOPSb2W7CisCSwuLCGS5YsIRXIcKXNmjvFJMJeD2SERW7evDkh5O2qgIR79uzhfZRaFKAD46u5bq6q89n8bnHt4Ipgs4iHh3rBZhPRIxBHCc6RZvt2A8pCB3QZJbA8yurA9dH/EImCoE5IpkyZ+KgnG6xCRM/EuJAH/2BCwpVDVAyR0LZt29KwYcO4Bbt27bJqiQoQWCXaucCD6vz587PVAImAm+1Cp4qpwIW6tj0q9xkRQSUgPFxpbU+kkkx/dItFQuRKTxY9SufOnWMQ1Z4IA2RLIpUfOqDLKMFqDVcB0Tr96gj92Ndg0iCKhdU8RYoUPEERsRoyZAjvjTZt2sSkN6o9RujBqo4FYeDAgYxjunTpuA/QXbhwYUsV2HPClcJCggmsQueWDLqTIkWKcKQSYX/oAwZqQcOYwKNQ5VevXs1YAT97Yeovv/ySo5iI2uEBOELviNpBEC30F3GLRcImMX78+OFiBOJgJcUvPBKhMHRAl1Gi3Dq12dXrxaYdBIJP/+eff/ItuDjYJOP5x1dffcXPSypWrKgvZjnXTyJb1xWZ1H11VAX1efXn6r7Kb3tU9zExEbrHPgQTtU2bNuyODh482LLfQ14EHkC6Xr16cegfaeHpVOFpPBPq3bs37/VUv5Wri2du7dq1Y/dYiwhaLZz6fuB5FqwlHmN06tSJ24cFC+HuXLlyoRl+IdEQVnRHT/BMRe8WRaYObJrd9YqQK+2BFcPzH0SSfFngguF9xfDaiaEGEfB6ER76RiRwr/EcKFGiROFmVQuhvYfZtoXwgBriSJ9tGbNcu41IAAAvnmIg8G+NEDjQnj2wFbLlLlZGuB4FChRgtw8PCjHQ9iyHWYCVdgYWAm4lkj0o4VMjvKoXrJDeeGlU3wY5FwSigoBb9kiOGmTPBbCX5kiH3BMEfA0BjxMJm0+4cvof0kQEATMj4HHXzsxgSdsFgfAQ8LhFCq8hki4ImBkBIZKZR0/a7jMICJF8ZiikIWZGQIhk5tGTtvsMAkIknxkKaYiZERAimXn0pO0+g4AQyWeGQhpiZgSESGYePWm7zyAgRPKZoZCGmBkBIZKZR0/a7jMICJF8ZiikIWZGQIhk5tGTtvsMAkIknxkKaYiZERAimXn0pO0+g4AQyWeGQhpiZgSESGYePWm7zyAgRPKZoZCGmBkBIZKZR0/a7jMICJF8ZiikIWZGQIhk5tGTtvsMAkIknxkKaYiZERAimXn0pO0+g4AQyWeGQhpiZgSESGYePWm7zyAgRPKZoZCGmBkBIZKZR0/a7jMICJF8ZiikIWZGwC2fvnQ3ILuPBNOOg3/SsbNX6e8b9+np8xB6pv3wH/MnShBH+8Wl5EkTUKHcGahYvkxUvlh2iqF9rlFEEHAXAqb6T/TvPXxK341bQ2t+P+ESHiULZKGx3zagFMkSulROMgsCziJgqmV60oKdLpMIQOw5GkzDpm10FhOv5nvy7CWd/+s2PX/5ytKOv67do2u3HlqunTm5/+gZ63nz5n9fkHemnOSJHAKmItLGXacj10ut1K7DwZEu60zBMxdv0sxlu+nfQxczaf84dMGZYmHybNt3nmp8OY5O/3ndcq9F79nUe9Ryy7UzJ7+tO8R6bt17991WZ8p4Ms+mXWdowPg12qdR/YPoptkjvdE+S39ZW5khFzcNDDPmOWoO4LTz698d9RmyVutP128/JOhwx15p6qI/aOiUDZQgfhzKmSkVrdxyjCYv3EnN65WgAV9/pG9KQJ53H7aEiuTJSE3rFLP0f/v+8zRv9X7q2rIyJUkYz5Ju1hPTEMlXAd74x2km0WfVC9Hgf9el2LFi0sMnz6nHsKU0Z8Veqlg8p/bL4avN90i7lm0+SrFixaCm9D8ifd+5Dv2nXQ2KHy+2R9rg7kqESFFEeMHaA2yJYHlAIghW2I5Ny1PQnrMUtPuMFZHgAm744xQdPHmZMqV9j+pWzkfF82Xmcq78gZ6lm47QuUs3qUCu9FS11AeUL+f7YVScDb5FE37dTn9dv0c5M6emtg3KUOrkiazyRdQmuJsbtTbXKPsh15nyvUTUt31N1uGoHVu0/m/W+g/Zo0Va+4xeQZ2aVqD3Uydlq73/+F80uEtdjrYiz8uQ17R2+0naqUVkHz15QYU/zEAt6pek+HH/R7YZS3dzhLZUwSy0aMMhuv/wGdWpmI+qls5F8eLEghqWG7cf0abdpwltz501DVXT7uf/4H1LXSqfUUdT7ZFUp+FX2/4oVLur/WzT3emDh4aG0v4Tl6lKyQ/CrKwIvS8Y1Zqa1v3fKnz0zN9U+6v/0sJ1BylN8sS068hFatxtBi1Ye1B1zakj9l/Qs2zzEQ7zY0LV6zSZDmnktJXW386lUxduUByN5DOW7KI67SfwJFX5nGnT2eCb3MZWfebSlr3n6OU/gZCI2vHmbSi9ev2GqwrRjjh/q2EGOXjyCs1fc4DP8Qdud4+flhLcQJAoTuyYNHzGZqrbYSI9fvrCkg8u4ahZQdTg39PoyvUHhLZ1GbKIxs/73ZIH0d1q2j7zp+mbmYRLNZzqfzOF3W1LJoNPTGmR1H7IHhaO7tnLH5W0G3ce0VMtypYuZRK7avSWBqT7st88nvjrpnRiq/VCm5ANu07jlRorJp59OSPrd5yiLOmT0+Kf21KyxPG5Dfnq/UBzVu6jwtpeRC+9vqxG7RuV46RF6w/R/41crpHiALVrWJZcbVPnLypSl+aVLKt6RO1An/BbsvEIlS+anX7s9rG+aVbnyzYd5YgsLF3rT0vzvXWadeo0aCEToEfrqlb55w5rQWUKZ+O0f3WcSOt3nKSe/+TBwoRxwUKGMQCBKzQfreGzl9o3foeFlTIDLkxpkQzotyEqQl69W22xekYkl6/fp7sPnlLNcnksm+u4mitSr3IBLnr49JWIVFjuD9LcoaCZXbSV+iXtO36JDmiWKEemlHTEjo56lfNbylUtletdXafe1eVqmxrVLmIhERS50g5LI8I52XvsXVS1doW8lhxw1yBb9p61pOEkY9pkFhLhumzh7BT8913em+I6Q5pkONDcFfv4oX2MGNFpx9xu9Pucrpzujj8RzwB31OonOmENIEfP/h1hj85oLgikuPamhV6K5n1nQa5ob2g4K7fvPaH2A+aTIh8sGUiKCeZIkiWJz3mu3nrA2aLapsi2w14b8ZYK2p8mRWLL7VgxY1ClEjlpq+ZOOpLYWiAD8o/XSLUr5KGLV+7Qz3O3spUDPo1qFaFOn1cg6HSHCJGigGrihHE50IANbcir15ZgA1Tiutn/zaaieTOxy5E00bsQL8Lwegm+epcvU2t7Jmflu/GrmUTTB3/BxETYvbn2rEk9HnCkB3uVRAnetSWqbYpKO2zbmDxpQn5wbovj6Ys32I21ze/oGo844IK2bViG9h69RKu2HqcJ87cTdAEzd4gpXbvWn5SinfO6E47hiTN5wivrSnqjmoU5u+0D360auRCVUvuebBlScD5E8vSy48CffJk3Rzp9ssNz7E0QgcJqDRLhLYirN99ZGduCeCtCyZ+XbxOiWTkzp+KkqLbJlXa8ffMuyKDaYnvMkyMtJyEIoQRWBe3FYuSKDJywlhBkiam5dMBoVO9PCa+JwbKp4Icr+pzJaxqLhBdSsdIgutOuUVlKpYVgcUQ41J7Y5oGfDB1GCzavC7VNPAauz1c1KH3qZLyyLtFC02lSJiY8X4LgPT9s8Kf8tpMGT1xHVbRw9QEt4odnLA00MkbklunbjYebCJ+Pmb2F0qVKymFg7BEgiIpF1/Xzm8G/0b+11TlZkgQ0cuZmztP0o6J8jGqbnG0HSL/z8AXC2wx4iVhZQm7EP3++/KwMTV+8i7r/tIT6ta9F2D8On7GJ77aqH/6Cqdehzt/XMJm1bA/1HrmC6lbKxw/j8ZoY6g541w6TI7u2oUa4c87yvVpkpxTNDIdEANQ2T/aMKa0mmAI9qkdMxk3TvqE+Y1bQkMkbLOpqlvuQHzjC/VPSo1UVzf2LwaFaLACwVnj7QT2TQb7o0e2TXU+O4T3r02iNRGN/2caqyxbJxs+q4GLe1CKJabUoouJSE400/cau5nywXuP7NaIc/1gkJDrTJqUrGlm3zZl2oI42WhSuz5iV9NV3v9Jvo9uwhVE6cR+CZ1urJnagnsOXcqQOaSDq/JGtKVfW1LhksYePWiCVzlba3Hj6IoTwxsnyoKNstT+tXpA6N6uk1Bh+NNXb33iLAJvsyMikAU2oepnckSnqdJnX2v7jzv2nlPK9hAQLGJ7AamCjnkrLpyZBeHkdpeOfjsBC45+NOBI8S7t9X6tPm6x6QurLRKVNzrQDD1vxfChFsgQR9lk9N4qoX/r2h3eOdw2Ta9bY0XiEV9aVdFMRCR3D03KsxHiijo0pxPb9OUwuCN40wGqG5x+VtYemIoKAuxAwHZEABJ5/NOk+g31fPBuZ0L8RxdSFNf/76+/afiBI2z8koV9HtHZp/+EuoEWvfyNgSiKV/Xwk//scvAw6+fumdjeQ2IjDcoFMiPCJCALuRMCURHInIKJbEIgMAuHviCOjTcoIAgGKgBApQAdeum0sAkIkY/EUbQGKgBApQAdeum0sAkIkY/EUbQGKgBApQAdeum0sAkIkY/EUbQGKgBApQAdeum0sAkIkY/EUbQGKgBApQAdeum0sAkIkY/EUbQGKgBApQAdeum0sAkIkY/EUbQGKgBApQAdeum0sAkIkY/EUbQGKgBApQAdeum0sAkIkY/EUbQGKgBApQAdeum0sAkIkY/EUbQGKgBApQAdeum0sAkIkY/EUbQGKgBApQAdeum0sAkIkY/EUbQGKgBApQAdeum0sAkIkY/EUbQGKgBApQAdeum0sAkIkY/EUbQGKgBApQAdeum0sAn5DpKNHjxJ+IoKANxAwzTdkHYEDAh06dMiSpUCBApZzOREEPIGA6S2SLYlAKLFMnpg6UoceAdMTSVmi5s2bE34QlabvqLvPz58/T7Nnz6bu3bvz8dy5c+6uMtL6N23aRAMGDKA3b95EWocrBcePH09z5851pYjp8pqGSG+178La+/kC4vPmzaMaNWrQ999/T6dPn+ZjzZo1ac6cOb7QvDBt2L59O7ftyZMnYe5FJeHy5cvUpUsX2r9/v5WaxYsX0/Lly63S/O3CNF/smzlzpkvYt2rVyqX8kc28a9cu+uKLL5hII0eOpPjx49Pz58+pZ8+etHbtWrZO5cqVi6x6t5TDgvTixQtuq5EVHDt2jD7++GMaNWoUH5Xuly9fal8Vj6F959cvtuSqW1ZH/+2ZVTfdd6EI/uOPP1omZrx48Wjo0KH0+++/88qviLRt2zbauHEjk27p0qWUMmVK6tu3Lzfu5MmT9Ouvv9KVK1cob968VKFCBVqxYgV16NCBMmTIwHngii1YsID27dvHblm1atWoYsWKlCRJEksHv/32WypTpgyFhITQ5s2buU3169enEiVKUPTo7xyQlStXstUYPHgwRYsWjQm/c+dOiw51gnsqD9K2bNlCQUFBdP36dW5flSpVKH369Jx96tSp3C5cwELDvR44cCDf++9//0tJkyal1q1b8zX+gFxYaFDvo0ePqHDhwtSiRQsLhsjjTF+QD9ihXUeOHKGyZctS1apVKWPGjLjlMXmHrMeqi3pFLVu2JPxsJbx023xGX2Pw6tatazWZUUeiRIkIEw33lZw9e5aJAGuJSYnJBDlx4gTrwARPmDAhbdiwgZo0acJ579+/z3lCQ0N5D9ivXz96+PAhPXv2jLp27UrffPMN31d/5s+fT19//TUhHyzjunXr6PPPP6cdO3aoLHTw4EFCPiWYyDdu3LD8Tp06xXWjPUpAhi+//JKOHz/OfRsxYgTVqlWL24E8r1+/plevXnF2WDwQWQn0YBFRggWhR48evJ9E3XHixKHhw4czBo8fP1bZuI0R9WX37t1cDotOggQJaPTo0by42LqXFqVuOhGLFAVgb926RXfv3qVMmTLZ1ZIuXTq+f+fOHUqRIoUlT+fOnXkvgRUfgsGHwNrkyZOHrQ0Isn79ek7Hnz///JOCg4OpV69e1L59e04fN24cl8W97NmzW/ImT56cVq1aRWnSpCEQsUiRIrR161a2IpZMupPGjRsTfhAQFnXDTUOQAG0EMUAGLAywPJC9e/cy2ZGOsrCcsITYfzVr1szKteMCuj/Lli2jNWvWsDVWVgqE79SpE02ePJlJprJH1Be0EYL+wq0GFtWrV6clS5ZQsWLFlBq3H01HJETG7Ilt+qxZs+xls2vN7GZ0IhFWARI7dmy7ueHiQVQ+lalRo0Y8QdU1JjlcEZAIgv0E3BM9kXLkyEHYjz19+pRdmXv37lGsWLE4/5kzZ6yIhEAHSARJliwZu4rORjJ/+eUXdrlgCeBeQuASwkrCkiA6efv2bYs1hVvlqoCEkNq1a1uKor8QWGpYKyUR9SVr1qwEqzRt2jQmLxYUWH7lxio97j6ajkjOAoKVFaJWfXXtbHln8qVNm5az3bx50252WCwILFN4AmJAnFk9Mcn79+/P+eHGOCtwnVQ9jsrAbfvuu++4LYi+6eXAgQMESwoXEAJLEVmBtcPCocgOPVgUKlWqxJbTkV7bvoB0sLpjxozhX65cuXixbNiwoSM1ht8z3R4JG1L8bMXVdNvykbnGoObPn5/3HPaIigfDuO8oWhU3blyuOjwyqnZh5QeJEGbHfgOT0dYKq7yROWLf9dVXX/E+Y+zYsWwVlR5YVJAIggABnpEh4BFZAQkRKtfvo6ALjw6yZMnikloEWuDewcph34YFpnfv3jR9+nSX9EQ1s+mIFNUOG10eUSK4VnB99ILJjiBC6dKl9clhzuHGYRVF9ArBASVq5VfXsAgQuIVYzWFpL126xGn2SMw3nPyD8ph8qHPSpEmUOnVqq5LYm+EeQttoKxYGRBfDEwQeHIlyYRH0UHLx4kWuo2jRoiopwiPqadq0Kf30008cAf3kk08sz+7gInpSTOfahbf3cTXdKJCxMUeEqGPHjhwEyJ07N+8jsEoWKlTIspI7qq9t27YcwcJmG9E6rPh4JqWXnDlz8iVcGAQvMJERbIBgzxIVQdgdCwGsJywTrI4SLAQq/L5o0SImGYIPKuigJ3zmzJm52OrVqzm4gj2Wcq2VPhwR/YPFwFsgiC7CKiNqB3Hl+R8IjX0oyA8dwBv7JQjC/Z4U0xHJk+A4UxfcOwwkHkJioiGKB9cFkSyEp5XrBl1qUqmj0o+VHsQASWDJ4J6UL1+eI2AqT6lSpXj/grclELlDHpAYZILFcEVs64ebCMERQQa9IMKGl4DhRk6cOJHf2sB9uNIgDIIPShInTkzt2rWjKVOmcNtxDxYXot/8w+IhyoaH1lg8IIgsIiQPi+eKADM8i8MRAmuNNqjIpiu6opLXdG82qPfpbF+/cTbdlRUvMsAiwIAHrbaTNSJdeH6C1RVETJUqFVsyhIgRqdNvyqEHdSCcrp+cEek36j429iBxeJFK1INnQxAQKyJRz43w3C0qgoiiwi4qeiJbVvZIkUUunHIggaskQjQOQQS4JdiAw9UCifCGgy2JUC3q8AaJUDfC6Y5IhDwgkDMkQl4QKKokgh5YPuDiLTGdRYoqUO62SJFpH1ZSRMWUfw8dcHGwz8JzEhHfR0D2SD4wRthT4f00hMDxZB6uYbZs2Sz7Cx9oojQhAgRMY5Ei6IfcFgS8ioDskbwKv1TuLwgIkfxlJKUfXkVAiORV+KVyf0FAiOQvIyn98CoCQiSvwi+V+wsCQiR/GUnph1cRECJ5FX6p3F8QECL5y0hKP7yKgBDJq/BL5f6CgBDJX0ZS+uFVBIRIXoVfKvcXBIRI/jKS0g+vIiBE8ir8Urm/ICBE8peRlH54FQEhklfhl8r9BQEhkr+MpPTDqwgIkbwKv1TuLwgIkfxlJKUfXkVAiORV+KVyf0FAiOQvIyn98CoCQiSvwi+V+wsCQiR/GUnph1cRECJ5FX6p3F8QECL5y0hKP7yKgBDJq/BL5f6CgBDJX0ZS+uFVBIRIXoVfKvcXBIRI/jKS0g+vIiBE8ir8Urm/ICBE8peRlH54FQEhklfhl8r9BQHTfWgMn7I/evQof/kbg5AjRw7+WLD6FCS+uH3kyBH+YBfu42vg+Jiwq5+jRFlnZMSIEfx1vTp16lhlv3z5Mi1cuJA/aYmvhYv4NwKms0gg0eHDh+np06f8A2nUV7kxVLiHPOq+unbXME6YMIG2bt0aRv2NGzf4K+Bnz54Nc08S/A8B0xHp3LlzYUYBn4tUYu++vTSVX46CgBEImM61s9dpuHtmEHzCfs+ePbRp0ya6desWVa9enSpUqMBfCte3f8eOHbRx40a6evUqwS1s06aN5cvf27Zt43v4CvrSpUv5e7N9+/bl4rCC0I08uXPnpmrVqnF5d7m1+jYH+rnpLFL27NnDjJk+TX+uMtpLU/c8eezfvz81a9aMTp48SS9fvqRu3boxme7du2dpxoIFC6hFixYUFBTE7unYsWPp448/5vzIBFcRefB19i1btljSoQPE+emnnyh+/PhMsvr169PkyZMtuuXEfQiYjkgFCxbkVTZu3LiEX758+TiYoCAqUqQI5c2bl+/hPlZ0lPG2vH79mubPn08lS5akRYsW0fTp0+nHH3+ku3fv0vbt27l5CFD06dOHatasSbBKCFaAGMHBwbRixQqrLnTu3Jn3hoMGDeJ0kAv7QugdN24c/f7775QmTRqaM2eOVTm5cA8CpnPtEJ0DWfCzJ7hfrFgx/tm77620mDFjUsaMGen48eO0bNkyqly5MjVo0ICtTYwYMbhZCIxAypQpQxcvXuTzbNmy8RHlGjZsyOf406hRI6tIZIYMGfje3LlzeRHBYgIyIoop4n4ETEck90PivhqmTJlCPXr0oO7du3Ml5cuXp44dO1Lx4sX5Gi4fpF+/fnzU/7l27Zr+Msx57dq1mXw///wzrVmzhpInT85k69SpE8WKFStMfkkwFgHTEAkrK1ycv/76ix49ekRPnjxhJBImTMgb8UyZMlGWLFlIv7pjYuJ+4sSJSd1Xz5uMhPHSpUth1CFQAIF7qQTPtFauXMkTHnugefPmUePGjWnJkiVUqFAhSpAgAWcFGXLlyqWK8VHds0rUXaDfXbp0obZt29LevXtp1apVhND86dOn2d3TZZVTNyDg80RCRA7PiTAhnj9/HgaC+/fvE37YX+zfv5+jVXgAi4kJsiE0jvsgoLqPfZNRkSy4mAcPHuT64bopUXuarFmzchLaj2BD8+bNqW7duoR0tKNJkya0a9cubi+IBkFAAXmU4Dp16tTq0u5x4MCBBEJPmjSJKlWqxD9E8fCM69WrV2KV7KJmXKLPEwmTzNnnQC9evOAHss+ePaPSpUvzWw/6Z0wg4qFDh5hg2IcYIXDNEJ6GZcEvXbp0tHbtWg4gVKlShfLkycPVwFqeOXOGMOFhUZEPAQJI4cKF+YhwOCwRLMnt27c56IC90ZgxY+iHH35g0nFGO3/ef/99mjVrFvXu3ZtJeP36dQ61Y78orp0dwAxOiqat+D77EAZNw+YZz19cEWzsEWaGO4iolW0X4QbhvlFWad26dTRs2DC2Smgn9idwsz777DMr1+7ChQvUq1cvJjvywSIhgNC0aVNcsty8eZMGDBhAGzZs4Gu4dHDXvvnmG24v9lmI9mGBQVROCfo6fvx4mjp1KkfvUA7RP0T3VCBC5ZWj8Qj4PJGwykZG8JwFMnv2bLuRq5YtWxpGJNU+uJIPHjxgN8yRFYBlhPVMliyZKhrmGBISQg8fPuQHrmFuRpCAh70gs9ovRpBdbhuAgM+7dlENDsDqRFWHszgjsIFfRBIvXjzCz5HEjh07UiSCzlSpUjlSLffcgIBPWyQ39FdUCgJuQcB0bza4BQVRKghEEQEhUhQBlOKCABAQIsk8EAQMQECIZACIokIQECLJHBAEDEBAiGQAiKJCEBAiyRwQBAxAQIhkAIiiQhAQIskcEAQMQECIZACIokIQECLJHBAEDEBAiGQAiKJCEBAiyRwQBAxAQIhkAIiiQhAQIskcEAQMQECIZACIokIQECLJHBAEDEBAiGQAiKJCEBAiyRwQBAxAQIhkAIiiQhAQIskcEAQMQECIZACIokIQECLJHBAEDEBAiGQAiKJCEBAiyRwQBAxAQIhkAIiiQhAQIskcEAQMQECIZACIokIQECLJHBAEDEBAiGQAiKJCEBAiyRwQBAxAQIhkAIiiQhAQIvnYHMDX169du+ZjrZLmRISAfLEvIoQiuI8vk1+5csWSC5+0zJQpE1WoUIESJ05sSXf2pGLFipQxY0b+iLSzZSSf9xHw+W/IRgQRvlh+6NAhCg4O5qxZsmShwoULG/6h5fDasWzZMtq/fz+hXohqB74qjg9JFylSJLyiku5HCJieSCDRsWPHLEOizj05gfEF8aCgIG4Dvli+fft26tChA3Xv3p22bdtmaZuc+C8CpieSsgD6IUKaJ4mkrxuuXY0aNah8+fJMqLt37xKIBrl16xatW7eOdu7cSbBYZcuWpU8//TRC63n79m1atWoVl0uRIgV99NFH7Drq6z158iST+ciRI6y3atWq7CLq88i5+xAwRbABExATafXq1XTz5k2X0UAZlIUO6PKEPH78mKsBsSD379+nJk2a0Pfff0+JEiWi69evU69evdhqcYZw/jx8+JAaN25MgwcPprdv3zIRW7VqRXAplezevZvq1q1LK1asYIKOHj2asNeCyyniGQRMQSRMiDt37hBWZtvJofYmerhs01AGZaHDtry+XFTO37x5Q/hdunSJxo4dS4cPH2bLFD9+fFYLIsBSYrKPGjWKFi5cSM2bN6fly5fTjh07wq166NChXG7lypW85zpw4ABbmiFDhnB9KDh+/Hguj4Vi3LhxFpItWbIkXL1yw1gETOHaIaCgRH+ONAQWIMrFU8EGTvznj76M/lyfJyrncN9y5MhhpaJKlSo0cOBASxr2TYjG5cuXz5L2ySefcHQO98qVK2dJ15/gHvoUJ04cOn/+PN8qWbIk/fbbb7w4pEmThrJmzUqwStOmTaOPP/6YsmfPTmfPnqXo0U2xTuq7a9pzUxCpePHitG/fPt5LFCtWzArsaNGiUZ48eShz5sycjr0H0vRSokQJtkQgEXQZLahz0KBBrPaPP/4gWAK4cSlTpuQ0EA2/mjVrWlWNdkMuX75sla4uHjx4QDdu3OBL7LtsBW4qiNSjRw92HceMGUP45cqVi1q2bEkNGza0LSLXbkLAFERKlSoV1alTxwoCTLJTp04RHmC+ePHC6l7cuHH5Wc6HH35ISZMmJZTHBt1dgvpgCSCVK1em9evX0w8//MABgRgxYvCeCPeuXr2Kg0XUg9e0adNa0vQnsEIQBE7gytlKhgwZOClJkiTs3sF9hZs4f/586t27N2Gf1qZNG9ticu0GBHyaSNhzHD9+nFdsTApYGmy8sRJv3ryZXr16ZRcSEAuuzcWLFwnRKxAJD05hkbDRVy4WJrnRgoewXbt25eAA3C9YptixY7OVQCj82bNnpPZNe/bs4eoLFChgtxkIVMCtO3jwIPcBhIEgxA4MQODXr1/zXqtgwYIcvIC7WKtWLbbSW7ZsESLZRdb4RJ92orE/wKYdblFISAi999577PcjxBseifQQIQ/KY6+AstABXUiDbndJ06ZN2eWCFXny5AlXA/cL0r59e7Yaixcv5j0U3DCQPTxR5UCQX3/9ldauXcvkBEGxYMSMGZNAuEmTJnGQAxYJAQcIXFoRzyDg00TSv3oDONSew5UQuAp3q7IKVlvdKt3Voz2rBkvRs2dPevr0qeVVH7h8iOadPn2aWrRowdajdOnSNGPGDIvrp+rWBwlgXRDle/ToEfXt25e+/vprQp2//PILWySUwb4I4W8coRtka9euHZNW6ZSjexHw6XftZs6cadV7uC+FChUi23SrTHYu8NwFVgiWTC9I94YgDA8XEC6fK3Lv3j22PurZlG1ZuMKwuHBlRTyLgE8TybNQSG2CQOQR8GnXLvLdkpKCgGcRECJ5Fm+pzU8RECL56cBKtzyLgBDJs3hLbX6KgBDJTwdWuuVZBIRInsVbavNTBIRIfjqw0i3PIiBE8izeUpufIiBE8tOBlW55FgEhkmfxltr8FAEhkp8OrHTLswgIkTyLt9TmpwgIkfx0YKVbnkVAiORZvKU2P0VAiOSnAyvd8iwCQiTP4i21+SkCQiQ/HVjplmcRECJ5Fm+pzU8RECL56cBKtzyLgBDJs3hLbX6KgBDJTwdWuuVZBIRInsVbavNTBIRIfjqw0i3PIiBE8izeUpufIiBE8tOBlW55FgEhkmfxltr8FAEhkp8OrHTLswgIkTyLt9TmpwgIkfx0YKVbnkVAiORZvKU2P0VAiOSnAyvd8iwCQiTP4i21+SkCPv0xZkeYv337lm/jA8346QUfXcYPov+MpD6PnAsCRiJgOiLh85Xnz5+3fOQYJGrZsqUVJrNnz7YQKWHChJQjRw7CZzPNLPh6eXBwMH9HN2nSpGbuil+23VSuHUiEb8GqL4U7MyLIa+/7sc6UdSbPwoULacSIEXbbtHv3bho+fDg9ePDAGVUO81y9epVq1KhBK1ascJhPbnoHAVNZJFgiSNWqVSlDhgzhIqa3UPh6+ebNm9mKucMqYWLv2bOHiTRgwACrNh08eJAmTpxIjRo1IrEiVtD43YVpLBL2RMoSOSKR7QipvCir9lW2eYy4njNnDu3fv98IVaLDhAiYyiL5Or49e/akdevWUbx48Rw29cyZM7RhwwaCxcqUKRPVrVuXihcvblXm/v37NHXqVDpx4gSlT5+eypUrZ3VfXZw9e5bWrl3L7mvWrFmpefPmhKOSN2/esMXctGkT3bp1i6pXr04VKlSgZMmSqSxyNAABU1gkROD+/vtv7m6SJElc7rYqAx0qmueyEgcFkidPTj/88ANdvnyZxo0b5yAn0dGjR6l27dqEvVWaNGlo165d1LhxY1qwYIGl3LNnz6h+/fo0adIkihUrFl24cIE6depkua9OQLJatWpxnTFjxiRYRbi9ygVGvv79+1OzZs3o5MmT9PLlS+rWrRuT6d69e0qNHI1AQJtYPi8zZ84MnTFjBv+0wIHL7UUZVR66jJQmTZqEFi1aNFRb+UNxniVLltBjx45xFRqp+Pqvv/7ia8215LzIrwUgOO358+ehmkXifHfu3OG06dOn8/Uvv/zC1/gza9YsTsNRSalSpVjf48ePOenSpUucp2vXrnz96tUrvka7lGgE5rRly5apJDkagIApLJJaMOD+RCZggDK2rpPSadQRz6uGDh3K6nr06EHaJA6jGhbr7t27VLNmTVJWMm7cuFSvXj3Oi+giZO/evXyEdVFSsWJFdcpHRPFu3LhBlSpVouvXr7MVCgkJ4VD/oUOHOA+sVMaMGen48eOkEYcePnxIDRo0ILiWcCdFjEPAVEQyrtvu0YT9Tt++fXlSwy2zFUxgiC2pNQvF6YgwQnCE25c6dWq+tvdH6Vq8eDGHxREaxw9uHQirZMqUKaRZSerevTsVKlSIWrVqRXiMECNGDJVFjgYgYKpgw759+3ild9UqqedPBuAVoYoWLVrQypUrafTo0VStWjWr/CoEDguiFzxohSjipEiRgq0GrBr2SPYkfvz4nNy6dWsOr+vz6N/0yJkzJ7fn4sWLFBQURPPmzeM92ZIlS5hY+nJyHnkETGGRMDmrVKnCvVSTzpUuYxJBoAO63ClY6fEQFoJImV6yZcvGl5jQetmxYwdf5s2bl4+Y/BAEJpTcvHlTnfJRReYOHDjA7hze3sAvQYIE/PYDMp0+fZpduVWrVnEkr23btjRs2DAujyCHiHEImIJIWGERAoZE5i0B7A0g0KFfrTnRDX8woeFK2QosTbt27fh50+DBgwlvPiDKh/0L9i7Yz0AQZYNgr7V69WqO6NlG7WC9EOrWAht8XL9+PefDfguROghcOriAAwcOZEu0detW0oIufK9w4cJ8lD/GIGAq186YLhurJTxigjBr1qzhiayvEeSIHTs2jR8/nic1QucgBPZWSrDX0iJ31LlzZ/4hHW9raBE7q4XgP//5D8HFw35s586dXPyjjz6iIUOG8DkCGcuXL6devXpRv379OC1//vwEEmsRP76WP8YgEA2RP2NUuV/LokWL+O2GiF4R0rdEvSKEl1ex6vuK4C2L27dvU6pUqazIoW8fhgYPUWHJHAUHlC5H+bQwO7148UIexOoBNvDcVESyFzSARcBqrRes3LbrAyJWrgYp9DrlXBBwhICpXDtFBP0/o3DUOdzzl39GEVE/5b53ETCVRdJDpX8B1fYf7zm6p9ch54KAUQiYlkhGASB6BAEjEDBF+NuIjooOQcCdCAiR3Imu6A4YBIRIATPU0lF3IiBEcie6ojtgEBAiBcxQS0fdiYAQyZ3oiu6AQUCIFDBDLR11JwJCJHeiK7oDBgEhUsAMtXTUnQgIkdyJrugOGASESAEz1NJRdyIgRHInuqI7YBAQIgXMUEtH3YmAEMmd6IrugEHg/wFdnAZz0Ujh3gAAAABJRU5ErkJggg==;imageBackground=none;fillStyle=dots;imageBorder=#FF6666;dashed=1;strokeWidth=2;" vertex="1" parent="1">
          <mxGeometry x="680" y="698" width="210" height="290" as="geometry" />
        </mxCell>
        <mxCell id="_Icnadqldm7JAuMDdTMk-8" value="" style="rounded=1;whiteSpace=wrap;html=1;fillColor=none;strokeColor=#FF3333;strokeWidth=5;" vertex="1" parent="1">
          <mxGeometry x="680" y="490" width="195" height="50" as="geometry" />
        </mxCell>
        <mxCell id="_Icnadqldm7JAuMDdTMk-9" value="&lt;font color=&quot;#ff3333&quot; face=&quot;Nunito&quot; style=&quot;font-size: 30px;&quot;&gt;vantage6 entities&lt;/font&gt;" style="text;html=1;align=center;verticalAlign=middle;whiteSpace=wrap;rounded=0;" vertex="1" parent="1">
          <mxGeometry x="692.5" y="998" width="170" height="60" as="geometry" />
        </mxCell>
        <mxCell id="_Icnadqldm7JAuMDdTMk-10" value="" style="endArrow=classic;html=1;rounded=0;exitX=0;exitY=1;exitDx=0;exitDy=0;entryX=0.155;entryY=0;entryDx=0;entryDy=0;dashed=1;dashPattern=1 1;strokeWidth=3;strokeColor=#FF6666;entryPerimeter=0;" edge="1" parent="1" source="_Icnadqldm7JAuMDdTMk-8" target="_Icnadqldm7JAuMDdTMk-7">
          <mxGeometry width="50" height="50" relative="1" as="geometry">
            <mxPoint x="642.5" y="628" as="sourcePoint" />
            <mxPoint x="692.5" y="578" as="targetPoint" />
          </mxGeometry>
        </mxCell>
      </root>
    </mxGraphModel>
  </diagram>
</mxfile>
